<svg width="110" height="110" viewBox="0 0 110 110" fill="none" xmlns="http://www.w3.org/2000/svg">
<g id="Frame">
<rect width="109.25" height="109.25" transform="translate(0.450195 0.450195)" fill="white"/>
<g id="Group">
<path id="Vector" d="M5.91315 31.4043H2.27148V35.046H5.91315V31.4043Z" fill="black"/>
<path id="Vector_2" d="M5.91315 38.6875H2.27148V42.3292H5.91315V38.6875Z" fill="black"/>
<path id="Vector_3" d="M5.91315 53.2544H2.27148V56.8961H5.91315V53.2544Z" fill="black"/>
<path id="Vector_4" d="M5.91315 60.5376H2.27148V64.1793H5.91315V60.5376Z" fill="black"/>
<path id="Vector_5" d="M5.91315 67.8208H2.27148V71.4625H5.91315V67.8208Z" fill="black"/>
<path id="Vector_6" d="M5.91315 71.4629H2.27148V75.1046H5.91315V71.4629Z" fill="black"/>
<path id="Vector_7" d="M9.55475 31.4043H5.91309V35.046H9.55475V31.4043Z" fill="black"/>
<path id="Vector_8" d="M9.55475 42.3291H5.91309V45.9708H9.55475V42.3291Z" fill="black"/>
<path id="Vector_9" d="M9.55475 45.9712H5.91309V49.6129H9.55475V45.9712Z" fill="black"/>
<path id="Vector_10" d="M9.55475 71.4629H5.91309V75.1046H9.55475V71.4629Z" fill="black"/>
<path id="Vector_11" d="M13.1964 35.0459H9.55469V38.6876H13.1964V35.0459Z" fill="black"/>
<path id="Vector_12" d="M13.1964 56.896H9.55469V60.5377H13.1964V56.896Z" fill="black"/>
<path id="Vector_13" d="M13.1964 60.5376H9.55469V64.1793H13.1964V60.5376Z" fill="black"/>
<path id="Vector_14" d="M13.1964 71.4629H9.55469V75.1046H13.1964V71.4629Z" fill="black"/>
<path id="Vector_15" d="M13.1964 75.1045H9.55469V78.7462H13.1964V75.1045Z" fill="black"/>
<path id="Vector_16" d="M16.838 35.0459H13.1963V38.6876H16.838V35.0459Z" fill="black"/>
<path id="Vector_17" d="M16.838 42.3291H13.1963V45.9708H16.838V42.3291Z" fill="black"/>
<path id="Vector_18" d="M16.838 45.9712H13.1963V49.6129H16.838V45.9712Z" fill="black"/>
<path id="Vector_19" d="M16.838 53.2544H13.1963V56.8961H16.838V53.2544Z" fill="black"/>
<path id="Vector_20" d="M16.838 56.896H13.1963V60.5377H16.838V56.896Z" fill="black"/>
<path id="Vector_21" d="M16.838 64.1792H13.1963V67.8209H16.838V64.1792Z" fill="black"/>
<path id="Vector_22" d="M16.838 71.4629H13.1963V75.1046H16.838V71.4629Z" fill="black"/>
<path id="Vector_23" d="M16.838 75.1045H13.1963V78.7462H16.838V75.1045Z" fill="black"/>
<path id="Vector_24" d="M20.4796 35.0459H16.8379V38.6876H20.4796V35.0459Z" fill="black"/>
<path id="Vector_25" d="M20.4796 38.6875H16.8379V42.3292H20.4796V38.6875Z" fill="black"/>
<path id="Vector_26" d="M20.4796 49.6128H16.8379V53.2545H20.4796V49.6128Z" fill="black"/>
<path id="Vector_27" d="M20.4796 53.2544H16.8379V56.8961H20.4796V53.2544Z" fill="black"/>
<path id="Vector_28" d="M20.4796 56.896H16.8379V60.5377H20.4796V56.896Z" fill="black"/>
<path id="Vector_29" d="M20.4796 60.5376H16.8379V64.1793H20.4796V60.5376Z" fill="black"/>
<path id="Vector_30" d="M20.4796 71.4629H16.8379V75.1046H20.4796V71.4629Z" fill="black"/>
<path id="Vector_31" d="M24.1212 35.0459H20.4795V38.6876H24.1212V35.0459Z" fill="black"/>
<path id="Vector_32" d="M24.1212 45.9712H20.4795V49.6129H24.1212V45.9712Z" fill="black"/>
<path id="Vector_33" d="M24.1212 53.2544H20.4795V56.8961H24.1212V53.2544Z" fill="black"/>
<path id="Vector_34" d="M24.1212 60.5376H20.4795V64.1793H24.1212V60.5376Z" fill="black"/>
<path id="Vector_35" d="M24.1212 67.8208H20.4795V71.4625H24.1212V67.8208Z" fill="black"/>
<path id="Vector_36" d="M24.1212 75.1045H20.4795V78.7462H24.1212V75.1045Z" fill="black"/>
<path id="Vector_37" d="M27.7628 31.4043H24.1211V35.046H27.7628V31.4043Z" fill="black"/>
<path id="Vector_38" d="M27.7628 38.6875H24.1211V42.3292H27.7628V38.6875Z" fill="black"/>
<path id="Vector_39" d="M27.7628 45.9712H24.1211V49.6129H27.7628V45.9712Z" fill="black"/>
<path id="Vector_40" d="M27.7628 53.2544H24.1211V56.8961H27.7628V53.2544Z" fill="black"/>
<path id="Vector_41" d="M27.7628 60.5376H24.1211V64.1793H27.7628V60.5376Z" fill="black"/>
<path id="Vector_42" d="M27.7628 67.8208H24.1211V71.4625H27.7628V67.8208Z" fill="black"/>
<path id="Vector_43" d="M27.7628 75.1045H24.1211V78.7462H27.7628V75.1045Z" fill="black"/>
<path id="Vector_44" d="M31.4044 38.6875H27.7627V42.3292H31.4044V38.6875Z" fill="black"/>
<path id="Vector_45" d="M31.4044 42.3291H27.7627V45.9708H31.4044V42.3291Z" fill="black"/>
<path id="Vector_46" d="M31.4044 56.896H27.7627V60.5377H31.4044V56.896Z" fill="black"/>
<path id="Vector_47" d="M31.4044 60.5376H27.7627V64.1793H31.4044V60.5376Z" fill="black"/>
<path id="Vector_48" d="M31.4044 75.1045H27.7627V78.7462H31.4044V75.1045Z" fill="black"/>
<path id="Vector_49" d="M35.0469 5.9126H31.4053V9.55426H35.0469V5.9126Z" fill="black"/>
<path id="Vector_50" d="M35.0469 24.1211H31.4053V27.7628H35.0469V24.1211Z" fill="black"/>
<path id="Vector_51" d="M35.0469 27.7627H31.4053V31.4044H35.0469V27.7627Z" fill="black"/>
<path id="Vector_52" d="M35.0469 31.4043H31.4053V35.046H35.0469V31.4043Z" fill="black"/>
<path id="Vector_53" d="M35.0469 38.6875H31.4053V42.3292H35.0469V38.6875Z" fill="black"/>
<path id="Vector_54" d="M35.0469 45.9712H31.4053V49.6129H35.0469V45.9712Z" fill="black"/>
<path id="Vector_55" d="M35.0469 53.2544H31.4053V56.8961H35.0469V53.2544Z" fill="black"/>
<path id="Vector_56" d="M35.0469 56.896H31.4053V60.5377H35.0469V56.896Z" fill="black"/>
<path id="Vector_57" d="M35.0469 60.5376H31.4053V64.1793H35.0469V60.5376Z" fill="black"/>
<path id="Vector_58" d="M35.0469 67.8208H31.4053V71.4625H35.0469V67.8208Z" fill="black"/>
<path id="Vector_59" d="M35.0469 78.7461H31.4053V82.3878H35.0469V78.7461Z" fill="black"/>
<path id="Vector_60" d="M35.0469 100.596H31.4053V104.238H35.0469V100.596Z" fill="black"/>
<path id="Vector_61" d="M35.0469 104.238H31.4053V107.879H35.0469V104.238Z" fill="black"/>
<path id="Vector_62" d="M38.6885 5.9126H35.0469V9.55426H38.6885V5.9126Z" fill="black"/>
<path id="Vector_63" d="M38.6885 31.4043H35.0469V35.046H38.6885V31.4043Z" fill="black"/>
<path id="Vector_64" d="M38.6885 35.0459H35.0469V38.6876H38.6885V35.0459Z" fill="black"/>
<path id="Vector_65" d="M38.6885 38.6875H35.0469V42.3292H38.6885V38.6875Z" fill="black"/>
<path id="Vector_66" d="M38.6885 42.3291H35.0469V45.9708H38.6885V42.3291Z" fill="black"/>
<path id="Vector_67" d="M38.6885 45.9712H35.0469V49.6129H38.6885V45.9712Z" fill="black"/>
<path id="Vector_68" d="M38.6885 60.5376H35.0469V64.1793H38.6885V60.5376Z" fill="black"/>
<path id="Vector_69" d="M38.6885 75.1045H35.0469V78.7462H38.6885V75.1045Z" fill="black"/>
<path id="Vector_70" d="M38.6885 78.7461H35.0469V82.3878H38.6885V78.7461Z" fill="black"/>
<path id="Vector_71" d="M38.6885 89.6709H35.0469V93.3126H38.6885V89.6709Z" fill="black"/>
<path id="Vector_72" d="M38.6885 93.3125H35.0469V96.9542H38.6885V93.3125Z" fill="black"/>
<path id="Vector_73" d="M38.6885 100.596H35.0469V104.238H38.6885V100.596Z" fill="black"/>
<path id="Vector_74" d="M42.3301 5.9126H38.6885V9.55426H42.3301V5.9126Z" fill="black"/>
<path id="Vector_75" d="M42.3301 9.5542H38.6885V13.1959H42.3301V9.5542Z" fill="black"/>
<path id="Vector_76" d="M42.3301 20.4795H38.6885V24.1212H42.3301V20.4795Z" fill="black"/>
<path id="Vector_77" d="M42.3301 24.1211H38.6885V27.7628H42.3301V24.1211Z" fill="black"/>
<path id="Vector_78" d="M42.3301 31.4043H38.6885V35.046H42.3301V31.4043Z" fill="black"/>
<path id="Vector_79" d="M42.3301 35.0459H38.6885V38.6876H42.3301V35.0459Z" fill="black"/>
<path id="Vector_80" d="M42.3301 38.6875H38.6885V42.3292H42.3301V38.6875Z" fill="black"/>
<path id="Vector_81" d="M42.3301 49.6128H38.6885V53.2545H42.3301V49.6128Z" fill="black"/>
<path id="Vector_82" d="M42.3301 53.2544H38.6885V56.8961H42.3301V53.2544Z" fill="black"/>
<path id="Vector_83" d="M42.3301 56.896H38.6885V60.5377H42.3301V56.896Z" fill="black"/>
<path id="Vector_84" d="M42.3301 60.5376H38.6885V64.1793H42.3301V60.5376Z" fill="black"/>
<path id="Vector_85" d="M42.3301 67.8208H38.6885V71.4625H42.3301V67.8208Z" fill="black"/>
<path id="Vector_86" d="M42.3301 78.7461H38.6885V82.3878H42.3301V78.7461Z" fill="black"/>
<path id="Vector_87" d="M42.3301 82.3877H38.6885V86.0294H42.3301V82.3877Z" fill="black"/>
<path id="Vector_88" d="M42.3301 86.0293H38.6885V89.671H42.3301V86.0293Z" fill="black"/>
<path id="Vector_89" d="M42.3301 89.6709H38.6885V93.3126H42.3301V89.6709Z" fill="black"/>
<path id="Vector_90" d="M42.3301 93.3125H38.6885V96.9542H42.3301V93.3125Z" fill="black"/>
<path id="Vector_91" d="M42.3301 96.9541H38.6885V100.596H42.3301V96.9541Z" fill="black"/>
<path id="Vector_92" d="M45.9717 2.271H42.3301V5.91266H45.9717V2.271Z" fill="black"/>
<path id="Vector_93" d="M45.9717 5.9126H42.3301V9.55426H45.9717V5.9126Z" fill="black"/>
<path id="Vector_94" d="M45.9717 9.5542H42.3301V13.1959H45.9717V9.5542Z" fill="black"/>
<path id="Vector_95" d="M45.9717 13.1958H42.3301V16.8375H45.9717V13.1958Z" fill="black"/>
<path id="Vector_96" d="M45.9717 27.7627H42.3301V31.4044H45.9717V27.7627Z" fill="black"/>
<path id="Vector_97" d="M45.9717 31.4043H42.3301V35.046H45.9717V31.4043Z" fill="black"/>
<path id="Vector_98" d="M45.9717 38.6875H42.3301V42.3292H45.9717V38.6875Z" fill="black"/>
<path id="Vector_99" d="M45.9717 42.3291H42.3301V45.9708H45.9717V42.3291Z" fill="black"/>
<path id="Vector_100" d="M45.9717 45.9712H42.3301V49.6129H45.9717V45.9712Z" fill="black"/>
<path id="Vector_101" d="M45.9717 49.6128H42.3301V53.2545H45.9717V49.6128Z" fill="black"/>
<path id="Vector_102" d="M45.9717 60.5376H42.3301V64.1793H45.9717V60.5376Z" fill="black"/>
<path id="Vector_103" d="M45.9717 71.4629H42.3301V75.1046H45.9717V71.4629Z" fill="black"/>
<path id="Vector_104" d="M45.9717 82.3877H42.3301V86.0294H45.9717V82.3877Z" fill="black"/>
<path id="Vector_105" d="M45.9717 93.3125H42.3301V96.9542H45.9717V93.3125Z" fill="black"/>
<path id="Vector_106" d="M49.6133 13.1958H45.9717V16.8375H49.6133V13.1958Z" fill="black"/>
<path id="Vector_107" d="M49.6133 20.4795H45.9717V24.1212H49.6133V20.4795Z" fill="black"/>
<path id="Vector_108" d="M49.6133 24.1211H45.9717V27.7628H49.6133V24.1211Z" fill="black"/>
<path id="Vector_109" d="M49.6133 27.7627H45.9717V31.4044H49.6133V27.7627Z" fill="black"/>
<path id="Vector_110" d="M49.6133 31.4043H45.9717V35.046H49.6133V31.4043Z" fill="black"/>
<path id="Vector_111" d="M49.6133 35.0459H45.9717V38.6876H49.6133V35.0459Z" fill="black"/>
<path id="Vector_112" d="M49.6133 38.6875H45.9717V42.3292H49.6133V38.6875Z" fill="black"/>
<path id="Vector_113" d="M49.6133 49.6128H45.9717V53.2545H49.6133V49.6128Z" fill="black"/>
<path id="Vector_114" d="M49.6133 53.2544H45.9717V56.8961H49.6133V53.2544Z" fill="black"/>
<path id="Vector_115" d="M49.6133 71.4629H45.9717V75.1046H49.6133V71.4629Z" fill="black"/>
<path id="Vector_116" d="M49.6133 75.1045H45.9717V78.7462H49.6133V75.1045Z" fill="black"/>
<path id="Vector_117" d="M49.6133 78.7461H45.9717V82.3878H49.6133V78.7461Z" fill="black"/>
<path id="Vector_118" d="M49.6133 82.3877H45.9717V86.0294H49.6133V82.3877Z" fill="black"/>
<path id="Vector_119" d="M49.6133 96.9541H45.9717V100.596H49.6133V96.9541Z" fill="black"/>
<path id="Vector_120" d="M49.6133 100.596H45.9717V104.238H49.6133V100.596Z" fill="black"/>
<path id="Vector_121" d="M53.2549 9.5542H49.6133V13.1959H53.2549V9.5542Z" fill="black"/>
<path id="Vector_122" d="M53.2549 16.8379H49.6133V20.4796H53.2549V16.8379Z" fill="black"/>
<path id="Vector_123" d="M53.2549 20.4795H49.6133V24.1212H53.2549V20.4795Z" fill="black"/>
<path id="Vector_124" d="M53.2549 35.0459H49.6133V38.6876H53.2549V35.0459Z" fill="black"/>
<path id="Vector_125" d="M53.2549 53.2544H49.6133V56.8961H53.2549V53.2544Z" fill="black"/>
<path id="Vector_126" d="M53.2549 60.5376H49.6133V64.1793H53.2549V60.5376Z" fill="black"/>
<path id="Vector_127" d="M53.2549 64.1792H49.6133V67.8209H53.2549V64.1792Z" fill="black"/>
<path id="Vector_128" d="M53.2549 71.4629H49.6133V75.1046H53.2549V71.4629Z" fill="black"/>
<path id="Vector_129" d="M53.2549 75.1045H49.6133V78.7462H53.2549V75.1045Z" fill="black"/>
<path id="Vector_130" d="M53.2549 82.3877H49.6133V86.0294H53.2549V82.3877Z" fill="black"/>
<path id="Vector_131" d="M53.2549 89.6709H49.6133V93.3126H53.2549V89.6709Z" fill="black"/>
<path id="Vector_132" d="M53.2549 93.3125H49.6133V96.9542H53.2549V93.3125Z" fill="black"/>
<path id="Vector_133" d="M53.2549 104.238H49.6133V107.879H53.2549V104.238Z" fill="black"/>
<path id="Vector_134" d="M56.8965 2.271H53.2549V5.91266H56.8965V2.271Z" fill="black"/>
<path id="Vector_135" d="M56.8965 5.9126H53.2549V9.55426H56.8965V5.9126Z" fill="black"/>
<path id="Vector_136" d="M56.8965 9.5542H53.2549V13.1959H56.8965V9.5542Z" fill="black"/>
<path id="Vector_137" d="M56.8965 20.4795H53.2549V24.1212H56.8965V20.4795Z" fill="black"/>
<path id="Vector_138" d="M56.8965 24.1211H53.2549V27.7628H56.8965V24.1211Z" fill="black"/>
<path id="Vector_139" d="M56.8965 27.7627H53.2549V31.4044H56.8965V27.7627Z" fill="black"/>
<path id="Vector_140" d="M56.8965 31.4043H53.2549V35.046H56.8965V31.4043Z" fill="black"/>
<path id="Vector_141" d="M56.8965 35.0459H53.2549V38.6876H56.8965V35.0459Z" fill="black"/>
<path id="Vector_142" d="M56.8965 38.6875H53.2549V42.3292H56.8965V38.6875Z" fill="black"/>
<path id="Vector_143" d="M56.8965 42.3291H53.2549V45.9708H56.8965V42.3291Z" fill="black"/>
<path id="Vector_144" d="M56.8965 45.9712H53.2549V49.6129H56.8965V45.9712Z" fill="black"/>
<path id="Vector_145" d="M56.8965 53.2544H53.2549V56.8961H56.8965V53.2544Z" fill="black"/>
<path id="Vector_146" d="M56.8965 56.896H53.2549V60.5377H56.8965V56.896Z" fill="black"/>
<path id="Vector_147" d="M56.8965 64.1792H53.2549V67.8209H56.8965V64.1792Z" fill="black"/>
<path id="Vector_148" d="M56.8965 75.1045H53.2549V78.7462H56.8965V75.1045Z" fill="black"/>
<path id="Vector_149" d="M56.8965 86.0293H53.2549V89.671H56.8965V86.0293Z" fill="black"/>
<path id="Vector_150" d="M56.8965 100.596H53.2549V104.238H56.8965V100.596Z" fill="black"/>
<path id="Vector_151" d="M60.5382 9.5542H56.8965V13.1959H60.5382V9.5542Z" fill="black"/>
<path id="Vector_152" d="M60.5382 13.1958H56.8965V16.8375H60.5382V13.1958Z" fill="black"/>
<path id="Vector_153" d="M60.5382 16.8379H56.8965V20.4796H60.5382V16.8379Z" fill="black"/>
<path id="Vector_154" d="M60.5382 27.7627H56.8965V31.4044H60.5382V27.7627Z" fill="black"/>
<path id="Vector_155" d="M60.5382 45.9712H56.8965V49.6129H60.5382V45.9712Z" fill="black"/>
<path id="Vector_156" d="M60.5382 56.896H56.8965V60.5377H60.5382V56.896Z" fill="black"/>
<path id="Vector_157" d="M60.5382 60.5376H56.8965V64.1793H60.5382V60.5376Z" fill="black"/>
<path id="Vector_158" d="M60.5382 64.1792H56.8965V67.8209H60.5382V64.1792Z" fill="black"/>
<path id="Vector_159" d="M60.5382 67.8208H56.8965V71.4625H60.5382V67.8208Z" fill="black"/>
<path id="Vector_160" d="M60.5382 78.7461H56.8965V82.3878H60.5382V78.7461Z" fill="black"/>
<path id="Vector_161" d="M60.5382 89.6709H56.8965V93.3126H60.5382V89.6709Z" fill="black"/>
<path id="Vector_162" d="M60.5382 93.3125H56.8965V96.9542H60.5382V93.3125Z" fill="black"/>
<path id="Vector_163" d="M60.5382 96.9541H56.8965V100.596H60.5382V96.9541Z" fill="black"/>
<path id="Vector_164" d="M60.5382 100.596H56.8965V104.238H60.5382V100.596Z" fill="black"/>
<path id="Vector_165" d="M60.5382 104.238H56.8965V107.879H60.5382V104.238Z" fill="black"/>
<path id="Vector_166" d="M64.1798 2.271H60.5381V5.91266H64.1798V2.271Z" fill="black"/>
<path id="Vector_167" d="M64.1798 5.9126H60.5381V9.55426H64.1798V5.9126Z" fill="black"/>
<path id="Vector_168" d="M64.1798 24.1211H60.5381V27.7628H64.1798V24.1211Z" fill="black"/>
<path id="Vector_169" d="M64.1798 27.7627H60.5381V31.4044H64.1798V27.7627Z" fill="black"/>
<path id="Vector_170" d="M64.1798 31.4043H60.5381V35.046H64.1798V31.4043Z" fill="black"/>
<path id="Vector_171" d="M64.1798 42.3291H60.5381V45.9708H64.1798V42.3291Z" fill="black"/>
<path id="Vector_172" d="M64.1798 45.9712H60.5381V49.6129H64.1798V45.9712Z" fill="black"/>
<path id="Vector_173" d="M64.1798 60.5376H60.5381V64.1793H64.1798V60.5376Z" fill="black"/>
<path id="Vector_174" d="M64.1798 71.4629H60.5381V75.1046H64.1798V71.4629Z" fill="black"/>
<path id="Vector_175" d="M64.1798 78.7461H60.5381V82.3878H64.1798V78.7461Z" fill="black"/>
<path id="Vector_176" d="M64.1798 86.0293H60.5381V89.671H64.1798V86.0293Z" fill="black"/>
<path id="Vector_177" d="M64.1798 89.6709H60.5381V93.3126H64.1798V89.6709Z" fill="black"/>
<path id="Vector_178" d="M64.1798 93.3125H60.5381V96.9542H64.1798V93.3125Z" fill="black"/>
<path id="Vector_179" d="M64.1798 96.9541H60.5381V100.596H64.1798V96.9541Z" fill="black"/>
<path id="Vector_180" d="M64.1798 104.238H60.5381V107.879H64.1798V104.238Z" fill="black"/>
<path id="Vector_181" d="M67.8214 2.271H64.1797V5.91266H67.8214V2.271Z" fill="black"/>
<path id="Vector_182" d="M67.8214 9.5542H64.1797V13.1959H67.8214V9.5542Z" fill="black"/>
<path id="Vector_183" d="M67.8214 16.8379H64.1797V20.4796H67.8214V16.8379Z" fill="black"/>
<path id="Vector_184" d="M67.8214 31.4043H64.1797V35.046H67.8214V31.4043Z" fill="black"/>
<path id="Vector_185" d="M67.8214 38.6875H64.1797V42.3292H67.8214V38.6875Z" fill="black"/>
<path id="Vector_186" d="M67.8214 42.3291H64.1797V45.9708H67.8214V42.3291Z" fill="black"/>
<path id="Vector_187" d="M67.8214 53.2544H64.1797V56.8961H67.8214V53.2544Z" fill="black"/>
<path id="Vector_188" d="M67.8214 67.8208H64.1797V71.4625H67.8214V67.8208Z" fill="black"/>
<path id="Vector_189" d="M67.8214 71.4629H64.1797V75.1046H67.8214V71.4629Z" fill="black"/>
<path id="Vector_190" d="M67.8214 75.1045H64.1797V78.7462H67.8214V75.1045Z" fill="black"/>
<path id="Vector_191" d="M67.8214 78.7461H64.1797V82.3878H67.8214V78.7461Z" fill="black"/>
<path id="Vector_192" d="M67.8214 82.3877H64.1797V86.0294H67.8214V82.3877Z" fill="black"/>
<path id="Vector_193" d="M67.8214 86.0293H64.1797V89.671H67.8214V86.0293Z" fill="black"/>
<path id="Vector_194" d="M67.8214 89.6709H64.1797V93.3126H67.8214V89.6709Z" fill="black"/>
<path id="Vector_195" d="M67.8214 104.238H64.1797V107.879H67.8214V104.238Z" fill="black"/>
<path id="Vector_196" d="M71.463 2.271H67.8213V5.91266H71.463V2.271Z" fill="black"/>
<path id="Vector_197" d="M71.463 5.9126H67.8213V9.55426H71.463V5.9126Z" fill="black"/>
<path id="Vector_198" d="M71.463 16.8379H67.8213V20.4796H71.463V16.8379Z" fill="black"/>
<path id="Vector_199" d="M71.463 20.4795H67.8213V24.1212H71.463V20.4795Z" fill="black"/>
<path id="Vector_200" d="M71.463 24.1211H67.8213V27.7628H71.463V24.1211Z" fill="black"/>
<path id="Vector_201" d="M71.463 45.9712H67.8213V49.6129H71.463V45.9712Z" fill="black"/>
<path id="Vector_202" d="M71.463 53.2544H67.8213V56.8961H71.463V53.2544Z" fill="black"/>
<path id="Vector_203" d="M71.463 56.896H67.8213V60.5377H71.463V56.896Z" fill="black"/>
<path id="Vector_204" d="M71.463 67.8208H67.8213V71.4625H71.463V67.8208Z" fill="black"/>
<path id="Vector_205" d="M71.463 71.4629H67.8213V75.1046H71.463V71.4629Z" fill="black"/>
<path id="Vector_206" d="M71.463 75.1045H67.8213V78.7462H71.463V75.1045Z" fill="black"/>
<path id="Vector_207" d="M71.463 89.6709H67.8213V93.3126H71.463V89.6709Z" fill="black"/>
<path id="Vector_208" d="M71.463 96.9541H67.8213V100.596H71.463V96.9541Z" fill="black"/>
<path id="Vector_209" d="M71.463 104.238H67.8213V107.879H71.463V104.238Z" fill="black"/>
<path id="Vector_210" d="M75.1046 2.271H71.4629V5.91266H75.1046V2.271Z" fill="black"/>
<path id="Vector_211" d="M75.1046 9.5542H71.4629V13.1959H75.1046V9.5542Z" fill="black"/>
<path id="Vector_212" d="M75.1046 20.4795H71.4629V24.1212H75.1046V20.4795Z" fill="black"/>
<path id="Vector_213" d="M75.1046 27.7627H71.4629V31.4044H75.1046V27.7627Z" fill="black"/>
<path id="Vector_214" d="M75.1046 31.4043H71.4629V35.046H75.1046V31.4043Z" fill="black"/>
<path id="Vector_215" d="M75.1046 35.0459H71.4629V38.6876H75.1046V35.0459Z" fill="black"/>
<path id="Vector_216" d="M75.1046 38.6875H71.4629V42.3292H75.1046V38.6875Z" fill="black"/>
<path id="Vector_217" d="M75.1046 49.6128H71.4629V53.2545H75.1046V49.6128Z" fill="black"/>
<path id="Vector_218" d="M75.1046 67.8208H71.4629V71.4625H75.1046V67.8208Z" fill="black"/>
<path id="Vector_219" d="M75.1046 78.7461H71.4629V82.3878H75.1046V78.7461Z" fill="black"/>
<path id="Vector_220" d="M75.1046 82.3877H71.4629V86.0294H75.1046V82.3877Z" fill="black"/>
<path id="Vector_221" d="M75.1046 86.0293H71.4629V89.671H75.1046V86.0293Z" fill="black"/>
<path id="Vector_222" d="M75.1046 93.3125H71.4629V96.9542H75.1046V93.3125Z" fill="black"/>
<path id="Vector_223" d="M75.1046 104.238H71.4629V107.879H75.1046V104.238Z" fill="black"/>
<path id="Vector_224" d="M78.7462 2.271H75.1045V5.91266H78.7462V2.271Z" fill="black"/>
<path id="Vector_225" d="M78.7462 13.1958H75.1045V16.8375H78.7462V13.1958Z" fill="black"/>
<path id="Vector_226" d="M78.7462 16.8379H75.1045V20.4796H78.7462V16.8379Z" fill="black"/>
<path id="Vector_227" d="M78.7462 20.4795H75.1045V24.1212H78.7462V20.4795Z" fill="black"/>
<path id="Vector_228" d="M78.7462 24.1211H75.1045V27.7628H78.7462V24.1211Z" fill="black"/>
<path id="Vector_229" d="M78.7462 27.7627H75.1045V31.4044H78.7462V27.7627Z" fill="black"/>
<path id="Vector_230" d="M78.7462 31.4043H75.1045V35.046H78.7462V31.4043Z" fill="black"/>
<path id="Vector_231" d="M78.7462 35.0459H75.1045V38.6876H78.7462V35.0459Z" fill="black"/>
<path id="Vector_232" d="M78.7462 38.6875H75.1045V42.3292H78.7462V38.6875Z" fill="black"/>
<path id="Vector_233" d="M78.7462 42.3291H75.1045V45.9708H78.7462V42.3291Z" fill="black"/>
<path id="Vector_234" d="M78.7462 45.9712H75.1045V49.6129H78.7462V45.9712Z" fill="black"/>
<path id="Vector_235" d="M78.7462 53.2544H75.1045V56.8961H78.7462V53.2544Z" fill="black"/>
<path id="Vector_236" d="M78.7462 56.896H75.1045V60.5377H78.7462V56.896Z" fill="black"/>
<path id="Vector_237" d="M78.7462 64.1792H75.1045V67.8209H78.7462V64.1792Z" fill="black"/>
<path id="Vector_238" d="M78.7462 67.8208H75.1045V71.4625H78.7462V67.8208Z" fill="black"/>
<path id="Vector_239" d="M78.7462 71.4629H75.1045V75.1046H78.7462V71.4629Z" fill="black"/>
<path id="Vector_240" d="M78.7462 75.1045H75.1045V78.7462H78.7462V75.1045Z" fill="black"/>
<path id="Vector_241" d="M78.7462 78.7461H75.1045V82.3878H78.7462V78.7461Z" fill="black"/>
<path id="Vector_242" d="M78.7462 82.3877H75.1045V86.0294H78.7462V82.3877Z" fill="black"/>
<path id="Vector_243" d="M78.7462 86.0293H75.1045V89.671H78.7462V86.0293Z" fill="black"/>
<path id="Vector_244" d="M78.7462 89.6709H75.1045V93.3126H78.7462V89.6709Z" fill="black"/>
<path id="Vector_245" d="M78.7462 100.596H75.1045V104.238H78.7462V100.596Z" fill="black"/>
<path id="Vector_246" d="M78.7462 104.238H75.1045V107.879H78.7462V104.238Z" fill="black"/>
<path id="Vector_247" d="M82.3878 31.4043H78.7461V35.046H82.3878V31.4043Z" fill="black"/>
<path id="Vector_248" d="M82.3878 45.9712H78.7461V49.6129H82.3878V45.9712Z" fill="black"/>
<path id="Vector_249" d="M82.3878 49.6128H78.7461V53.2545H82.3878V49.6128Z" fill="black"/>
<path id="Vector_250" d="M82.3878 53.2544H78.7461V56.8961H82.3878V53.2544Z" fill="black"/>
<path id="Vector_251" d="M82.3878 56.896H78.7461V60.5377H82.3878V56.896Z" fill="black"/>
<path id="Vector_252" d="M82.3878 67.8208H78.7461V71.4625H82.3878V67.8208Z" fill="black"/>
<path id="Vector_253" d="M82.3878 75.1045H78.7461V78.7462H82.3878V75.1045Z" fill="black"/>
<path id="Vector_254" d="M82.3878 89.6709H78.7461V93.3126H82.3878V89.6709Z" fill="black"/>
<path id="Vector_255" d="M82.3878 93.3125H78.7461V96.9542H82.3878V93.3125Z" fill="black"/>
<path id="Vector_256" d="M82.3878 96.9541H78.7461V100.596H82.3878V96.9541Z" fill="black"/>
<path id="Vector_257" d="M86.0294 31.4043H82.3877V35.046H86.0294V31.4043Z" fill="black"/>
<path id="Vector_258" d="M86.0294 38.6875H82.3877V42.3292H86.0294V38.6875Z" fill="black"/>
<path id="Vector_259" d="M86.0294 56.896H82.3877V60.5377H86.0294V56.896Z" fill="black"/>
<path id="Vector_260" d="M86.0294 60.5376H82.3877V64.1793H86.0294V60.5376Z" fill="black"/>
<path id="Vector_261" d="M86.0294 67.8208H82.3877V71.4625H86.0294V67.8208Z" fill="black"/>
<path id="Vector_262" d="M86.0294 71.4629H82.3877V75.1046H86.0294V71.4629Z" fill="black"/>
<path id="Vector_263" d="M86.0294 75.1045H82.3877V78.7462H86.0294V75.1045Z" fill="black"/>
<path id="Vector_264" d="M86.0294 82.3877H82.3877V86.0294H86.0294V82.3877Z" fill="black"/>
<path id="Vector_265" d="M86.0294 89.6709H82.3877V93.3126H86.0294V89.6709Z" fill="black"/>
<path id="Vector_266" d="M89.6719 38.6875H86.0303V42.3292H89.6719V38.6875Z" fill="black"/>
<path id="Vector_267" d="M89.6719 56.896H86.0303V60.5377H89.6719V56.896Z" fill="black"/>
<path id="Vector_268" d="M89.6719 71.4629H86.0303V75.1046H89.6719V71.4629Z" fill="black"/>
<path id="Vector_269" d="M89.6719 75.1045H86.0303V78.7462H89.6719V75.1045Z" fill="black"/>
<path id="Vector_270" d="M89.6719 89.6709H86.0303V93.3126H89.6719V89.6709Z" fill="black"/>
<path id="Vector_271" d="M89.6719 93.3125H86.0303V96.9542H89.6719V93.3125Z" fill="black"/>
<path id="Vector_272" d="M89.6719 100.596H86.0303V104.238H89.6719V100.596Z" fill="black"/>
<path id="Vector_273" d="M89.6719 104.238H86.0303V107.879H89.6719V104.238Z" fill="black"/>
<path id="Vector_274" d="M93.3135 35.0459H89.6719V38.6876H93.3135V35.0459Z" fill="black"/>
<path id="Vector_275" d="M93.3135 38.6875H89.6719V42.3292H93.3135V38.6875Z" fill="black"/>
<path id="Vector_276" d="M93.3135 45.9712H89.6719V49.6129H93.3135V45.9712Z" fill="black"/>
<path id="Vector_277" d="M93.3135 56.896H89.6719V60.5377H93.3135V56.896Z" fill="black"/>
<path id="Vector_278" d="M93.3135 60.5376H89.6719V64.1793H93.3135V60.5376Z" fill="black"/>
<path id="Vector_279" d="M93.3135 64.1792H89.6719V67.8209H93.3135V64.1792Z" fill="black"/>
<path id="Vector_280" d="M93.3135 67.8208H89.6719V71.4625H93.3135V67.8208Z" fill="black"/>
<path id="Vector_281" d="M93.3135 71.4629H89.6719V75.1046H93.3135V71.4629Z" fill="black"/>
<path id="Vector_282" d="M93.3135 75.1045H89.6719V78.7462H93.3135V75.1045Z" fill="black"/>
<path id="Vector_283" d="M93.3135 78.7461H89.6719V82.3878H93.3135V78.7461Z" fill="black"/>
<path id="Vector_284" d="M93.3135 82.3877H89.6719V86.0294H93.3135V82.3877Z" fill="black"/>
<path id="Vector_285" d="M93.3135 86.0293H89.6719V89.671H93.3135V86.0293Z" fill="black"/>
<path id="Vector_286" d="M93.3135 89.6709H89.6719V93.3126H93.3135V89.6709Z" fill="black"/>
<path id="Vector_287" d="M96.9551 60.5376H93.3135V64.1793H96.9551V60.5376Z" fill="black"/>
<path id="Vector_288" d="M96.9551 64.1792H93.3135V67.8209H96.9551V64.1792Z" fill="black"/>
<path id="Vector_289" d="M96.9551 71.4629H93.3135V75.1046H96.9551V71.4629Z" fill="black"/>
<path id="Vector_290" d="M96.9551 75.1045H93.3135V78.7462H96.9551V75.1045Z" fill="black"/>
<path id="Vector_291" d="M96.9551 86.0293H93.3135V89.671H96.9551V86.0293Z" fill="black"/>
<path id="Vector_292" d="M96.9551 93.3125H93.3135V96.9542H96.9551V93.3125Z" fill="black"/>
<path id="Vector_293" d="M96.9551 96.9541H93.3135V100.596H96.9551V96.9541Z" fill="black"/>
<path id="Vector_294" d="M96.9551 100.596H93.3135V104.238H96.9551V100.596Z" fill="black"/>
<path id="Vector_295" d="M100.597 42.3291H96.9551V45.9708H100.597V42.3291Z" fill="black"/>
<path id="Vector_296" d="M100.597 45.9712H96.9551V49.6129H100.597V45.9712Z" fill="black"/>
<path id="Vector_297" d="M100.597 49.6128H96.9551V53.2545H100.597V49.6128Z" fill="black"/>
<path id="Vector_298" d="M100.597 53.2544H96.9551V56.8961H100.597V53.2544Z" fill="black"/>
<path id="Vector_299" d="M100.597 64.1792H96.9551V67.8209H100.597V64.1792Z" fill="black"/>
<path id="Vector_300" d="M100.597 71.4629H96.9551V75.1046H100.597V71.4629Z" fill="black"/>
<path id="Vector_301" d="M100.597 75.1045H96.9551V78.7462H100.597V75.1045Z" fill="black"/>
<path id="Vector_302" d="M100.597 78.7461H96.9551V82.3878H100.597V78.7461Z" fill="black"/>
<path id="Vector_303" d="M100.597 82.3877H96.9551V86.0294H100.597V82.3877Z" fill="black"/>
<path id="Vector_304" d="M100.597 86.0293H96.9551V89.671H100.597V86.0293Z" fill="black"/>
<path id="Vector_305" d="M100.597 89.6709H96.9551V93.3126H100.597V89.6709Z" fill="black"/>
<path id="Vector_306" d="M100.597 93.3125H96.9551V96.9542H100.597V93.3125Z" fill="black"/>
<path id="Vector_307" d="M100.597 100.596H96.9551V104.238H100.597V100.596Z" fill="black"/>
<path id="Vector_308" d="M104.238 31.4043H100.597V35.046H104.238V31.4043Z" fill="black"/>
<path id="Vector_309" d="M104.238 42.3291H100.597V45.9708H104.238V42.3291Z" fill="black"/>
<path id="Vector_310" d="M104.238 56.896H100.597V60.5377H104.238V56.896Z" fill="black"/>
<path id="Vector_311" d="M104.238 67.8208H100.597V71.4625H104.238V67.8208Z" fill="black"/>
<path id="Vector_312" d="M104.238 78.7461H100.597V82.3878H104.238V78.7461Z" fill="black"/>
<path id="Vector_313" d="M104.238 82.3877H100.597V86.0294H104.238V82.3877Z" fill="black"/>
<path id="Vector_314" d="M104.238 89.6709H100.597V93.3126H104.238V89.6709Z" fill="black"/>
<path id="Vector_315" d="M104.238 93.3125H100.597V96.9542H104.238V93.3125Z" fill="black"/>
<path id="Vector_316" d="M104.238 96.9541H100.597V100.596H104.238V96.9541Z" fill="black"/>
<path id="Vector_317" d="M104.238 104.238H100.597V107.879H104.238V104.238Z" fill="black"/>
<path id="Vector_318" d="M107.88 38.6875H104.238V42.3292H107.88V38.6875Z" fill="black"/>
<path id="Vector_319" d="M107.88 53.2544H104.238V56.8961H107.88V53.2544Z" fill="black"/>
<path id="Vector_320" d="M107.88 64.1792H104.238V67.8209H107.88V64.1792Z" fill="black"/>
<path id="Vector_321" d="M107.88 71.4629H104.238V75.1046H107.88V71.4629Z" fill="black"/>
<path id="Vector_322" d="M107.88 82.3877H104.238V86.0294H107.88V82.3877Z" fill="black"/>
<path id="Vector_323" d="M107.88 89.6709H104.238V93.3126H107.88V89.6709Z" fill="black"/>
<path id="Vector_324" d="M107.88 96.9541H104.238V100.596H107.88V96.9541Z" fill="black"/>
</g>
<g id="Group_2">
<path id="Vector_325" d="M5.91315 2.271H2.27148V5.91266H5.91315V2.271Z" fill="black"/>
<path id="Vector_326" d="M5.91315 5.9126H2.27148V9.55426H5.91315V5.9126Z" fill="black"/>
<path id="Vector_327" d="M5.91315 9.5542H2.27148V13.1959H5.91315V9.5542Z" fill="black"/>
<path id="Vector_328" d="M5.91315 13.1958H2.27148V16.8375H5.91315V13.1958Z" fill="black"/>
<path id="Vector_329" d="M5.91315 16.8379H2.27148V20.4796H5.91315V16.8379Z" fill="black"/>
<path id="Vector_330" d="M5.91315 20.4795H2.27148V24.1212H5.91315V20.4795Z" fill="black"/>
<path id="Vector_331" d="M5.91315 24.1211H2.27148V27.7628H5.91315V24.1211Z" fill="black"/>
<path id="Vector_332" d="M9.55475 2.271H5.91309V5.91266H9.55475V2.271Z" fill="black"/>
<path id="Vector_333" d="M9.55475 24.1211H5.91309V27.7628H9.55475V24.1211Z" fill="black"/>
<path id="Vector_334" d="M13.1964 2.271H9.55469V5.91266H13.1964V2.271Z" fill="black"/>
<path id="Vector_335" d="M13.1964 24.1211H9.55469V27.7628H13.1964V24.1211Z" fill="black"/>
<path id="Vector_336" d="M16.838 2.271H13.1963V5.91266H16.838V2.271Z" fill="black"/>
<path id="Vector_337" d="M16.838 24.1211H13.1963V27.7628H16.838V24.1211Z" fill="black"/>
<path id="Vector_338" d="M20.4796 2.271H16.8379V5.91266H20.4796V2.271Z" fill="black"/>
<path id="Vector_339" d="M20.4796 24.1211H16.8379V27.7628H20.4796V24.1211Z" fill="black"/>
<path id="Vector_340" d="M24.1212 2.271H20.4795V5.91266H24.1212V2.271Z" fill="black"/>
<path id="Vector_341" d="M24.1212 24.1211H20.4795V27.7628H24.1212V24.1211Z" fill="black"/>
<path id="Vector_342" d="M27.7628 2.271H24.1211V5.91266H27.7628V2.271Z" fill="black"/>
<path id="Vector_343" d="M27.7628 5.9126H24.1211V9.55426H27.7628V5.9126Z" fill="black"/>
<path id="Vector_344" d="M27.7628 9.5542H24.1211V13.1959H27.7628V9.5542Z" fill="black"/>
<path id="Vector_345" d="M27.7628 13.1958H24.1211V16.8375H27.7628V13.1958Z" fill="black"/>
<path id="Vector_346" d="M27.7628 16.8379H24.1211V20.4796H27.7628V16.8379Z" fill="black"/>
<path id="Vector_347" d="M27.7628 20.4795H24.1211V24.1212H27.7628V20.4795Z" fill="black"/>
<path id="Vector_348" d="M27.7628 24.1211H24.1211V27.7628H27.7628V24.1211Z" fill="black"/>
</g>
<g id="Group_3">
<path id="Vector_349" d="M13.1964 9.5542H9.55469V13.1959H13.1964V9.5542Z" fill="black"/>
<path id="Vector_350" d="M13.1964 13.1958H9.55469V16.8375H13.1964V13.1958Z" fill="black"/>
<path id="Vector_351" d="M13.1964 16.8374H9.55469V20.4791H13.1964V16.8374Z" fill="black"/>
<path id="Vector_352" d="M16.838 9.5542H13.1963V13.1959H16.838V9.5542Z" fill="black"/>
<path id="Vector_353" d="M16.838 13.1958H13.1963V16.8375H16.838V13.1958Z" fill="black"/>
<path id="Vector_354" d="M16.838 16.8374H13.1963V20.4791H16.838V16.8374Z" fill="black"/>
<path id="Vector_355" d="M20.4796 9.5542H16.8379V13.1959H20.4796V9.5542Z" fill="black"/>
<path id="Vector_356" d="M20.4796 13.1958H16.8379V16.8375H20.4796V13.1958Z" fill="black"/>
<path id="Vector_357" d="M20.4796 16.8374H16.8379V20.4791H20.4796V16.8374Z" fill="black"/>
</g>
<g id="Group_4">
<path id="Vector_358" d="M86.0294 2.271H82.3877V5.91266H86.0294V2.271Z" fill="black"/>
<path id="Vector_359" d="M86.0294 5.9126H82.3877V9.55426H86.0294V5.9126Z" fill="black"/>
<path id="Vector_360" d="M86.0294 9.5542H82.3877V13.1959H86.0294V9.5542Z" fill="black"/>
<path id="Vector_361" d="M86.0294 13.1958H82.3877V16.8375H86.0294V13.1958Z" fill="black"/>
<path id="Vector_362" d="M86.0294 16.8379H82.3877V20.4796H86.0294V16.8379Z" fill="black"/>
<path id="Vector_363" d="M86.0294 20.4795H82.3877V24.1212H86.0294V20.4795Z" fill="black"/>
<path id="Vector_364" d="M86.0294 24.1211H82.3877V27.7628H86.0294V24.1211Z" fill="black"/>
<path id="Vector_365" d="M89.671 2.271H86.0293V5.91266H89.671V2.271Z" fill="black"/>
<path id="Vector_366" d="M89.671 24.1211H86.0293V27.7628H89.671V24.1211Z" fill="black"/>
<path id="Vector_367" d="M93.3126 2.271H89.6709V5.91266H93.3126V2.271Z" fill="black"/>
<path id="Vector_368" d="M93.3126 24.1211H89.6709V27.7628H93.3126V24.1211Z" fill="black"/>
<path id="Vector_369" d="M96.9542 2.271H93.3125V5.91266H96.9542V2.271Z" fill="black"/>
<path id="Vector_370" d="M96.9542 24.1211H93.3125V27.7628H96.9542V24.1211Z" fill="black"/>
<path id="Vector_371" d="M100.596 2.271H96.9541V5.91266H100.596V2.271Z" fill="black"/>
<path id="Vector_372" d="M100.596 24.1211H96.9541V27.7628H100.596V24.1211Z" fill="black"/>
<path id="Vector_373" d="M104.237 2.271H100.596V5.91266H104.237V2.271Z" fill="black"/>
<path id="Vector_374" d="M104.237 24.1211H100.596V27.7628H104.237V24.1211Z" fill="black"/>
<path id="Vector_375" d="M107.879 2.271H104.237V5.91266H107.879V2.271Z" fill="black"/>
<path id="Vector_376" d="M107.879 5.9126H104.237V9.55426H107.879V5.9126Z" fill="black"/>
<path id="Vector_377" d="M107.879 9.5542H104.237V13.1959H107.879V9.5542Z" fill="black"/>
<path id="Vector_378" d="M107.879 13.1958H104.237V16.8375H107.879V13.1958Z" fill="black"/>
<path id="Vector_379" d="M107.879 16.8379H104.237V20.4796H107.879V16.8379Z" fill="black"/>
<path id="Vector_380" d="M107.879 20.4795H104.237V24.1212H107.879V20.4795Z" fill="black"/>
<path id="Vector_381" d="M107.879 24.1211H104.237V27.7628H107.879V24.1211Z" fill="black"/>
</g>
<g id="Group_5">
<path id="Vector_382" d="M93.3126 9.5542H89.6709V13.1959H93.3126V9.5542Z" fill="black"/>
<path id="Vector_383" d="M93.3126 13.1958H89.6709V16.8375H93.3126V13.1958Z" fill="black"/>
<path id="Vector_384" d="M93.3126 16.8374H89.6709V20.4791H93.3126V16.8374Z" fill="black"/>
<path id="Vector_385" d="M96.9542 9.5542H93.3125V13.1959H96.9542V9.5542Z" fill="black"/>
<path id="Vector_386" d="M96.9542 13.1958H93.3125V16.8375H96.9542V13.1958Z" fill="black"/>
<path id="Vector_387" d="M96.9542 16.8374H93.3125V20.4791H96.9542V16.8374Z" fill="black"/>
<path id="Vector_388" d="M100.596 9.5542H96.9541V13.1959H100.596V9.5542Z" fill="black"/>
<path id="Vector_389" d="M100.596 13.1958H96.9541V16.8375H100.596V13.1958Z" fill="black"/>
<path id="Vector_390" d="M100.596 16.8374H96.9541V20.4791H100.596V16.8374Z" fill="black"/>
</g>
<g id="Group_6">
<path id="Vector_391" d="M5.91315 82.3877H2.27148V86.0294H5.91315V82.3877Z" fill="black"/>
<path id="Vector_392" d="M5.91315 86.0293H2.27148V89.671H5.91315V86.0293Z" fill="black"/>
<path id="Vector_393" d="M5.91315 89.6709H2.27148V93.3126H5.91315V89.6709Z" fill="black"/>
<path id="Vector_394" d="M5.91315 93.3125H2.27148V96.9542H5.91315V93.3125Z" fill="black"/>
<path id="Vector_395" d="M5.91315 96.9546H2.27148V100.596H5.91315V96.9546Z" fill="black"/>
<path id="Vector_396" d="M5.91315 100.596H2.27148V104.238H5.91315V100.596Z" fill="black"/>
<path id="Vector_397" d="M5.91315 104.238H2.27148V107.879H5.91315V104.238Z" fill="black"/>
<path id="Vector_398" d="M9.55475 82.3877H5.91309V86.0294H9.55475V82.3877Z" fill="black"/>
<path id="Vector_399" d="M9.55475 104.238H5.91309V107.879H9.55475V104.238Z" fill="black"/>
<path id="Vector_400" d="M13.1964 82.3877H9.55469V86.0294H13.1964V82.3877Z" fill="black"/>
<path id="Vector_401" d="M13.1964 104.238H9.55469V107.879H13.1964V104.238Z" fill="black"/>
<path id="Vector_402" d="M16.838 82.3877H13.1963V86.0294H16.838V82.3877Z" fill="black"/>
<path id="Vector_403" d="M16.838 104.238H13.1963V107.879H16.838V104.238Z" fill="black"/>
<path id="Vector_404" d="M20.4796 82.3877H16.8379V86.0294H20.4796V82.3877Z" fill="black"/>
<path id="Vector_405" d="M20.4796 104.238H16.8379V107.879H20.4796V104.238Z" fill="black"/>
<path id="Vector_406" d="M24.1212 82.3877H20.4795V86.0294H24.1212V82.3877Z" fill="black"/>
<path id="Vector_407" d="M24.1212 104.238H20.4795V107.879H24.1212V104.238Z" fill="black"/>
<path id="Vector_408" d="M27.7628 82.3877H24.1211V86.0294H27.7628V82.3877Z" fill="black"/>
<path id="Vector_409" d="M27.7628 86.0293H24.1211V89.671H27.7628V86.0293Z" fill="black"/>
<path id="Vector_410" d="M27.7628 89.6709H24.1211V93.3126H27.7628V89.6709Z" fill="black"/>
<path id="Vector_411" d="M27.7628 93.3125H24.1211V96.9542H27.7628V93.3125Z" fill="black"/>
<path id="Vector_412" d="M27.7628 96.9546H24.1211V100.596H27.7628V96.9546Z" fill="black"/>
<path id="Vector_413" d="M27.7628 100.596H24.1211V104.238H27.7628V100.596Z" fill="black"/>
<path id="Vector_414" d="M27.7628 104.238H24.1211V107.879H27.7628V104.238Z" fill="black"/>
</g>
<g id="Group_7">
<path id="Vector_415" d="M13.1964 89.6709H9.55469V93.3126H13.1964V89.6709Z" fill="black"/>
<path id="Vector_416" d="M13.1964 93.3125H9.55469V96.9542H13.1964V93.3125Z" fill="black"/>
<path id="Vector_417" d="M13.1964 96.9541H9.55469V100.596H13.1964V96.9541Z" fill="black"/>
<path id="Vector_418" d="M16.838 89.6709H13.1963V93.3126H16.838V89.6709Z" fill="black"/>
<path id="Vector_419" d="M16.838 93.3125H13.1963V96.9542H16.838V93.3125Z" fill="black"/>
<path id="Vector_420" d="M16.838 96.9541H13.1963V100.596H16.838V96.9541Z" fill="black"/>
<path id="Vector_421" d="M20.4796 89.6709H16.8379V93.3126H20.4796V89.6709Z" fill="black"/>
<path id="Vector_422" d="M20.4796 93.3125H16.8379V96.9542H20.4796V93.3125Z" fill="black"/>
<path id="Vector_423" d="M20.4796 96.9541H16.8379V100.596H20.4796V96.9541Z" fill="black"/>
</g>
</g>
</svg>
