<svg width="498" height="377" viewBox="0 0 498 377" fill="none" xmlns="http://www.w3.org/2000/svg">
<g clip-path="url(#clip0_1754_15466)">
<path d="M352.872 145.999H310.334V173.18H352.872V145.999Z" fill="#37A475"/>
<path d="M286.591 188.5H244.053V215.681H286.591V188.5Z" fill="#37A475"/>
<path d="M477.226 154.894V97.0729H445.075V59.5138H423.312V97.0729H391.161V154.894H373.354V24.9199H337.246V12.5649H289.267V0.209961H241.782V12.5649H196.771V24.9199H157.695V154.4H136.92V96.5787H104.769V59.0196H83.0056V96.5787H50.8546V154.4H30.0801V359.492H77.5646V286.845H110.21V359.492H237.825V274.984H293.224V359.492H370.386V359.987H417.871V287.339H450.516V359.987H498.001V154.894H477.226ZM47.1448 179.604H65.9408V194.43H47.1448V179.604ZM47.3922 221.117H66.1881V235.943H47.3922V221.117ZM66.4354 277.455H47.6395V262.63H66.4354V277.455ZM115.651 143.528H72.1237V134.632H115.651V143.528ZM115.651 130.678H72.1237V121.783H115.651V130.678ZM115.651 117.829H72.1237V108.934H115.651V117.829ZM121.834 179.604H140.63V194.43H121.834V179.604ZM122.081 221.117H140.877V235.943H122.081V221.117ZM141.125 277.455H122.329V262.63H141.125V277.455ZM218.04 252.746H183.416V237.425H218.04V252.746ZM218.04 208.762H183.416V193.442H218.04V208.762ZM218.04 164.778H183.416V149.458H218.04V164.778ZM218.04 120.794H183.416V105.474H218.04V120.794ZM218.04 76.8108H183.416V61.4906H218.04V76.8108ZM282.836 252.746H248.212V237.425H282.836V252.746ZM282.836 208.762H248.212V193.442H282.836V208.762ZM282.836 164.778H248.212V149.458H282.836V164.778ZM282.836 120.794H248.212V105.474H282.836V120.794ZM282.836 76.8108H248.212V61.4906H282.836V76.8108ZM347.633 252.746H313.009V237.425H347.633V252.746ZM347.633 208.762H313.009V193.442H347.633V208.762ZM347.633 164.778H313.009V149.458H347.633V164.778ZM347.633 120.794H313.009V105.474H347.633V120.794ZM347.633 76.8108H313.009V61.4906H347.633V76.8108ZM387.451 180.098H406.247V194.924H387.451V180.098ZM387.698 221.611H406.494V236.437H387.698V221.611ZM406.741 277.95H387.945V263.124H406.741V277.95ZM455.957 144.022H412.43V135.126H455.957V144.022ZM455.957 131.173H412.43V122.277H455.957V131.173ZM455.957 118.323H412.43V109.428H455.957V118.323ZM462.14 180.098H480.936V194.924H462.14V180.098ZM462.387 221.611H481.183V236.437H462.387V221.611ZM481.431 277.95H462.635V263.124H481.431V277.95Z" fill="#F2F2F2"/>
<path d="M59.3558 309.434C59.2174 311.389 59.0008 313.576 58.666 315.874L64.7132 309.173L64.7465 309.285C64.3767 307.673 63.7812 306.12 62.9777 304.674L63.0164 304.78L59.3558 309.434Z" fill="#37A475"/>
<path d="M59.3789 309.091L62.9249 304.583C62.1705 303.207 61.0793 302.045 59.7533 301.206C59.6883 301.167 59.623 301.131 59.5576 301.095C59.577 301.627 59.6699 304.753 59.3789 309.091Z" fill="#37A475"/>
<path d="M56.18 326.768C56.0242 327.242 55.8633 327.707 55.6973 328.164L64.6029 322.947L64.6154 323.078C64.8015 322.267 64.9564 321.456 65.0803 320.645L56.188 326.827L56.18 326.768Z" fill="#37A475"/>
<path d="M57.418 322.389L65.4388 315.78L65.4615 315.904C65.4898 313.718 65.259 311.537 64.7738 309.406L58.6113 316.235C58.2877 318.387 57.8899 320.438 57.418 322.389Z" fill="#37A475"/>
<path d="M58.4738 316.105L48.8764 305.406L48.9278 305.285C48.0256 306.554 47.2541 307.911 46.625 309.335L57.577 320.986C57.9523 319.285 58.2453 317.639 58.4738 316.105Z" fill="#37A475"/>
<path d="M46.5215 309.577L46.5219 309.578C46.5393 309.538 46.5544 309.494 46.572 309.454L46.5215 309.577Z" fill="#37A475"/>
<path d="M45.9892 310.889L45.9395 311.012C45.9553 310.97 45.9733 310.931 45.9892 310.889Z" fill="#37A475"/>
<path d="M57.5145 321.269L46.5224 309.576C46.3366 310.001 46.1586 310.439 45.9883 310.888L57.2228 322.506C57.325 322.091 57.4222 321.679 57.5145 321.269Z" fill="#37A475"/>
<path d="M65.105 320.488C65.3238 319.017 65.4431 317.534 65.462 316.047L57.3327 322.745C57.0106 324.044 56.6562 325.293 56.2695 326.492L65.0877 320.36L65.105 320.488Z" fill="#37A475"/>
<path d="M44.5306 321.322L53.4282 332.92C54.1593 331.508 54.805 330.054 55.3617 328.565L44.5048 317.172C44.3972 318.596 44.3853 320.026 44.4691 321.452L44.5306 321.322Z" fill="#37A475"/>
<path d="M59.3949 301.086L59.4746 301.05C57.526 300.01 55.4164 300.122 53.3945 301.176L59.222 309.085C59.5356 304.391 59.397 301.133 59.3949 301.086Z" fill="#37A475"/>
<path d="M55.4096 328.941C54.8989 330.28 54.3155 331.591 53.6621 332.868L62.6122 328.241L62.6212 328.37C63.2955 327.232 63.8228 326.013 64.1904 324.742C64.3326 324.242 64.4624 323.741 64.5796 323.238L55.5678 328.518C55.5152 328.659 55.4632 328.801 55.4096 328.941Z" fill="#37A475"/>
<path d="M59.1983 309.433L53.2373 301.344L53.2932 301.229C51.587 302.215 50.1208 303.567 49 305.187L58.5192 315.799C58.8486 313.527 59.0619 311.366 59.1983 309.433Z" fill="#37A475"/>
<path d="M55.4588 328.304C56.1224 326.496 56.6881 324.653 57.1534 322.783L45.8909 311.137C45.6228 311.864 45.3765 312.621 45.1521 313.407C44.8408 314.534 44.633 315.686 44.5312 316.851L55.4502 328.309L55.4588 328.304Z" fill="#37A475"/>
<path d="M67.0267 340.869C65.6722 342.287 64.1094 343.833 62.3848 345.389L71.3198 344.082L71.2738 344.19C72.0184 342.712 72.5509 341.137 72.8554 339.511L72.8175 339.617L67.0267 340.869Z" fill="#37A475"/>
<path d="M72.588 334.784C72.5626 334.713 72.5355 334.644 72.5082 334.574C72.1832 334.997 70.2591 337.464 67.2656 340.619L72.875 339.407C73.172 337.866 73.0733 336.276 72.588 334.784Z" fill="#37A475"/>
<path d="M53.5172 352.195C53.0946 352.461 52.6735 352.717 52.2539 352.963L62.4435 354.62L62.3695 354.729C63.0307 354.223 63.6679 353.697 64.2811 353.151L53.4853 352.246L53.5172 352.195Z" fill="#37A475"/>
<path d="M57.2656 349.611L67.6622 349.632L67.6008 349.742C69.0176 348.077 70.2321 346.25 71.2188 344.3L62.1135 345.632C60.4903 347.083 58.8744 348.41 57.2656 349.611Z" fill="#37A475"/>
<path d="M53.7617 352.039L64.4675 352.936L64.3992 353.046C65.5066 352.052 66.5457 350.985 67.5093 349.852L56.9722 349.831C55.8949 350.626 54.8247 351.362 53.7617 352.039Z" fill="#37A475"/>
<path d="M40.6484 357.332C40.7242 357.255 40.8045 357.172 40.8836 357.091C43.0666 356.743 45.1998 356.134 47.237 355.277L47.528 347.568C47.6143 347.372 47.6982 347.174 47.7796 346.975L47.47 355.18C48.9342 354.558 50.3599 353.849 51.7392 353.057L50.745 338.727C50.8217 338.687 50.8989 338.646 50.9784 338.604L51.9713 352.917L51.9811 352.918C53.6468 351.948 55.2591 350.889 56.8108 349.746L55.7282 335.643C55.8049 335.587 55.8813 335.532 55.9582 335.475L57.0407 349.577C57.3841 349.322 57.7222 349.067 58.0549 348.81L57.1618 334.534C57.2383 334.471 57.3147 334.408 57.391 334.345L58.2847 348.632C59.6592 347.561 60.9358 346.48 62.0909 345.444L61.5292 331.088L61.6459 331.027C61.247 331.131 60.8415 331.255 60.4325 331.389C61.2015 330.512 61.8933 329.569 62.5 328.573L53.4643 333.244C52.8389 334.431 52.1354 335.576 51.3585 336.67C51.197 336.822 51.0355 336.974 50.8764 337.133L50.8882 337.305C50.8145 337.402 50.7411 337.5 50.6665 337.595L50.6505 337.364C50.5364 337.481 50.4252 337.604 50.3124 337.724C51.4567 336.297 52.4609 334.763 53.3113 333.144L44.4787 321.63C44.5389 322.659 44.6396 323.695 44.7691 324.723C43.9491 323.391 42.9532 322.175 41.8083 321.108L41.8779 321.197L39.8365 326.754C40.3098 328.656 40.7803 330.803 41.1727 333.092L44.8003 324.965C44.8169 325.091 44.8344 325.218 44.8518 325.344L41.233 333.451C41.591 335.598 41.8474 337.672 42.0021 339.673L46.3455 332.856C46.3703 332.954 46.3951 333.052 46.4199 333.149L42.0297 340.039C42.1252 341.373 42.1745 342.671 42.1775 343.93L47.4869 336.931C47.5152 337.023 47.5429 337.113 47.5704 337.201L42.2049 344.274L42.1788 344.22C42.1772 344.719 42.1682 345.211 42.1517 345.697L48.1406 338.96C48.1724 339.054 48.202 339.14 48.2293 339.219L42.1367 346.073C42.1305 346.223 42.1249 346.375 42.1172 346.524C42.0459 347.956 41.8967 349.383 41.6701 350.798L42.2481 350.213C42.1386 350.44 42.032 350.664 41.9282 350.885L41.5993 351.217C41.5616 351.434 41.5186 351.645 41.4772 351.858C41.3559 352.124 41.2389 352.384 41.1264 352.637C41.235 352.151 41.3363 351.663 41.4228 351.169L29.4609 342.947C32.5817 350.925 38.4584 358.513 38.8347 358.994C39.1401 358.424 39.4176 357.838 39.6723 357.239C39.7464 357.232 39.8204 357.225 39.8943 357.218C39.8638 357.291 39.832 357.363 39.8009 357.436C39.7636 357.44 39.7258 357.446 39.6886 357.45C39.7176 357.458 39.7523 357.468 39.7839 357.476C39.6044 357.894 39.4184 358.306 39.2189 358.703C39.48 358.468 39.8777 358.098 40.3531 357.627C43.1659 358.345 50.7436 359.879 57.2318 357.612L47.2909 355.452C45.1635 356.352 42.9321 356.983 40.6484 357.332ZM47.6338 344.764L47.8722 344.523L47.8586 344.884L47.6202 345.125L47.6338 344.764Z" fill="#37A475"/>
<path d="M72.3878 334.463L72.4719 334.486C71.6351 332.444 69.9391 331.185 67.7086 330.709L67.1484 340.513C70.3864 337.098 72.3596 334.5 72.3878 334.463Z" fill="#37A475"/>
<path d="M51.5364 353.376C50.2878 354.083 49.0016 354.721 47.6836 355.287L57.5303 357.427L57.4551 357.532C58.7011 357.085 59.8853 356.483 60.9795 355.738C61.4082 355.444 61.8281 355.141 62.2393 354.828L51.9283 353.151C51.7976 353.227 51.6668 353.303 51.5364 353.376Z" fill="#37A475"/>
<path d="M62.3208 345.238C64.0248 343.698 65.5686 342.17 66.9072 340.768L67.4803 330.739L67.5969 330.686C65.6533 330.358 63.6611 330.465 61.7637 330.998L62.3208 345.238Z" fill="#37A475"/>
<path d="M41.7307 321.038C40.5877 319.963 39.1905 319.195 37.6696 318.806C37.5959 318.789 37.5225 318.775 37.4492 318.761C37.6324 319.261 38.6879 322.206 39.7532 326.421L41.7307 321.038Z" fill="#37A475"/>
<path d="M41.0622 333.37L28.6248 326.159L28.6363 326.028C28.1709 327.514 27.8569 329.043 27.6992 330.591L41.7192 338.289C41.55 336.556 41.3193 334.9 41.0622 333.37Z" fill="#37A475"/>
<path d="M27.6758 330.853L27.6763 330.854C27.6805 330.81 27.6814 330.764 27.6859 330.721L27.6758 330.853Z" fill="#37A475"/>
<path d="M27.5736 332.266L27.5645 332.398C27.5664 332.353 27.5715 332.311 27.5736 332.266Z" fill="#37A475"/>
<path d="M41.7474 338.578L27.6762 330.853C27.631 331.314 27.5971 331.785 27.5742 332.265L41.8527 339.844C41.8216 339.419 41.7865 338.996 41.7474 338.578Z" fill="#37A475"/>
<path d="M41.9574 346.182L28.1074 338.699C28.4458 340.087 28.8768 341.451 29.3976 342.781L29.4158 342.638L41.4659 350.921C41.7244 349.352 41.8885 347.77 41.9574 346.182Z" fill="#37A475"/>
<path d="M37.2918 318.802L37.3566 318.743C35.1816 318.356 33.2099 319.113 31.6133 320.741L39.6019 326.462C38.4481 321.901 37.3083 318.846 37.2918 318.802Z" fill="#37A475"/>
<path d="M39.6866 326.802L31.5147 320.949L31.5323 320.822C30.2148 322.287 29.2385 324.025 28.6738 325.912L41.0099 333.065C40.6203 330.803 40.1546 328.681 39.6866 326.802Z" fill="#37A475"/>
<path d="M41.9681 345.903C42.0397 343.978 42.0075 342.051 41.8717 340.129L27.5577 332.531C27.5278 333.306 27.5276 334.102 27.5574 334.918C27.6099 336.086 27.7689 337.247 28.0324 338.386L41.9615 345.911L41.9681 345.903Z" fill="#37A475"/>
<path d="M482.76 307.952C482.622 309.907 482.405 312.094 482.07 314.391L488.117 307.691L488.151 307.803C487.781 306.19 487.186 304.638 486.382 303.191L486.421 303.297L482.76 307.952Z" fill="#37A475"/>
<path d="M482.783 307.609L486.329 303.1C485.575 301.725 484.484 300.563 483.158 299.723C483.093 299.685 483.027 299.648 482.962 299.612C482.981 300.145 483.074 303.271 482.783 307.609Z" fill="#37A475"/>
<path d="M479.584 325.285C479.428 325.76 479.268 326.225 479.102 326.682L488.007 321.465L488.02 321.596C488.206 320.784 488.361 319.973 488.485 319.162L479.592 325.345L479.584 325.285Z" fill="#37A475"/>
<path d="M480.822 320.906L488.843 314.297L488.866 314.421C488.894 312.236 488.663 310.055 488.178 307.924L482.016 314.752C481.692 316.904 481.294 318.956 480.822 320.906Z" fill="#37A475"/>
<path d="M481.878 314.623L472.281 303.924L472.332 303.803C471.43 305.072 470.658 306.429 470.029 307.853L480.981 319.503C481.357 317.803 481.65 316.157 481.878 314.623Z" fill="#37A475"/>
<path d="M469.926 308.095L469.926 308.095C469.944 308.055 469.959 308.011 469.976 307.972L469.926 308.095Z" fill="#37A475"/>
<path d="M480.919 319.787L469.927 308.094C469.741 308.519 469.563 308.956 469.393 309.406L480.627 321.023C480.729 320.609 480.827 320.197 480.919 319.787Z" fill="#37A475"/>
<path d="M469.392 309.405L469.342 309.529C469.358 309.486 469.376 309.447 469.392 309.405Z" fill="#37A475"/>
<path d="M488.507 319.006C488.726 317.535 488.845 316.051 488.864 314.564L480.735 321.263C480.413 322.562 480.059 323.811 479.672 325.009L488.49 318.878L488.507 319.006Z" fill="#37A475"/>
<path d="M467.935 319.839L476.833 331.438C477.564 330.026 478.209 328.572 478.766 327.083L467.909 315.689C467.802 317.114 467.79 318.544 467.873 319.97L467.935 319.839Z" fill="#37A475"/>
<path d="M482.799 299.602L482.879 299.567C480.93 298.527 478.821 298.638 476.799 299.693L482.626 307.601C482.94 302.907 482.801 299.649 482.799 299.602Z" fill="#37A475"/>
<path d="M478.812 327.458C478.301 328.798 477.718 330.109 477.064 331.385L486.014 326.759L486.023 326.887C486.698 325.749 487.225 324.53 487.593 323.26C487.735 322.76 487.865 322.259 487.982 321.756L478.97 327.035C478.918 327.176 478.866 327.319 478.812 327.458Z" fill="#37A475"/>
<path d="M482.603 307.951L476.642 299.861L476.697 299.746C474.991 300.732 473.525 302.084 472.404 303.704L481.923 314.316C482.253 312.044 482.466 309.883 482.603 307.951Z" fill="#37A475"/>
<path d="M478.863 326.822C479.527 325.013 480.092 323.17 480.558 321.301L469.295 309.654C469.027 310.382 468.781 311.138 468.556 311.924C468.245 313.051 468.037 314.204 467.936 315.368L478.854 326.827L478.863 326.822Z" fill="#37A475"/>
<path d="M490.431 339.386C489.077 340.803 487.514 342.35 485.789 343.906L494.724 342.599L494.678 342.706C495.423 341.229 495.955 339.653 496.26 338.027L496.222 338.134L490.431 339.386Z" fill="#37A475"/>
<path d="M495.99 333.302C495.965 333.231 495.938 333.161 495.911 333.092C495.586 333.514 493.661 335.981 490.668 339.137L496.277 337.924C496.574 336.384 496.476 334.794 495.99 333.302Z" fill="#37A475"/>
<path d="M476.921 350.713C476.499 350.979 476.078 351.235 475.658 351.481L485.848 353.138L485.774 353.247C486.435 352.74 487.072 352.214 487.685 351.669L476.89 350.764L476.921 350.713Z" fill="#37A475"/>
<path d="M480.67 348.129L491.067 348.15L491.005 348.26C492.422 346.595 493.636 344.768 494.623 342.817L485.518 344.149C483.895 345.601 482.279 346.927 480.67 348.129Z" fill="#37A475"/>
<path d="M477.164 350.557L487.87 351.454L487.802 351.563C488.909 350.57 489.948 349.503 490.912 348.37L480.375 348.349C479.297 349.144 478.227 349.88 477.164 350.557Z" fill="#37A475"/>
<path d="M464.053 355.85C464.128 355.773 464.209 355.69 464.288 355.608C466.471 355.261 468.604 354.652 470.641 353.795L470.932 346.086C471.019 345.89 471.102 345.692 471.184 345.493L470.874 353.697C472.338 353.076 473.764 352.367 475.143 351.575L474.149 337.244C474.226 337.204 474.303 337.164 474.383 337.122L475.376 351.434L475.385 351.436C477.051 350.466 478.663 349.407 480.215 348.263L479.132 334.161C479.209 334.105 479.286 334.05 479.362 333.993L480.445 348.094C480.788 347.84 481.126 347.584 481.459 347.327L480.566 333.051C480.643 332.989 480.719 332.926 480.795 332.862L481.689 347.149C483.063 346.079 484.34 344.997 485.495 343.962L484.933 329.605L485.05 329.545C484.651 329.649 484.246 329.772 483.837 329.907C484.606 329.029 485.298 328.087 485.904 327.091L476.869 331.761C476.243 332.949 475.54 334.093 474.763 335.188C474.601 335.34 474.44 335.492 474.281 335.651L474.292 335.822C474.219 335.919 474.145 336.017 474.071 336.112L474.055 335.881C473.941 335.998 473.829 336.122 473.717 336.242C474.861 334.815 475.865 333.281 476.716 331.661L467.883 320.148C467.943 321.177 468.044 322.213 468.173 323.24C467.353 321.908 466.357 320.692 465.213 319.626L465.282 319.715L463.241 325.272C463.714 327.174 464.185 329.321 464.577 331.609L468.205 323.482C468.221 323.609 468.239 323.735 468.256 323.862L464.637 331.969C464.995 334.115 465.252 336.189 465.406 338.19L469.75 331.374C469.775 331.472 469.799 331.57 469.824 331.666L465.434 338.556C465.529 339.891 465.579 341.188 465.582 342.447L470.891 335.449C470.92 335.541 470.947 335.63 470.975 335.719L465.609 342.791L465.583 342.737C465.582 343.236 465.573 343.728 465.556 344.214L471.545 337.477C471.577 337.571 471.606 337.658 471.634 337.737L465.541 344.59C465.535 344.741 465.529 344.892 465.522 345.041C465.45 346.473 465.301 347.9 465.074 349.316L465.652 348.731C465.543 348.958 465.436 349.182 465.333 349.402L465.004 349.735C464.966 349.951 464.923 350.163 464.882 350.375C464.76 350.642 464.643 350.901 464.531 351.155C464.639 350.669 464.741 350.18 464.827 349.687L452.865 341.465C455.986 349.442 461.863 357.03 462.239 357.512C462.544 356.942 462.822 356.356 463.077 355.757C463.151 355.75 463.225 355.743 463.299 355.735C463.268 355.809 463.236 355.881 463.205 355.954C463.168 355.958 463.13 355.964 463.093 355.968C463.122 355.976 463.157 355.985 463.188 355.994C463.009 356.412 462.823 356.823 462.623 357.22C462.884 356.986 463.282 356.615 463.757 356.145C466.57 356.862 474.148 358.396 480.636 356.13L470.695 353.969C468.568 354.869 466.336 355.501 464.053 355.85ZM471.038 343.282L471.276 343.041L471.263 343.402L471.024 343.643L471.038 343.282Z" fill="#37A475"/>
<path d="M495.792 332.981L495.876 333.004C495.039 330.961 493.343 329.703 491.113 329.227L490.553 339.031C493.791 335.616 495.764 333.018 495.792 332.981Z" fill="#37A475"/>
<path d="M474.939 351.894C473.69 352.6 472.404 353.238 471.086 353.805L480.933 355.945L480.857 356.05C482.103 355.603 483.288 355 484.382 354.256C484.81 353.962 485.23 353.658 485.642 353.346L475.331 351.669C475.2 351.744 475.069 351.821 474.939 351.894Z" fill="#37A475"/>
<path d="M485.725 343.754C487.429 342.215 488.973 340.686 490.311 339.285L490.885 329.255L491.001 329.202C489.058 328.875 487.065 328.981 485.168 329.515L485.725 343.754Z" fill="#37A475"/>
<path d="M465.135 319.556C463.992 318.48 462.595 317.713 461.074 317.324C461 317.307 460.927 317.292 460.854 317.278C461.037 317.779 462.092 320.723 463.157 324.939L465.135 319.556Z" fill="#37A475"/>
<path d="M464.466 331.888L452.029 324.677L452.041 324.546C451.575 326.031 451.261 327.56 451.104 329.109L465.123 336.806C464.954 335.073 464.724 333.417 464.466 331.888Z" fill="#37A475"/>
<path d="M450.978 330.783L450.969 330.916C450.971 330.871 450.976 330.828 450.978 330.783Z" fill="#37A475"/>
<path d="M451.078 329.371L451.079 329.371C451.083 329.328 451.084 329.282 451.088 329.238L451.078 329.371Z" fill="#37A475"/>
<path d="M465.15 337.096L451.079 329.37C451.033 329.832 450.999 330.303 450.977 330.783L465.255 338.362C465.224 337.936 465.189 337.514 465.15 337.096Z" fill="#37A475"/>
<path d="M465.36 344.699L451.51 337.217C451.848 338.605 452.279 339.968 452.8 341.298L452.818 341.156L464.868 349.438C465.127 347.87 465.291 346.287 465.36 344.699Z" fill="#37A475"/>
<path d="M460.696 317.319L460.761 317.261C458.586 316.873 456.614 317.631 455.018 319.258L463.006 324.98C461.852 320.419 460.713 317.363 460.696 317.319Z" fill="#37A475"/>
<path d="M463.091 325.319L454.919 319.467L454.937 319.34C453.619 320.805 452.643 322.543 452.078 324.43L464.414 331.582C464.025 329.32 463.559 327.199 463.091 325.319Z" fill="#37A475"/>
<path d="M465.372 344.421C465.444 342.496 465.412 340.568 465.276 338.647L450.962 331.049C450.932 331.823 450.932 332.619 450.962 333.436C451.014 334.604 451.173 335.764 451.437 336.903L465.366 344.428L465.372 344.421Z" fill="#37A475"/>
<path d="M30.0801 359.492H498.001V366.181C498.001 368.995 496.882 371.693 494.891 373.682C492.9 375.672 490.2 376.789 487.384 376.789H40.6971C37.8813 376.789 35.1808 375.672 33.1897 373.682C31.1987 371.693 30.0801 368.995 30.0801 366.181V359.492Z" fill="#2F2E41"/>
<path d="M498.001 354.057H30.0801V363.446H498.001V354.057Z" fill="#3F3D56"/>
<path d="M392.714 32.8145L398.088 36.2194L394.825 30.2922C395.75 29.5554 396.893 29.1476 398.075 29.1333C398.104 29.1333 398.133 29.1335 398.162 29.134C398.535 29.14 398.908 29.1125 399.277 29.0517L401.098 30.2055L400.317 28.7873C401.608 28.3377 402.723 27.4921 403.503 26.3714L406.763 28.4367L404.704 24.6959C406.61 22.4097 409.179 21.0078 412.007 21.0078C415.397 21.0078 418.416 23.022 420.366 26.1603C420.942 27.0993 421.756 27.8692 422.727 28.392C423.697 28.9147 424.789 29.1716 425.89 29.1367C425.951 29.1344 426.012 29.1333 426.073 29.1333C429.815 29.1333 432.848 33.3725 432.848 38.6018C432.848 43.8311 429.815 48.0704 426.073 48.0704C425.25 48.0673 424.44 47.8647 423.713 47.48C422.439 46.8614 421.046 46.5268 419.63 46.4991C418.214 46.4714 416.808 46.7515 415.511 47.3198C414.416 47.8118 413.228 48.0676 412.027 48.0703C410.826 48.0731 409.637 47.8229 408.539 47.3359C407.252 46.7784 405.86 46.5039 404.458 46.531C403.055 46.5581 401.675 46.8861 400.41 47.4929C399.69 47.8694 398.889 48.0674 398.075 48.0704C394.333 48.0704 391.3 43.8311 391.3 38.6018C391.278 36.5847 391.764 34.5945 392.714 32.8145Z" fill="#F2F2F2"/>
<path d="M119.303 60.6228L122.721 62.7888L120.646 59.0183C121.234 58.5497 121.961 58.2902 122.713 58.2811C122.731 58.2811 122.75 58.2813 122.768 58.2816C123.006 58.2854 123.243 58.2679 123.477 58.2292L124.636 58.9632L124.139 58.061C124.96 57.775 125.669 57.2372 126.166 56.5242L128.24 57.8381L126.93 55.4584C127.481 54.7475 128.184 54.1681 128.988 53.7624C129.791 53.3566 130.675 53.1345 131.575 53.1123C133.732 53.1123 135.652 54.3936 136.892 56.3899C137.259 56.9872 137.777 57.477 138.394 57.8095C139.012 58.142 139.706 58.3055 140.407 58.2832C140.445 58.2818 140.484 58.2811 140.523 58.2811C142.903 58.2811 144.833 60.9778 144.833 64.3043C144.833 67.6308 142.903 70.3274 140.523 70.3274C139.999 70.3254 139.484 70.1966 139.022 69.9518C138.211 69.5584 137.325 69.3455 136.424 69.3279C135.523 69.3103 134.63 69.4884 133.805 69.8499C133.107 70.1629 132.352 70.3256 131.588 70.3274C130.824 70.3291 130.068 70.17 129.369 69.8602C128.551 69.5056 127.665 69.3309 126.773 69.3482C125.881 69.3654 125.003 69.5741 124.198 69.9601C123.74 70.1996 123.23 70.3255 122.713 70.3274C120.333 70.3274 118.403 67.6307 118.403 64.3043C118.389 63.0211 118.698 61.7551 119.303 60.6228Z" fill="#F2F2F2"/>
<path d="M27.3028 72.2341L30.7214 74.4001L28.6458 70.6296C29.2336 70.161 29.9611 69.9016 30.713 69.8924C30.7314 69.8924 30.7497 69.8926 30.768 69.8929C31.0056 69.8968 31.243 69.8792 31.4773 69.8405L32.6358 70.5745L32.1392 69.6724C32.96 69.3864 33.6694 68.8485 34.166 68.1356L36.2395 69.4494L34.9295 67.0697C35.4812 66.3588 36.1843 65.7795 36.9878 65.3737C37.7913 64.9679 38.6752 64.7459 39.5752 64.7236C41.7315 64.7236 43.6523 66.0049 44.8923 68.0012C45.2589 68.5985 45.7771 69.0883 46.3944 69.4209C47.0116 69.7534 47.706 69.9168 48.4069 69.8946C48.4454 69.8932 48.4841 69.8924 48.5228 69.8924C50.9033 69.8924 52.8331 72.5891 52.8331 75.9156C52.8331 79.2421 50.9033 81.9387 48.5228 81.9387C47.9994 81.9368 47.4842 81.8079 47.0215 81.5632C46.2112 81.1697 45.325 80.9568 44.4243 80.9392C43.5235 80.9216 42.6296 81.0997 41.8046 81.4613C41.1075 81.7743 40.3522 81.9369 39.588 81.9387C38.8238 81.9405 38.0678 81.7813 37.3692 81.4715C36.5506 81.1169 35.6651 80.9423 34.773 80.9595C33.8808 80.9767 33.0028 81.1854 32.1985 81.5714C31.7399 81.8109 31.2304 81.9369 30.713 81.9387C28.3325 81.9387 26.4028 79.2421 26.4028 75.9156C26.3889 74.6324 26.6984 73.3664 27.3028 72.2341Z" fill="#F2F2F2"/>
<path d="M150.724 295.18L150.127 295.776C150.127 295.776 150.326 302.338 150.525 303.73C150.724 305.122 151.52 307.508 150.923 309.298C150.326 311.088 150.127 312.48 150.326 312.679C150.525 312.877 150.127 313.673 150.127 313.673L151.719 312.679L154.306 306.713L153.112 300.35L150.724 295.18Z" fill="#37A475"/>
<path opacity="0.1" d="M150.724 295.18L150.127 295.776C150.127 295.776 150.326 302.338 150.525 303.73C150.724 305.122 151.52 307.508 150.923 309.298C150.326 311.088 150.127 312.48 150.326 312.679C150.525 312.877 150.127 313.673 150.127 313.673L151.719 312.679L154.306 306.713L153.112 300.35L150.724 295.18Z" fill="black"/>
<path d="M161.273 357.022C161.273 357.022 161.273 354.835 160.875 354.437C160.477 354.039 159.88 352.647 159.084 352.647C158.287 352.647 155.501 353.443 155.501 353.642C155.524 354.262 155.387 354.879 155.103 355.431C154.705 356.028 152.516 358.414 154.705 358.812C155.433 358.931 156.177 358.905 156.895 358.734C157.612 358.564 158.289 358.252 158.885 357.818C159.084 357.619 159.88 357.42 160.079 357.619C160.278 357.818 161.273 357.022 161.273 357.022Z" fill="#37A475"/>
<path d="M166.846 353.443L168.04 355.63C168.04 355.63 168.438 357.619 169.035 357.818H169.632C169.632 357.818 170.229 360.005 171.622 359.806C173.015 359.607 174.608 358.812 174.608 358.414C174.608 358.017 174.608 356.823 174.011 356.426C173.173 355.743 172.376 355.012 171.622 354.238L170.627 353.244L166.846 353.443Z" fill="#37A475"/>
<path d="M151.57 280.602C151.187 280.797 150.857 281.081 150.606 281.431C150.356 281.78 150.194 282.185 150.133 282.61C150.022 284.03 151.426 285.368 150.975 286.718C150.718 287.485 149.919 287.982 149.689 288.757C149.568 289.375 149.659 290.016 149.947 290.576C150.261 291.345 150.644 292.084 151.09 292.784C151.929 294.1 153.021 295.349 153.245 296.893C153.307 297.163 153.304 297.444 153.237 297.712C153.169 297.981 153.039 298.23 152.857 298.439C153.26 298.134 153.723 297.914 154.215 297.794C156.249 297.114 158.138 296.063 159.787 294.693C160.386 294.272 160.837 293.673 161.076 292.981C161.38 291.759 160.452 290.537 160.541 289.281C160.598 288.478 161.062 287.769 161.324 287.007C161.553 286.25 161.625 285.453 161.538 284.667C161.451 283.88 161.205 283.119 160.817 282.43C160.494 281.763 160.04 281.168 159.481 280.682C158.921 280.196 158.269 279.829 157.563 279.603C156.478 279.35 155.345 279.383 154.276 279.697C153.341 279.891 152.433 280.195 151.57 280.602Z" fill="#2F2E41"/>
<path d="M152.691 291.629C153.13 290.815 153.779 290.134 154.57 289.657C155.362 289.18 156.268 288.924 157.193 288.916C160.377 288.916 159.78 288.717 159.78 288.717L158.785 292.694L156.794 294.682L152.691 291.629Z" fill="#37A475"/>
<path d="M153.51 287.424C153.51 287.424 155.301 290.407 154.107 291.6C152.913 292.793 153.51 293.986 153.709 294.185C153.908 294.384 159.481 294.782 159.481 294.782L159.68 291.998L160.277 289.612C160.277 289.612 157.092 289.015 157.49 287.623C157.888 286.231 153.51 287.424 153.51 287.424Z" fill="#FBBEBE"/>
<path opacity="0.1" d="M153.51 287.424C153.51 287.424 155.301 290.407 154.107 291.6C152.913 292.793 153.51 293.986 153.709 294.185C153.908 294.384 159.481 294.782 159.481 294.782L159.68 291.998L160.277 289.612C160.277 289.612 157.092 289.015 157.49 287.623C157.888 286.231 153.51 287.424 153.51 287.424Z" fill="black"/>
<path d="M167.442 315.661C167.229 316.343 166.963 317.008 166.646 317.649C166.447 317.848 165.85 316.257 165.85 316.257L166.447 314.865L167.442 315.661Z" fill="#FBBEBE"/>
<path d="M165.153 306.613L165.949 311.187H154.008L154.605 306.613H165.153Z" fill="#FBBEBE"/>
<path d="M155.699 289.015C157.788 289.015 159.481 287.324 159.481 285.237C159.481 283.151 157.788 281.459 155.699 281.459C153.611 281.459 151.918 283.151 151.918 285.237C151.918 287.324 153.611 289.015 155.699 289.015Z" fill="#FBBEBE"/>
<path d="M156.496 292.992C156.496 292.992 154.306 293.191 154.306 292.793C154.306 292.396 154.107 291.202 153.709 291.401C153.311 291.6 150.724 291.799 150.923 292.396C151.122 292.992 151.52 294.185 151.122 294.185C150.95 294.22 150.787 294.29 150.643 294.39C150.498 294.49 150.376 294.619 150.283 294.767C150.19 294.916 150.128 295.082 150.101 295.256C150.074 295.429 150.083 295.606 150.127 295.776C150.326 296.77 152.515 302.736 152.515 302.736C152.515 302.736 152.714 304.724 153.311 305.321C153.554 305.634 153.686 306.019 153.686 306.415C153.686 306.811 153.554 307.195 153.311 307.508C152.913 307.906 154.306 308.304 154.903 309.099C155.501 309.895 160.078 309.298 160.277 309.099C160.476 308.9 165.253 308.9 165.651 308.503C166.049 308.105 165.452 306.912 165.452 306.912C165.452 306.912 165.253 305.122 165.452 304.526C165.651 303.929 164.656 294.185 164.059 293.589C163.462 292.992 165.85 291.203 165.85 291.203C165.85 291.203 165.452 289.612 162.864 289.413C162.864 289.413 162.068 288.22 161.272 288.22C160.476 288.22 158.748 289.145 158.748 289.145C158.748 289.145 158.287 291.799 157.69 291.998C157.218 292.229 156.808 292.57 156.496 292.992Z" fill="#37A475"/>
<path d="M164.457 290.605L165.85 291.202C165.85 291.202 169.831 303.531 169.433 305.917C169.035 308.303 168.04 316.456 167.443 316.456C166.846 316.456 165.651 315.263 165.651 315.263V313.274C165.651 312.877 165.054 311.684 165.452 311.684C165.85 311.684 166.447 311.286 166.049 310.888C165.651 310.491 165.253 309.894 165.651 309.297C166.049 308.701 166.248 308.502 166.049 307.905C165.85 307.309 165.452 306.712 165.85 306.315C166.248 305.917 164.855 303.928 164.855 303.928L162.666 295.179L163.064 291.6L164.457 290.605Z" fill="#37A475"/>
<path d="M165.253 309.497C165.253 309.497 157.69 308.9 156.695 308.9C155.699 308.9 153.467 307.964 153.467 307.964C153.467 307.964 147.738 313.673 149.729 323.019C151.719 332.365 152.117 343.898 153.311 347.278C154.123 349.689 154.787 352.146 155.301 354.636C155.301 354.636 157.292 351.057 161.073 355.034C161.073 355.034 161.471 352.051 160.874 350.858C160.277 349.665 159.481 343.301 159.481 343.301C159.481 343.301 158.088 333.16 158.088 331.967C158.088 330.774 157.292 320.632 157.491 320.434C157.69 320.235 158.685 328.189 158.884 329.581C159.083 330.973 159.68 341.711 160.277 342.904C160.874 344.097 163.66 353.642 165.253 354.238C166.845 354.835 172.218 354.039 172.019 353.642C171.82 353.244 170.427 351.057 170.029 350.46L168.437 348.074L164.656 335.149L166.447 319.439C166.447 319.439 167.442 309.298 165.253 309.497Z" fill="#2F2E41"/>
<path d="M158.003 284.74H153.154C152.948 284.74 152.749 284.667 152.592 284.533C152.436 284.4 152.332 284.215 152.3 284.012L151.818 280.962H159.381L158.705 284.171C158.671 284.332 158.583 284.476 158.455 284.58C158.327 284.684 158.168 284.74 158.003 284.74Z" fill="#2F2E41"/>
<path d="M407.93 283.798H415.581V294.719C414.576 294.719 413.581 294.521 412.653 294.137C411.725 293.753 410.881 293.19 410.171 292.48C409.46 291.77 408.897 290.927 408.512 290C408.128 289.072 407.93 288.078 407.93 287.074V283.798Z" fill="#2F2E41"/>
<path d="M403.467 347.776L402.92 350.507H406.745L406.927 347.776H403.467Z" fill="#A0616A"/>
<path d="M403.466 349.961C403.466 349.961 402.737 349.415 402.373 349.779C402.009 350.143 400.733 357.241 400.551 357.423C400.369 357.605 394.904 360.336 396.179 360.518C397.454 360.7 402.373 360.882 403.102 360.518C403.83 360.154 405.834 356.695 405.834 356.695V359.79H406.199C406.199 359.79 406.563 356.513 407.474 355.603C408.385 354.693 406.745 351.599 406.745 351.599C406.745 351.599 407.109 349.597 406.927 349.597C406.745 349.597 403.466 349.961 403.466 349.961Z" fill="#37A475"/>
<path d="M414.761 345.865L414.215 348.596H418.041L418.223 345.865H414.761Z" fill="#A0616A"/>
<path d="M410.389 328.119C410.389 328.119 412.21 333.579 412.575 334.125C412.939 334.671 414.214 344.864 414.214 344.864C414.214 344.864 412.939 346.866 414.579 347.048C416.218 347.23 415.49 346.684 416.583 347.048C416.88 347.16 417.199 347.202 417.515 347.171C417.831 347.139 418.135 347.035 418.404 346.866C418.404 346.866 418.951 345.774 418.586 345.41C418.222 345.046 418.951 335.581 418.951 335.581L417.858 332.305L416.947 321.93C416.947 321.93 418.04 319.2 417.493 318.472C416.947 317.744 415.125 319.018 415.125 319.018L410.389 328.119Z" fill="#2F2E41"/>
<path d="M408.02 313.922C408.02 313.922 407.473 319.746 407.109 320.11C406.744 320.474 402.737 330.667 402.737 330.667C402.737 330.667 401.644 331.941 402.008 336.674C402.372 341.406 403.283 346.138 403.283 346.138C403.283 346.138 402.554 348.869 403.83 348.869C405.105 348.869 405.651 348.141 406.198 348.687C406.744 349.233 407.109 348.687 407.291 348.323C407.473 347.959 408.202 346.685 408.202 346.32C408.202 345.956 408.931 336.674 408.931 336.674C408.931 336.674 414.942 323.387 415.489 322.659C416.035 321.931 419.132 317.926 418.95 315.196L408.02 313.922Z" fill="#2F2E41"/>
<path d="M412.576 289.35C414.688 289.35 416.401 287.638 416.401 285.527C416.401 283.416 414.688 281.705 412.576 281.705C410.463 281.705 408.75 283.416 408.75 285.527C408.75 287.638 410.463 289.35 412.576 289.35Z" fill="#A0616A"/>
<path d="M411.846 288.803C411.846 288.803 413.303 292.08 413.485 292.99C413.667 293.9 417.129 291.17 417.129 291.17C417.129 291.17 415.307 288.075 415.854 286.619L411.846 288.803Z" fill="#A0616A"/>
<path d="M417.675 290.624C417.675 290.624 414.942 288.622 412.939 292.808C410.935 296.995 410.388 296.813 410.388 296.813C410.388 296.813 408.02 297.541 408.749 302.637C409.477 307.733 406.38 314.468 407.655 314.832C408.931 315.196 420.772 317.198 420.772 315.742C420.772 314.286 419.679 308.643 420.59 305.185C421.501 301.727 419.315 289.714 417.675 290.624Z" fill="#3F3D56"/>
<path d="M414.942 291.534C414.942 291.534 412.756 294.81 412.938 297.359C413.121 299.907 413.121 301.545 413.121 301.545C413.121 301.545 409.477 319.018 410.206 319.018C410.934 319.018 413.12 319.928 413.303 319.382C413.485 318.836 418.039 307.733 418.039 307.733C418.039 307.733 419.132 296.631 417.857 294.082C416.582 291.534 414.942 291.534 414.942 291.534Z" fill="#3F3D56"/>
<path d="M410.572 318.472C410.572 318.472 408.75 324.66 411.3 324.842C413.851 325.024 412.393 318.836 412.393 318.836L410.572 318.472Z" fill="#A0616A"/>
<path d="M415.419 347.177C415.419 347.177 414.781 346.699 414.462 347.018C414.143 347.337 413.026 353.553 412.867 353.712C412.707 353.872 407.921 356.263 409.038 356.422C410.155 356.581 414.462 356.741 415.1 356.422C415.738 356.103 417.493 353.075 417.493 353.075V355.784H417.812C417.812 355.784 418.131 352.915 418.929 352.118C419.727 351.321 418.291 348.612 418.291 348.612C418.291 348.612 418.61 346.858 418.45 346.858C418.291 346.858 415.419 347.177 415.419 347.177Z" fill="#37A475"/>
<path d="M410.684 283.023C410.806 282.875 410.965 282.762 411.145 282.697C411.314 282.666 411.487 282.681 411.648 282.74C412.79 283.073 413.781 283.793 414.45 284.776C414.58 285.026 414.775 285.237 415.015 285.386C415.171 285.433 415.323 285.491 415.471 285.56C415.897 285.842 415.643 286.493 415.398 286.941C414.771 288.092 414.482 289.396 414.563 290.704C414.558 290.932 414.625 291.155 414.755 291.342C414.961 291.533 415.231 291.64 415.512 291.644C416.396 291.755 417.287 291.803 418.178 291.787C419.05 291.771 420.017 291.647 420.582 290.984C421.189 290.27 421.094 289.177 420.699 288.328C420.304 287.478 419.661 286.768 419.205 285.95C418.772 285.085 418.431 284.178 418.186 283.243C417.87 282.049 417.361 280.916 416.68 279.886C416.336 279.373 415.889 278.936 415.369 278.603C414.849 278.27 414.265 278.047 413.655 277.949C412 277.764 410.474 278.782 409.144 279.783C407.65 280.907 406.061 282.297 405.941 284.162C405.844 285.672 406.751 287.038 407.226 288.476C407.958 290.695 407.651 293.105 407.337 295.421C408.685 294.613 410.211 293.492 410.123 291.924C410.063 290.866 409.264 290.021 408.767 289.085C407.399 286.511 408.959 284.785 410.684 283.023Z" fill="#2F2E41"/>
<path d="M464.483 301.626C465.641 299.607 466.239 297.316 466.216 294.99C466.216 288.992 462.499 284.13 457.913 284.13C453.327 284.13 449.61 288.992 449.61 294.99C449.587 297.316 450.185 299.607 451.343 301.626C450.207 303.654 449.61 305.939 449.61 308.263C449.61 310.587 450.207 312.872 451.343 314.899C450.207 316.927 449.61 319.212 449.61 321.536C449.61 323.86 450.207 326.145 451.343 328.172C450.207 330.2 449.61 332.485 449.61 334.809C449.61 337.133 450.207 339.418 451.343 341.445C450.185 343.464 449.587 345.755 449.61 348.082C449.61 354.08 453.327 358.942 457.913 358.942C462.499 358.942 466.216 354.08 466.216 348.082C466.239 345.755 465.641 343.464 464.483 341.445C465.619 339.418 466.216 337.133 466.216 334.809C466.216 332.485 465.619 330.2 464.483 328.172C465.619 326.145 466.216 323.86 466.216 321.536C466.216 319.212 465.619 316.927 464.483 314.899C465.619 312.872 466.216 310.587 466.216 308.263C466.216 305.939 465.619 303.654 464.483 301.626Z" fill="#3F3D56"/>
<path d="M457.912 292.576C462.498 292.576 466.215 287.714 466.215 281.716C466.215 275.719 462.498 270.856 457.912 270.856C453.327 270.856 449.609 275.719 449.609 281.716C449.609 287.714 453.327 292.576 457.912 292.576Z" fill="#3F3D56"/>
<path d="M457.912 279.303C462.498 279.303 466.215 274.441 466.215 268.443C466.215 262.445 462.498 257.583 457.912 257.583C453.327 257.583 449.609 262.445 449.609 268.443C449.609 274.441 453.327 279.303 457.912 279.303Z" fill="#3F3D56"/>
<path d="M488.994 177.611C490.128 176.169 491.161 174.649 492.086 173.064L470.269 169.484L493.865 169.659C496.128 164.739 497.363 159.409 497.494 153.995C497.624 148.581 496.648 143.198 494.624 138.174L462.968 154.581L492.162 133.14C489.427 128.418 485.748 124.309 481.355 121.069C476.961 117.829 471.946 115.528 466.624 114.309C461.301 113.09 455.784 112.979 450.417 113.984C445.049 114.988 439.946 117.085 435.426 120.146C430.905 123.206 427.064 127.164 424.141 131.773C421.218 136.381 419.276 141.542 418.436 146.933C417.596 152.324 417.877 157.83 419.259 163.108C420.642 168.386 423.098 173.323 426.474 177.611C424.706 179.857 423.185 182.287 421.938 184.858L450.258 199.558L420.061 189.432C417.941 195.695 417.417 202.386 418.537 208.902C419.657 215.417 422.385 221.551 426.474 226.748C421.86 232.609 418.989 239.649 418.191 247.064C417.393 254.478 418.699 261.967 421.96 268.675C425.22 275.383 430.305 281.039 436.631 284.995C442.957 288.952 450.27 291.051 457.734 291.051C465.198 291.051 472.511 288.952 478.837 284.995C485.163 281.039 490.248 275.383 493.509 268.675C496.769 261.967 498.075 254.478 497.277 247.064C496.479 239.649 493.608 232.609 488.994 226.748C494.508 219.743 497.505 211.091 497.505 202.18C497.505 193.268 494.508 184.616 488.994 177.611Z" fill="#F2F2F2"/>
<path d="M417.963 202.179C417.949 211.093 420.948 219.75 426.474 226.747C421.86 232.609 418.989 239.649 418.191 247.063C417.393 254.478 418.699 261.967 421.96 268.675C425.22 275.383 430.305 281.038 436.631 284.995C442.957 288.952 450.27 291.05 457.734 291.05C465.198 291.05 472.511 288.952 478.837 284.995C485.163 281.038 490.248 275.383 493.509 268.675C496.77 261.967 498.075 254.478 497.277 247.063C496.479 239.649 493.608 232.609 488.994 226.747C494.325 219.986 417.963 197.719 417.963 202.179Z" fill="#F2F2F2"/>
<path d="M488.994 177.611C490.128 176.169 491.161 174.649 492.086 173.064L470.269 169.484L493.865 169.659C496.128 164.739 497.363 159.409 497.494 153.995C497.624 148.581 496.648 143.198 494.624 138.174L462.968 154.581L492.162 133.14C489.427 128.418 485.748 124.309 481.355 121.069C476.961 117.829 471.946 115.528 466.624 114.309C461.301 113.09 455.784 112.979 450.417 113.984C445.049 114.988 439.946 117.085 435.426 120.146C430.905 123.206 427.064 127.164 424.141 131.773C421.218 136.381 419.276 141.542 418.436 146.933C417.596 152.324 417.877 157.83 419.259 163.108C420.642 168.386 423.098 173.323 426.474 177.611C424.706 179.857 423.185 182.287 421.938 184.858L450.258 199.558L420.061 189.432C417.941 195.695 417.417 202.386 418.537 208.902C419.657 215.417 422.385 221.551 426.474 226.748C421.86 232.609 418.989 239.649 418.191 247.064C417.393 254.478 418.699 261.967 421.96 268.675C425.22 275.383 430.305 281.039 436.631 284.995C442.957 288.952 450.27 291.051 457.734 291.051C465.198 291.051 472.511 288.952 478.837 284.995C485.163 281.039 490.248 275.383 493.509 268.675C496.769 261.967 498.075 254.478 497.277 247.064C496.479 239.649 493.608 232.609 488.994 226.748C494.508 219.743 497.505 211.091 497.505 202.18C497.505 193.268 494.508 184.616 488.994 177.611Z" fill="#57B894"/>
<path opacity="0.1" d="M417.963 202.179C417.949 211.093 420.948 219.75 426.474 226.747C421.86 232.609 418.989 239.649 418.191 247.063C417.393 254.478 418.699 261.967 421.96 268.675C425.22 275.383 430.305 281.038 436.631 284.995C442.957 288.952 450.27 291.05 457.734 291.05C465.198 291.05 472.511 288.952 478.837 284.995C485.163 281.038 490.248 275.383 493.509 268.675C496.77 261.967 498.075 254.478 497.277 247.063C496.479 239.649 493.608 232.609 488.994 226.747C494.325 219.986 417.963 197.719 417.963 202.179Z" fill="black"/>
<path d="M46.52 301.626C47.6777 299.607 48.2759 297.316 48.253 294.99C48.253 288.992 44.5356 284.13 39.9501 284.13C35.3645 284.13 31.6471 288.992 31.6471 294.99C31.6242 297.316 32.2224 299.607 33.3801 301.626C32.2438 303.654 31.6471 305.939 31.6471 308.263C31.6471 310.587 32.2438 312.872 33.3801 314.899C32.2438 316.927 31.6471 319.212 31.6471 321.536C31.6471 323.86 32.2438 326.145 33.3801 328.172C32.2438 330.2 31.6471 332.485 31.6471 334.809C31.6471 337.133 32.2438 339.418 33.3801 341.445C32.2224 343.464 31.6242 345.755 31.6471 348.082C31.6471 354.08 35.3645 358.942 39.9501 358.942C44.5356 358.942 48.253 354.08 48.253 348.082C48.2759 345.755 47.6777 343.464 46.52 341.445C47.6563 339.418 48.253 337.133 48.253 334.809C48.253 332.485 47.6563 330.2 46.52 328.172C47.6563 326.145 48.253 323.86 48.253 321.536C48.253 319.212 47.6563 316.927 46.52 314.899C47.6563 312.872 48.253 310.587 48.253 308.263C48.253 305.939 47.6563 303.654 46.52 301.626Z" fill="#3F3D56"/>
<path d="M39.9494 292.576C44.535 292.576 48.2524 287.714 48.2524 281.716C48.2524 275.719 44.535 270.856 39.9494 270.856C35.3638 270.856 31.6465 275.719 31.6465 281.716C31.6465 287.714 35.3638 292.576 39.9494 292.576Z" fill="#3F3D56"/>
<path d="M39.9494 279.303C44.535 279.303 48.2524 274.441 48.2524 268.443C48.2524 262.445 44.535 257.583 39.9494 257.583C35.3638 257.583 31.6465 262.445 31.6465 268.443C31.6465 274.441 35.3638 279.303 39.9494 279.303Z" fill="#3F3D56"/>
<path d="M71.0311 177.611C72.1654 176.169 73.1986 174.649 74.1232 173.064L52.3066 169.484L75.9019 169.659C78.1654 164.739 79.4002 159.409 79.5308 153.995C79.6614 148.581 78.685 143.198 76.6614 138.174L45.0055 154.581L74.1996 133.14C71.4645 128.418 67.7855 124.309 63.3917 121.069C58.9979 117.829 53.9835 115.528 48.6608 114.309C43.3382 113.09 37.8213 112.979 32.4538 113.984C27.0864 114.988 21.9834 117.085 17.4628 120.146C12.9422 123.206 9.10071 127.164 6.17775 131.773C3.25478 136.381 1.31293 141.542 0.47316 146.933C-0.366613 152.324 -0.0863178 157.83 1.29659 163.108C2.6795 168.386 5.13538 173.323 8.51126 177.611C6.74312 179.857 5.22242 182.287 3.9755 184.858L32.295 199.558L2.09851 189.432C-0.0217405 195.695 -0.545722 202.386 0.573979 208.902C1.69368 215.417 4.42173 221.551 8.51126 226.748C3.89697 232.609 1.02655 239.649 0.228199 247.064C-0.570156 254.478 0.735767 261.967 3.99666 268.675C7.25756 275.383 12.3418 281.039 18.6681 284.995C24.9945 288.952 32.3075 291.051 39.7712 291.051C47.2349 291.051 54.5479 288.952 60.8742 284.995C67.2005 281.039 72.2848 275.383 75.5457 268.675C78.8066 261.967 80.1125 254.478 79.3142 247.064C78.5158 239.649 75.6454 232.609 71.0311 226.748C76.5448 219.743 79.5423 211.091 79.5423 202.18C79.5423 193.268 76.5448 184.616 71.0311 177.611Z" fill="#F2F2F2"/>
<path d="M4.6947e-05 202.179C-0.013685 211.093 2.98538 219.75 8.51127 226.747C3.89698 232.609 1.02657 239.649 0.228214 247.063C-0.570141 254.478 0.735782 261.967 3.99668 268.675C7.25757 275.383 12.3418 281.038 18.6681 284.995C24.9945 288.952 32.3075 291.05 39.7712 291.05C47.2349 291.05 54.5479 288.952 60.8742 284.995C67.2006 281.038 72.2848 275.383 75.5457 268.675C78.8066 261.967 80.1125 254.478 79.3142 247.063C78.5158 239.649 75.6454 232.609 71.0311 226.747C76.3617 219.986 4.6947e-05 197.719 4.6947e-05 202.179Z" fill="#F2F2F2"/>
<path d="M71.0311 177.611C72.1654 176.169 73.1986 174.649 74.1232 173.064L52.3066 169.484L75.9019 169.659C78.1654 164.739 79.4002 159.409 79.5308 153.995C79.6614 148.581 78.685 143.198 76.6614 138.174L45.0055 154.581L74.1996 133.14C71.4645 128.418 67.7855 124.309 63.3917 121.069C58.9979 117.829 53.9835 115.528 48.6608 114.309C43.3382 113.09 37.8213 112.979 32.4538 113.984C27.0864 114.988 21.9834 117.085 17.4628 120.146C12.9422 123.206 9.10071 127.164 6.17775 131.773C3.25478 136.381 1.31293 141.542 0.47316 146.933C-0.366613 152.324 -0.0863178 157.83 1.29659 163.108C2.6795 168.386 5.13538 173.323 8.51126 177.611C6.74312 179.857 5.22242 182.287 3.9755 184.858L32.295 199.558L2.09851 189.432C-0.0217405 195.695 -0.545722 202.386 0.573979 208.902C1.69368 215.417 4.42173 221.551 8.51126 226.748C3.89697 232.609 1.02655 239.649 0.228199 247.064C-0.570156 254.478 0.735767 261.967 3.99666 268.675C7.25756 275.383 12.3418 281.039 18.6681 284.995C24.9945 288.952 32.3075 291.051 39.7712 291.051C47.2349 291.051 54.5479 288.952 60.8742 284.995C67.2005 281.039 72.2848 275.383 75.5457 268.675C78.8066 261.967 80.1125 254.478 79.3142 247.064C78.5158 239.649 75.6454 232.609 71.0311 226.748C76.5448 219.743 79.5423 211.091 79.5423 202.18C79.5423 193.268 76.5448 184.616 71.0311 177.611Z" fill="#57B894"/>
<path opacity="0.1" d="M4.6947e-05 202.179C-0.013685 211.093 2.98538 219.75 8.51127 226.747C3.89698 232.609 1.02657 239.649 0.228214 247.063C-0.570141 254.478 0.735782 261.967 3.99668 268.675C7.25757 275.383 12.3418 281.038 18.6681 284.995C24.9945 288.952 32.3075 291.05 39.7712 291.05C47.2349 291.05 54.5479 288.952 60.8742 284.995C67.2006 281.038 72.2848 275.383 75.5457 268.675C78.8066 261.967 80.1125 254.478 79.3142 247.063C78.5158 239.649 75.6454 232.609 71.0311 226.747C76.3617 219.986 4.6947e-05 197.719 4.6947e-05 202.179Z" fill="black"/>
<path d="M286.614 175.431L266.881 195.147L257.531 185.806L253.891 189.443L266.868 202.409L290.255 179.067L286.614 175.431Z" fill="#57B894"/>
<path d="M349.433 130.459L329.699 150.176L320.349 140.834L316.709 144.471L329.687 157.437L353.073 134.096L349.433 130.459Z" fill="#57B894"/>
</g>
<defs>
<clipPath id="clip0_1754_15466">
<rect width="498" height="376.579" fill="white" transform="translate(0 0.209961)"/>
</clipPath>
</defs>
</svg>
