<svg width="723" height="394" viewBox="0 0 723 394" fill="none" xmlns="http://www.w3.org/2000/svg">
<path d="M598.135 0.773865H596.307V5.01827H598.135V0.773865Z" fill="white"/>
<path d="M206.281 153.784H180.209V70.7149L206.281 62.7207V153.784Z" fill="#3E4359"/>
<path d="M206.281 153.784L240.729 153.78V71.8757L206.281 62.7207V153.784Z" fill="#5C647A"/>
<path d="M214.13 149.209H234.476V76.2158L214.13 71.4688V149.209Z" fill="#3E4359"/>
<path d="M200.464 149.209H196.382V73.5352L200.464 72.1509V149.209Z" fill="#2C2F3D"/>
<path d="M191.226 149.209H187.36V76.1919L191.226 74.8117V149.209Z" fill="#2C2F3D"/>
<path d="M203.987 91.4502L163.602 103.154V97.0829L203.987 84.7007V91.4502Z" fill="#525A6D"/>
<path d="M203.987 91.4502L257.336 104.949V98.8819L203.987 84.7007V91.4502Z" fill="#727894"/>
<path d="M203.987 96.8196L174.723 105.492L163.602 103.154L203.987 91.4503V96.8196Z" fill="#30343F"/>
<path d="M203.987 96.8196L246.881 107.933L257.336 104.949L203.987 91.4503V96.8196Z" fill="#3C434F"/>
<path d="M200.655 90.0939L167.01 99.9749V98.5149L200.655 88.0954V90.0939Z" fill="#C8D3E0"/>
<path d="M207.339 89.8785L254.148 101.942V100.482L207.339 88.1512V89.8785Z" fill="#C8D3E0"/>
<path d="M203.987 101.156L163.602 112.864V106.792L203.987 94.4102V101.156Z" fill="#525A6D"/>
<path d="M203.987 101.156L257.336 114.659V108.587L203.987 94.4102V101.156Z" fill="#727894"/>
<path d="M203.987 106.529L174.723 115.201L163.602 112.864L203.987 101.156V106.529Z" fill="#30343F"/>
<path d="M203.987 106.529L246.881 117.643L257.336 114.659L203.987 101.156V106.529Z" fill="#3C434F"/>
<path d="M200.655 99.7994L167.01 109.684V108.224L200.655 97.8009V99.7994Z" fill="#C8D3E0"/>
<path d="M207.339 99.584L254.148 111.651V110.191L207.339 97.8568V99.584Z" fill="#C8D3E0"/>
<path d="M203.987 110.865L163.602 122.569V116.498L203.987 104.116V110.865Z" fill="#525A6D"/>
<path d="M203.987 110.865L257.336 124.364V118.293L203.987 104.116V110.865Z" fill="#727894"/>
<path d="M203.987 116.235L174.723 124.907L163.602 122.569L203.987 110.865V116.235Z" fill="#30343F"/>
<path d="M203.987 116.235L246.881 127.348L257.336 124.364L203.987 110.865V116.235Z" fill="#3C434F"/>
<path d="M200.655 109.509L167.01 119.39V117.93L200.655 107.51V109.509Z" fill="#C8D3E0"/>
<path d="M207.339 109.294L254.148 121.357V119.897L207.339 107.566V109.294Z" fill="#C8D3E0"/>
<path d="M203.987 120.571L163.602 132.279V126.207L203.987 113.825V120.571Z" fill="#525A6D"/>
<path d="M203.987 120.571L257.336 134.074V128.002L203.987 113.825V120.571Z" fill="#727894"/>
<path d="M203.987 125.944L174.723 134.616L163.602 132.279L203.987 120.571V125.944Z" fill="#30343F"/>
<path d="M203.987 125.944L246.881 137.058L257.336 134.074L203.987 120.571V125.944Z" fill="#3C434F"/>
<path d="M200.655 119.214L167.01 129.099V127.639L200.655 117.22V119.214Z" fill="#C8D3E0"/>
<path d="M207.339 119.003L254.148 131.066V129.606L207.339 117.272V119.003Z" fill="#C8D3E0"/>
<path d="M203.987 130.28L163.602 141.984V135.913L203.987 123.531V130.28Z" fill="#525A6D"/>
<path d="M203.987 130.28L257.336 143.779V137.712L203.987 123.531V130.28Z" fill="#727894"/>
<path d="M203.987 135.65L174.723 144.322L163.602 141.984L203.987 130.28V135.65Z" fill="#30343F"/>
<path d="M203.987 135.65L246.881 146.763L257.336 143.779L203.987 130.28V135.65Z" fill="#3C434F"/>
<path d="M200.655 128.924L167.01 138.805V137.345L200.655 126.925V128.924Z" fill="#C8D3E0"/>
<path d="M207.339 128.708L254.148 140.772V139.312L207.339 126.981V128.708Z" fill="#C8D3E0"/>
<path d="M203.987 139.99L163.602 151.694V145.622L203.987 133.24V139.99Z" fill="#525A6D"/>
<path d="M203.987 139.99L257.336 153.489V147.417L203.987 133.24V139.99Z" fill="#727894"/>
<path d="M203.987 145.359L174.723 154.031L163.602 151.694L203.987 139.99V145.359Z" fill="#30343F"/>
<path d="M203.987 145.359L246.881 156.473L257.336 153.489L203.987 139.99V145.359Z" fill="#3C434F"/>
<path d="M200.655 138.633L167.01 148.514V147.054L200.655 136.635V138.633Z" fill="#C8D3E0"/>
<path d="M207.339 138.418L254.148 150.481V149.021L207.339 136.691V138.418Z" fill="#C8D3E0"/>
<path d="M203.987 149.695L163.602 161.399V155.328L203.987 142.95V149.695Z" fill="#525A6D"/>
<path d="M203.987 149.695L257.336 163.194V157.127L203.987 142.95V149.695Z" fill="#727894"/>
<path d="M203.987 155.065L174.723 163.737L163.602 161.399L203.987 149.695V155.065Z" fill="#30343F"/>
<path d="M203.987 155.065L246.881 166.178L257.336 163.194L203.987 149.695V155.065Z" fill="#3C434F"/>
<path d="M200.655 148.339L167.01 158.22V156.76L200.655 146.34V148.339Z" fill="#C8D3E0"/>
<path d="M207.339 148.123L254.148 160.191V158.727L207.339 146.396V148.123Z" fill="#C8D3E0"/>
<path d="M203.987 159.405L163.602 171.109V165.037L203.987 152.655V159.405Z" fill="#525A6D"/>
<path d="M203.987 159.405L257.336 172.904V166.832L203.987 152.655V159.405Z" fill="#727894"/>
<path d="M203.987 164.774L174.723 173.446L163.602 171.109L203.987 159.405V164.774Z" fill="#30343F"/>
<path d="M203.987 164.774L246.881 175.888L257.336 172.904L203.987 159.405V164.774Z" fill="#3C434F"/>
<path d="M200.655 158.048L167.01 167.929V166.469L200.655 156.05V158.048Z" fill="#C8D3E0"/>
<path d="M207.339 157.833L254.148 169.896V168.436L207.339 156.106V157.833Z" fill="#C8D3E0"/>
<path d="M203.987 169.11L163.602 180.814V174.747L203.987 162.361V169.11Z" fill="#525A6D"/>
<path d="M203.987 169.11L257.336 182.609V176.542L203.987 162.361V169.11Z" fill="#727894"/>
<path d="M203.987 174.484L174.723 183.152L163.602 180.814L203.987 169.11V174.484Z" fill="#30343F"/>
<path d="M203.987 174.484L246.881 185.593L257.336 182.609L203.987 169.11V174.484Z" fill="#3C434F"/>
<path d="M200.655 167.754L167.01 177.635V176.179L200.655 165.755V167.754Z" fill="#C8D3E0"/>
<path d="M207.339 167.542L254.148 179.605V178.142L207.339 165.811V167.542Z" fill="#C8D3E0"/>
<path d="M203.987 178.82L163.602 190.524V184.452L203.987 172.07V178.82Z" fill="#525A6D"/>
<path d="M203.987 178.82L257.336 192.319V186.247L203.987 172.07V178.82Z" fill="#727894"/>
<path d="M203.987 184.189L174.723 192.861L163.602 190.524L203.987 178.82V184.189Z" fill="#30343F"/>
<path d="M203.987 184.189L246.881 195.303L257.336 192.319L203.987 178.82V184.189Z" fill="#3C434F"/>
<path d="M200.655 177.463L167.01 187.344V185.884L200.655 175.465V177.463Z" fill="#C8D3E0"/>
<path d="M207.339 177.248L254.148 189.311V187.851L207.339 175.521V177.248Z" fill="#C8D3E0"/>
<path d="M203.987 188.525L163.602 200.229V194.158L203.987 181.776V188.525Z" fill="#525A6D"/>
<path d="M203.987 188.525L257.336 202.028V195.957L203.987 181.776V188.525Z" fill="#727894"/>
<path d="M203.987 193.898L174.723 202.571L163.602 200.229L203.987 188.525V193.898Z" fill="#30343F"/>
<path d="M203.987 193.898L246.881 205.008L257.336 202.028L203.987 188.525V193.898Z" fill="#3C434F"/>
<path d="M200.655 187.169L167.01 197.05V195.594L200.655 185.17V187.169Z" fill="#C8D3E0"/>
<path d="M207.339 186.957L254.148 199.02V197.556L207.339 185.226V186.957Z" fill="#C8D3E0"/>
<path d="M203.987 198.235L163.602 209.939V203.867L203.987 191.485V198.235Z" fill="#525A6D"/>
<path d="M203.987 198.235L257.336 211.734V205.662L203.987 191.485V198.235Z" fill="#727894"/>
<path d="M203.987 203.604L174.723 212.276L163.602 209.939L203.987 198.235V203.604Z" fill="#30343F"/>
<path d="M203.987 203.604L246.881 214.718L257.336 211.734L203.987 198.235V203.604Z" fill="#3C434F"/>
<path d="M200.655 196.878L167.01 206.759V205.299L200.655 194.88V196.878Z" fill="#C8D3E0"/>
<path d="M207.339 196.663L254.148 208.726V207.266L207.339 194.936V196.663Z" fill="#C8D3E0"/>
<path d="M203.987 207.94L163.602 219.648V213.577L203.987 201.195V207.94Z" fill="#525A6D"/>
<path d="M203.987 207.94L257.336 221.439V215.372L203.987 201.195V207.94Z" fill="#727894"/>
<path d="M203.987 213.313L174.723 221.986L163.602 219.648L203.987 207.94V213.313Z" fill="#30343F"/>
<path d="M203.987 213.313L246.881 224.427L257.336 221.439L203.987 207.94V213.313Z" fill="#3C434F"/>
<path d="M200.655 206.584L167.01 216.469V215.009L200.655 204.585V206.584Z" fill="#C8D3E0"/>
<path d="M207.339 206.372L254.148 218.435V216.975L207.339 204.641V206.372Z" fill="#C8D3E0"/>
<path d="M203.987 217.65L163.602 229.354V223.282L203.987 210.9V217.65Z" fill="#525A6D"/>
<path d="M203.987 217.65L257.336 231.149V225.081L203.987 210.9V217.65Z" fill="#727894"/>
<path d="M203.987 223.019L174.723 231.691L163.602 229.354L203.987 217.65V223.019Z" fill="#30343F"/>
<path d="M203.987 223.019L246.881 234.133L257.336 231.149L203.987 217.65V223.019Z" fill="#3C434F"/>
<path d="M200.655 216.293L167.01 226.174V224.714L200.655 214.295V216.293Z" fill="#C8D3E0"/>
<path d="M207.339 216.078L254.148 228.141V226.681L207.339 214.351V216.078Z" fill="#C8D3E0"/>
<path d="M203.987 227.355L163.602 239.063V232.992L203.987 220.609V227.355Z" fill="#525A6D"/>
<path d="M203.987 227.355L257.336 240.858V234.787L203.987 220.609V227.355Z" fill="#727894"/>
<path d="M203.987 232.728L174.723 241.401L163.602 239.063L203.987 227.355V232.728Z" fill="#30343F"/>
<path d="M203.987 232.728L246.881 243.842L257.336 240.858L203.987 227.355V232.728Z" fill="#3C434F"/>
<path d="M200.655 226.003L167.01 235.884V234.424L200.655 224V226.003Z" fill="#C8D3E0"/>
<path d="M207.339 225.787L254.148 237.85V236.39L207.339 224.056V225.787Z" fill="#C8D3E0"/>
<path d="M203.987 237.065L163.602 248.769V242.697L203.987 230.315V237.065Z" fill="#525A6D"/>
<path d="M203.987 237.065L257.336 250.564V244.496L203.987 230.315V237.065Z" fill="#727894"/>
<path d="M203.987 242.434L174.723 251.106L163.602 248.769L203.987 237.065V242.434Z" fill="#30343F"/>
<path d="M203.987 242.434L246.881 253.548L257.336 250.564L203.987 237.065V242.434Z" fill="#3C434F"/>
<path d="M200.655 235.708L167.01 245.589V244.129L200.655 233.71V235.708Z" fill="#C8D3E0"/>
<path d="M207.339 235.493L254.148 247.56V246.096L207.339 233.766V235.493Z" fill="#C8D3E0"/>
<path d="M203.987 246.77L163.602 258.478V252.407L203.987 240.024V246.77Z" fill="#525A6D"/>
<path d="M203.987 246.77L257.336 260.273V254.202L203.987 240.024V246.77Z" fill="#727894"/>
<path d="M203.987 252.143L174.723 260.816L163.602 258.478L203.987 246.77V252.143Z" fill="#30343F"/>
<path d="M203.987 252.143L246.881 263.257L257.336 260.273L203.987 246.77V252.143Z" fill="#3C434F"/>
<path d="M200.655 245.418L167.01 255.299V253.839L200.655 243.419V245.418Z" fill="#C8D3E0"/>
<path d="M207.339 245.202L254.148 257.265V255.805L207.339 243.475V245.202Z" fill="#C8D3E0"/>
<path d="M203.987 256.48L163.602 268.184V262.112L203.987 249.73V256.48Z" fill="#525A6D"/>
<path d="M203.987 256.48L257.336 269.979V263.911L203.987 249.73V256.48Z" fill="#727894"/>
<path d="M203.987 261.853L174.723 270.521L163.602 268.184L203.987 256.48V261.853Z" fill="#30343F"/>
<path d="M203.987 261.853L246.881 272.963L257.336 269.979L203.987 256.48V261.853Z" fill="#3C434F"/>
<path d="M200.655 255.123L167.01 265.004V263.544L200.655 253.125V255.123Z" fill="#C8D3E0"/>
<path d="M207.339 254.908L254.148 266.975V265.511L207.339 253.181V254.908Z" fill="#C8D3E0"/>
<path d="M203.987 266.189L163.602 277.893V271.822L203.987 259.439V266.189Z" fill="#525A6D"/>
<path d="M203.987 266.189L257.336 279.688V273.617L203.987 259.439V266.189Z" fill="#727894"/>
<path d="M203.987 271.558L174.723 280.231L163.602 277.893L203.987 266.189V271.558Z" fill="#30343F"/>
<path d="M203.987 271.558L246.881 282.672L257.336 279.688L203.987 266.189V271.558Z" fill="#3C434F"/>
<path d="M200.655 264.833L167.01 274.714V273.254L200.655 262.834V264.833Z" fill="#C8D3E0"/>
<path d="M207.339 264.617L254.148 276.68V275.22L207.339 262.89V264.617Z" fill="#C8D3E0"/>
<path d="M203.987 275.894L163.602 287.599V281.531L203.987 269.145V275.894Z" fill="#525A6D"/>
<path d="M203.987 275.895L257.336 289.394V283.326L203.987 269.145V275.895Z" fill="#727894"/>
<path d="M203.987 281.268L174.723 289.936L163.602 287.599L203.987 275.895V281.268Z" fill="#30343F"/>
<path d="M203.987 281.268L246.881 292.382L257.336 289.394L203.987 275.895V281.268Z" fill="#3C434F"/>
<path d="M200.655 274.538L167.01 284.419V282.959L200.655 272.54V274.538Z" fill="#C8D3E0"/>
<path d="M207.339 274.323L254.148 286.39V284.93L207.339 272.596V274.323Z" fill="#C8D3E0"/>
<path d="M203.987 285.604L163.602 297.308V291.237L203.987 278.854V285.604Z" fill="#525A6D"/>
<path d="M203.987 285.604L257.336 299.103V293.032L203.987 278.854V285.604Z" fill="#727894"/>
<path d="M203.987 290.973L174.723 299.646L163.602 297.308L203.987 285.604V290.973Z" fill="#30343F"/>
<path d="M203.987 290.973L246.881 302.087L257.336 299.103L203.987 285.604V290.973Z" fill="#3C434F"/>
<path d="M200.655 284.248L167.01 294.129V292.669L200.655 282.249V284.248Z" fill="#C8D3E0"/>
<path d="M207.339 284.032L254.148 296.095V294.635L207.339 282.305V284.032Z" fill="#C8D3E0"/>
<path d="M203.987 295.31L163.602 307.018V300.946L203.987 288.564V295.31Z" fill="#525A6D"/>
<path d="M203.987 295.309L257.336 308.813V302.741L203.987 288.564V295.309Z" fill="#727894"/>
<path d="M203.987 300.683L174.723 309.355L163.602 307.018L203.987 295.31V300.683Z" fill="#30343F"/>
<path d="M203.987 300.683L246.881 311.792L257.336 308.813L203.987 295.31V300.683Z" fill="#3C434F"/>
<path d="M200.655 293.953L167.01 303.834V302.378L200.655 291.955V293.953Z" fill="#C8D3E0"/>
<path d="M207.339 293.742L254.148 305.805V304.341L207.339 292.01V293.742Z" fill="#C8D3E0"/>
<path d="M203.987 305.019L163.602 316.723V310.652L203.987 298.269V305.019Z" fill="#525A6D"/>
<path d="M203.987 305.019L257.336 318.518V312.451L203.987 298.269V305.019Z" fill="#727894"/>
<path d="M203.987 310.388L174.723 319.061L163.602 316.723L203.987 305.019V310.388Z" fill="#30343F"/>
<path d="M203.987 310.388L246.881 321.502L257.336 318.518L203.987 305.019V310.388Z" fill="#3C434F"/>
<path d="M200.655 303.663L167.01 313.544V312.084L200.655 301.664V303.663Z" fill="#C8D3E0"/>
<path d="M207.339 303.447L254.148 315.51V314.05L207.339 301.72V303.447Z" fill="#C8D3E0"/>
<path d="M203.987 314.724L163.602 326.428V320.361L203.987 307.979V314.724Z" fill="#525A6D"/>
<path d="M203.987 314.724L257.336 328.228V322.156L203.987 307.979V314.724Z" fill="#727894"/>
<path d="M203.987 320.098L174.723 328.766L163.602 326.428L203.987 314.724V320.098Z" fill="#30343F"/>
<path d="M203.987 320.098L246.881 331.211L257.336 328.228L203.987 314.724V320.098Z" fill="#3C434F"/>
<path d="M200.655 313.368L167.01 323.253V321.793L200.655 311.37V313.368Z" fill="#C8D3E0"/>
<path d="M207.339 313.157L254.148 325.22V323.76L207.339 311.429V313.157Z" fill="#C8D3E0"/>
<path d="M203.987 324.434L163.602 336.138V330.067L203.987 317.684V324.434Z" fill="#525A6D"/>
<path d="M203.987 324.434L257.336 337.933V331.866L203.987 317.684V324.434Z" fill="#727894"/>
<path d="M203.987 329.803L174.723 338.476L163.602 336.138L203.987 324.434V329.803Z" fill="#30343F"/>
<path d="M203.987 329.803L246.881 340.917L257.336 337.933L203.987 324.434V329.803Z" fill="#3C434F"/>
<path d="M200.655 323.078L167.01 332.959V331.499L200.655 321.079V323.078Z" fill="#C8D3E0"/>
<path d="M207.339 322.862L254.148 334.925V333.465L207.339 321.135V322.862Z" fill="#C8D3E0"/>
<path d="M203.987 393.996H163.602V341.092L203.987 328.71V393.996Z" fill="#1F222B"/>
<path d="M203.987 393.996H257.336V342.888L203.987 328.71V393.996Z" fill="#2C2F3D"/>
<path d="M216.141 386.915H247.647V349.609L216.141 343.318V386.915Z" fill="#3E4359"/>
<path d="M194.973 386.915H188.653V345.461L194.973 343.318V386.915Z" fill="#3A3E4C"/>
<path d="M180.668 386.915H174.679V349.573L180.668 347.431V386.915Z" fill="#3A3E4C"/>
<path d="M493.675 3.59021L580.538 28.8731L570.566 42.5079L493.675 20.8431V3.59021Z" fill="#3E4359"/>
<path d="M495.579 26.8068L458.314 58.0335V41.8696L495.579 9.29858V26.8068Z" fill="#2C2F3D"/>
<path d="M493.619 20.8431L575.155 43.8004V27.2376L493.619 3.33087V20.8431Z" fill="#727894"/>
<path d="M493.675 3.59019L580.538 28.8731V25.2869L493.675 0V3.59019Z" fill="#9FA5BC"/>
<path d="M493.675 3.59019L449.149 39.8073V36.2171L493.675 0V3.59019Z" fill="#727894"/>
<path d="M493.675 3.59021L449.149 39.8073L465.983 43.1741L493.675 20.7952V3.59021Z" fill="#3E4359"/>
<path d="M518.598 24.6168L503.344 20.3006V9.77332L518.598 14.0895V24.6168Z" fill="#2C2F3D"/>
<path d="M512.325 22.8416L518.598 14.0895V24.6168L512.325 22.8416Z" fill="#3E4359"/>
<path d="M542.579 31.5139L527.325 27.1977V16.6705L542.579 20.9867V31.5139Z" fill="#2C2F3D"/>
<path d="M536.303 29.7388L542.579 20.9867V31.5139L536.303 29.7388Z" fill="#3E4359"/>
<path d="M566.265 38.2396L551.01 33.9234V23.3961L566.265 27.7123V38.2396Z" fill="#2C2F3D"/>
<path d="M559.992 36.4644L566.265 27.7123V38.2396L559.992 36.4644Z" fill="#3E4359"/>
<path d="M493.675 23.6195L580.538 48.9064L570.566 62.5372L493.675 40.8724V23.6195Z" fill="#3E4359"/>
<path d="M495.579 46.8361L458.314 78.0628V61.899L495.579 29.3279V46.8361Z" fill="#2C2F3D"/>
<path d="M493.619 40.8724L575.155 63.8297V47.2669L493.619 23.3642V40.8724Z" fill="#727894"/>
<path d="M493.675 23.6195L580.538 48.9064V45.3122L493.675 20.0293V23.6195Z" fill="#9FA5BC"/>
<path d="M493.675 23.6195L449.149 59.8366V56.2464L493.675 20.0293V23.6195Z" fill="#727894"/>
<path d="M493.675 23.6195L449.149 59.8366L465.983 63.2034L493.675 40.8245V23.6195Z" fill="#3E4359"/>
<path d="M518.598 44.6461L503.344 40.3299V29.8026L518.598 34.1188V44.6461Z" fill="#2C2F3D"/>
<path d="M512.325 42.8709L518.598 34.1188V44.6461L512.325 42.8709Z" fill="#3E4359"/>
<path d="M542.579 51.5472L527.324 47.227V36.6998L542.579 41.02V51.5472Z" fill="#2C2F3D"/>
<path d="M536.302 49.7681L542.579 41.02V51.5472L536.302 49.7681Z" fill="#3E4359"/>
<path d="M566.265 58.2689L551.01 53.9527V43.4254L566.265 47.7416V58.2689Z" fill="#2C2F3D"/>
<path d="M559.992 56.4937L566.265 47.7416V58.2689L559.992 56.4937Z" fill="#3E4359"/>
<path d="M493.675 43.6487L580.538 68.9357L570.566 82.5704L493.675 60.9016V43.6487Z" fill="#3E4359"/>
<path d="M495.579 66.8653L458.314 98.092V81.9282L495.579 49.3571V66.8653Z" fill="#2C2F3D"/>
<path d="M493.619 60.9016L575.155 83.8589V67.2961L493.619 43.3934V60.9016Z" fill="#727894"/>
<path d="M493.675 43.6488L580.538 68.9357V65.3455L493.675 40.0626V43.6488Z" fill="#9FA5BC"/>
<path d="M493.675 43.6488L449.149 79.8659V76.2757L493.675 40.0626V43.6488Z" fill="#727894"/>
<path d="M493.675 43.6487L449.149 79.8658L465.983 83.2366L493.675 60.8538V43.6487Z" fill="#3E4359"/>
<path d="M518.598 64.6753L503.344 60.3591V49.8318L518.598 54.1481V64.6753Z" fill="#2C2F3D"/>
<path d="M512.325 62.9002L518.598 54.1481V64.6753L512.325 62.9002Z" fill="#3E4359"/>
<path d="M542.579 71.5764L527.324 67.2563V56.729L542.579 61.0452V71.5764Z" fill="#2C2F3D"/>
<path d="M536.302 69.7973L542.579 61.0452V71.5765L536.302 69.7973Z" fill="#3E4359"/>
<path d="M566.265 78.2981L551.01 73.9819V63.4547L566.265 67.7709V78.2981Z" fill="#2C2F3D"/>
<path d="M559.992 76.523L566.265 67.7709V78.2981L559.992 76.523Z" fill="#3E4359"/>
<path d="M493.675 63.678L580.538 88.965L570.566 102.596L493.675 80.9309V63.678Z" fill="#3E4359"/>
<path d="M495.579 86.8947L458.314 118.121V101.958L495.579 69.3865V86.8947Z" fill="#2C2F3D"/>
<path d="M493.619 80.9309L575.155 103.892V87.3255L493.619 63.4227V80.9309Z" fill="#727894"/>
<path d="M493.675 63.6781L580.538 88.965V85.3748L493.675 60.0919V63.6781Z" fill="#9FA5BC"/>
<path d="M493.675 63.6781L449.149 99.8952V96.305L493.675 60.0919V63.6781Z" fill="#727894"/>
<path d="M493.675 63.678L449.149 99.8951L465.983 103.266L493.675 80.8831V63.678Z" fill="#3E4359"/>
<path d="M518.598 84.7046L503.344 80.3884V69.8611L518.598 74.1774V84.7046Z" fill="#2C2F3D"/>
<path d="M512.325 82.9295L518.598 74.1774V84.7046L512.325 82.9295Z" fill="#3E4359"/>
<path d="M542.579 91.6057L527.324 87.2895V76.7583L542.579 81.0785V91.6057Z" fill="#2C2F3D"/>
<path d="M536.302 89.8266L542.579 81.0785V91.6057L536.302 89.8266Z" fill="#3E4359"/>
<path d="M566.265 98.3274L551.01 94.0112V83.4839L566.265 87.8002V98.3274Z" fill="#2C2F3D"/>
<path d="M559.992 96.5523L566.265 87.8002V98.3274L559.992 96.5523Z" fill="#3E4359"/>
<path d="M493.675 83.7074L580.538 108.994L570.566 122.629L493.675 100.96V83.7074Z" fill="#3E4359"/>
<path d="M495.579 106.924L458.314 138.151V121.987L495.579 89.4158V106.924Z" fill="#2C2F3D"/>
<path d="M493.619 100.96L575.155 123.918V107.355L493.619 83.4521V100.96Z" fill="#727894"/>
<path d="M493.675 83.7074L580.538 108.994V105.404L493.675 80.1212V83.7074Z" fill="#9FA5BC"/>
<path d="M493.675 83.7074L449.149 119.928V116.338L493.675 80.1212V83.7074Z" fill="#727894"/>
<path d="M493.675 83.7074L449.149 119.928L465.983 123.295L493.675 100.912V83.7074Z" fill="#3E4359"/>
<path d="M518.598 104.734L503.344 100.418V89.8905L518.598 94.2067V104.734Z" fill="#2C2F3D"/>
<path d="M512.325 102.959L518.598 94.2067V104.734L512.325 102.959Z" fill="#3E4359"/>
<path d="M542.579 111.635L527.324 107.319V96.7877L542.579 101.108V111.635Z" fill="#2C2F3D"/>
<path d="M536.302 109.86L542.579 101.108V111.635L536.302 109.86Z" fill="#3E4359"/>
<path d="M566.265 118.357L551.01 114.045V103.513L566.265 107.83V118.357Z" fill="#2C2F3D"/>
<path d="M559.992 116.582L566.265 107.83V118.357L559.992 116.582Z" fill="#3E4359"/>
<path d="M493.675 103.737L580.538 129.024L570.566 142.658L493.675 120.99V103.737Z" fill="#3E4359"/>
<path d="M495.579 126.953L458.314 158.18V142.016L495.579 109.445V126.953Z" fill="#2C2F3D"/>
<path d="M493.619 120.99L575.155 143.951V127.384L493.619 103.481V120.99Z" fill="#727894"/>
<path d="M493.675 103.737L580.538 129.024V125.433L493.675 100.15V103.737Z" fill="#9FA5BC"/>
<path d="M493.675 103.737L449.149 139.954V136.368L493.675 100.15V103.737Z" fill="#727894"/>
<path d="M493.675 103.737L449.149 139.954L465.983 143.325L493.675 120.942V103.737Z" fill="#3E4359"/>
<path d="M518.598 124.767L503.344 120.447V109.92L518.598 114.236V124.767Z" fill="#2C2F3D"/>
<path d="M512.325 122.988L518.598 114.236V124.767L512.325 122.988Z" fill="#3E4359"/>
<path d="M542.579 131.664L527.324 127.348V116.821L542.579 121.137V131.664Z" fill="#2C2F3D"/>
<path d="M536.302 129.889L542.579 121.137V131.664L536.302 129.889Z" fill="#3E4359"/>
<path d="M566.265 138.39L551.01 134.074V123.543L566.265 127.859V138.39Z" fill="#2C2F3D"/>
<path d="M559.992 136.611L566.265 127.859V138.39L559.992 136.611Z" fill="#3E4359"/>
<path d="M493.675 123.766L580.538 149.053L570.566 162.688L493.675 141.019V123.766Z" fill="#3E4359"/>
<path d="M495.579 146.983L458.314 178.209V162.045L495.579 129.474V146.983Z" fill="#2C2F3D"/>
<path d="M493.619 141.019L575.155 163.98V147.413L493.619 123.511V141.019Z" fill="#727894"/>
<path d="M493.675 123.766L580.538 149.053V145.463L493.675 120.18V123.766Z" fill="#9FA5BC"/>
<path d="M493.675 123.766L449.149 159.987V156.397L493.675 120.18V123.766Z" fill="#727894"/>
<path d="M493.675 123.766L449.149 159.987L465.983 163.354L493.675 140.971V123.766Z" fill="#3E4359"/>
<path d="M518.598 144.793L503.344 140.476V129.949L518.598 134.265V144.793Z" fill="#2C2F3D"/>
<path d="M512.325 143.021L518.598 134.265V144.793L512.325 143.021Z" fill="#3E4359"/>
<path d="M542.579 151.694L527.324 147.378V136.85L542.579 141.166V151.694Z" fill="#2C2F3D"/>
<path d="M536.302 149.919L542.579 141.166V151.694L536.302 149.919Z" fill="#3E4359"/>
<path d="M566.265 158.419L551.01 154.103V143.576L566.265 147.892V158.419Z" fill="#2C2F3D"/>
<path d="M559.992 156.644L566.265 147.892V158.419L559.992 156.644Z" fill="#3E4359"/>
<path d="M493.675 143.799L580.538 169.082L570.566 182.717L493.675 161.048V143.799Z" fill="#3E4359"/>
<path d="M495.579 167.016L458.314 198.239V182.079L495.579 149.508V167.016Z" fill="#2C2F3D"/>
<path d="M493.619 161.048L575.155 184.009V167.443L493.619 143.54V161.048Z" fill="#727894"/>
<path d="M493.675 143.799L580.538 169.082V165.492L493.675 140.209V143.799Z" fill="#9FA5BC"/>
<path d="M493.675 143.799L449.149 180.016V176.426L493.675 140.209V143.799Z" fill="#727894"/>
<path d="M493.675 143.799L449.149 180.016L465.983 183.383L493.675 161V143.799Z" fill="#3E4359"/>
<path d="M518.598 164.826L503.344 160.51V149.982L518.598 154.299V164.826Z" fill="#2C2F3D"/>
<path d="M512.325 163.051L518.598 154.299V164.826L512.325 163.051Z" fill="#3E4359"/>
<path d="M542.579 171.723L527.324 167.407V156.88L542.579 161.196V171.723Z" fill="#2C2F3D"/>
<path d="M536.302 169.948L542.579 161.196V171.723L536.302 169.948Z" fill="#3E4359"/>
<path d="M566.265 178.449L551.01 174.132V163.605L566.265 167.921V178.449Z" fill="#2C2F3D"/>
<path d="M559.992 176.673L566.265 167.921V178.449L559.992 176.673Z" fill="#3E4359"/>
<path d="M493.675 163.829L580.538 189.112L570.566 202.746L493.675 181.081V163.829Z" fill="#3E4359"/>
<path d="M495.579 187.045L458.314 218.272V202.108L495.579 169.537V187.045Z" fill="#2C2F3D"/>
<path d="M493.619 181.081L575.155 204.039V187.476L493.619 163.573V181.081Z" fill="#727894"/>
<path d="M493.675 163.829L580.538 189.112V185.525L493.675 160.238V163.829Z" fill="#9FA5BC"/>
<path d="M493.675 163.829L449.149 200.046V196.455L493.675 160.238V163.829Z" fill="#727894"/>
<path d="M493.675 163.829L449.149 200.046L465.983 203.412L493.675 181.034V163.829Z" fill="#3E4359"/>
<path d="M518.598 184.855L503.344 180.539V170.012L518.598 174.328V184.855Z" fill="#2C2F3D"/>
<path d="M512.325 183.08L518.598 174.328V184.855L512.325 183.08Z" fill="#3E4359"/>
<path d="M542.579 191.756L527.324 187.436V176.909L542.579 181.225V191.756Z" fill="#2C2F3D"/>
<path d="M536.302 189.977L542.579 181.225V191.756L536.302 189.977Z" fill="#3E4359"/>
<path d="M566.265 198.478L551.01 194.162V183.634L566.265 187.951V198.478Z" fill="#2C2F3D"/>
<path d="M559.992 196.703L566.265 187.951V198.478L559.992 196.703Z" fill="#3E4359"/>
<path d="M493.675 183.858L580.538 209.145L570.566 222.776L493.675 201.111V183.858Z" fill="#3E4359"/>
<path d="M495.579 207.074L458.314 238.301V222.137L495.579 189.566V207.074Z" fill="#2C2F3D"/>
<path d="M493.619 201.111L575.155 224.068V207.505L493.619 183.603V201.111Z" fill="#727894"/>
<path d="M493.675 183.858L580.538 209.145V205.555L493.675 180.268V183.858Z" fill="#9FA5BC"/>
<path d="M493.675 183.858L449.149 220.075V216.485L493.675 180.268V183.858Z" fill="#727894"/>
<path d="M493.675 183.858L449.149 220.075L465.983 223.442L493.675 201.063V183.858Z" fill="#3E4359"/>
<path d="M518.598 204.884L503.344 200.568V190.041L518.598 194.357V204.884Z" fill="#2C2F3D"/>
<path d="M512.325 203.109L518.598 194.357V204.884L512.325 203.109Z" fill="#3E4359"/>
<path d="M542.579 211.786L527.324 207.465V196.938L542.579 201.258V211.786Z" fill="#2C2F3D"/>
<path d="M536.302 210.006L542.579 201.258V211.786L536.302 210.006Z" fill="#3E4359"/>
<path d="M566.265 218.507L551.01 214.191V203.664L566.265 207.98V218.507Z" fill="#2C2F3D"/>
<path d="M559.992 216.732L566.265 207.98V218.507L559.992 216.732Z" fill="#3E4359"/>
<path d="M493.675 203.887L580.538 229.174L570.566 242.805L493.675 221.14V203.887Z" fill="#3E4359"/>
<path d="M495.579 227.104L458.314 258.33V242.167L495.579 209.596V227.104Z" fill="#2C2F3D"/>
<path d="M493.619 221.14L575.155 244.097V227.535L493.619 203.632V221.14Z" fill="#727894"/>
<path d="M493.675 203.887L580.538 229.174V225.584L493.675 200.301V203.887Z" fill="#9FA5BC"/>
<path d="M493.675 203.887L449.149 240.104V236.514L493.675 200.301V203.887Z" fill="#727894"/>
<path d="M493.675 203.887L449.149 240.104L465.983 243.475L493.675 221.092V203.887Z" fill="#3E4359"/>
<path d="M518.598 224.914L503.344 220.598V210.07L518.598 214.387V224.914Z" fill="#2C2F3D"/>
<path d="M512.325 223.139L518.598 214.387V224.914L512.325 223.139Z" fill="#3E4359"/>
<path d="M542.579 231.815L527.324 227.499V216.967L542.579 221.288V231.815Z" fill="#2C2F3D"/>
<path d="M536.302 230.04L542.579 221.288V231.815L536.302 230.04Z" fill="#3E4359"/>
<path d="M566.265 238.537L551.01 234.22V223.693L566.265 228.009V238.537Z" fill="#2C2F3D"/>
<path d="M559.992 236.761L566.265 228.009V238.537L559.992 236.761Z" fill="#3E4359"/>
<path d="M493.675 223.916L580.538 249.203L570.566 262.834L493.675 241.169V223.916Z" fill="#3E4359"/>
<path d="M495.579 247.133L458.314 278.36V262.196L495.579 229.625V247.133Z" fill="#2C2F3D"/>
<path d="M493.619 241.169L575.155 264.127V247.564L493.619 223.661V241.169Z" fill="#727894"/>
<path d="M493.675 223.916L580.538 249.203V245.613L493.675 220.33V223.916Z" fill="#9FA5BC"/>
<path d="M493.675 223.916L449.149 260.134V256.543L493.675 220.33V223.916Z" fill="#727894"/>
<path d="M493.675 223.916L449.149 260.134L465.983 263.504L493.675 241.121V223.916Z" fill="#3E4359"/>
<path d="M518.598 244.943L503.344 240.627V230.1L518.598 234.416V244.943Z" fill="#2C2F3D"/>
<path d="M512.325 243.168L518.598 234.416V244.943L512.325 243.168Z" fill="#3E4359"/>
<path d="M542.579 251.844L527.324 247.528V237.001L542.579 241.317V251.844Z" fill="#2C2F3D"/>
<path d="M536.302 250.065L542.579 241.317V251.844L536.302 250.065Z" fill="#3E4359"/>
<path d="M566.265 258.566L551.01 254.25V243.722L566.265 248.039V258.566Z" fill="#2C2F3D"/>
<path d="M559.992 256.795L566.265 248.039V258.566L559.992 256.795Z" fill="#3E4359"/>
<path d="M493.675 243.946L580.538 269.233L570.566 282.867L493.675 261.199V243.946Z" fill="#3E4359"/>
<path d="M495.579 267.162L458.314 298.389V282.225L495.579 249.654V267.162Z" fill="#2C2F3D"/>
<path d="M493.619 261.199L575.155 284.156V267.593L493.619 243.69V261.199Z" fill="#727894"/>
<path d="M493.675 243.946L580.538 269.233V265.643L493.675 240.36V243.946Z" fill="#9FA5BC"/>
<path d="M493.675 243.946L449.149 280.167V276.577L493.675 240.36V243.946Z" fill="#727894"/>
<path d="M493.675 243.946L449.149 280.167L465.983 283.534L493.675 261.151V243.946Z" fill="#3E4359"/>
<path d="M518.598 264.972L503.344 260.656V250.129L518.598 254.445V264.972Z" fill="#2C2F3D"/>
<path d="M512.325 263.197L518.598 254.445V264.972L512.325 263.197Z" fill="#3E4359"/>
<path d="M542.579 271.874L527.324 267.557V257.026L542.579 261.346V271.874Z" fill="#2C2F3D"/>
<path d="M536.302 270.098L542.579 261.346V271.874L536.302 270.098Z" fill="#3E4359"/>
<path d="M566.265 278.599L551.01 274.283V263.752L566.265 268.068V278.599Z" fill="#2C2F3D"/>
<path d="M559.992 276.824L566.265 268.068V278.599L559.992 276.824Z" fill="#3E4359"/>
<path d="M493.675 263.975L580.538 289.262L570.566 302.897L493.675 281.228V263.975Z" fill="#3E4359"/>
<path d="M495.579 287.192L458.314 318.418V302.255L495.579 269.684V287.192Z" fill="#2C2F3D"/>
<path d="M493.619 281.228L575.155 304.189V287.622L493.619 263.72V281.228Z" fill="#727894"/>
<path d="M493.675 263.975L580.538 289.262V285.672L493.675 260.389V263.975Z" fill="#9FA5BC"/>
<path d="M493.675 263.975L449.149 300.196V296.606L493.675 260.389V263.975Z" fill="#727894"/>
<path d="M493.675 263.975L449.149 300.196L465.983 303.563L493.675 281.18V263.975Z" fill="#3E4359"/>
<path d="M518.598 285.006L503.344 280.685V270.158L518.598 274.474V285.006Z" fill="#2C2F3D"/>
<path d="M512.325 283.23L518.598 274.474V285.006L512.325 283.23Z" fill="#3E4359"/>
<path d="M542.579 291.903L527.324 287.587V277.059L542.579 281.376V291.903Z" fill="#2C2F3D"/>
<path d="M536.302 290.128L542.579 281.376V291.903L536.302 290.128Z" fill="#3E4359"/>
<path d="M566.265 298.628L551.01 294.312V283.785L566.265 288.097V298.628Z" fill="#2C2F3D"/>
<path d="M559.992 296.853L566.265 288.097V298.628L559.992 296.853Z" fill="#3E4359"/>
<path d="M493.675 284.004L580.538 309.291L570.566 322.926L493.675 301.257V284.004Z" fill="#3E4359"/>
<path d="M495.579 307.221L458.314 338.448V322.288L495.579 289.713V307.221Z" fill="#2C2F3D"/>
<path d="M493.619 301.257L575.155 324.219V307.656L493.619 283.749V301.257Z" fill="#727894"/>
<path d="M493.675 284.004L580.538 309.291V305.701L493.675 280.418V284.004Z" fill="#9FA5BC"/>
<path d="M493.675 284.004L449.149 320.225V316.635L493.675 280.418V284.004Z" fill="#727894"/>
<path d="M493.675 284.004L449.149 320.225L465.983 323.592L493.675 301.209V284.004Z" fill="#3E4359"/>
<path d="M518.598 305.035L503.344 300.719V290.191L518.598 294.508V305.035Z" fill="#2C2F3D"/>
<path d="M512.325 303.26L518.598 294.508V305.035L512.325 303.26Z" fill="#3E4359"/>
<path d="M542.579 311.932L527.324 307.616V297.089L542.579 301.405V311.932Z" fill="#2C2F3D"/>
<path d="M536.302 310.157L542.579 301.405V311.932L536.302 310.157Z" fill="#3E4359"/>
<path d="M566.265 318.658L551.01 314.341V303.814L566.265 308.13V318.658Z" fill="#2C2F3D"/>
<path d="M559.992 316.883L566.265 308.13V318.658L559.992 316.883Z" fill="#3E4359"/>
<path d="M493.675 304.038L580.538 329.321L570.566 342.955L493.675 321.287V304.038Z" fill="#3E4359"/>
<path d="M495.579 327.254L458.314 358.481V342.317L495.579 309.746V327.254Z" fill="#2C2F3D"/>
<path d="M493.619 321.287L575.155 344.248V327.685L493.619 303.778V321.287Z" fill="#727894"/>
<path d="M493.675 304.038L580.538 329.321V325.73L493.675 300.447V304.038Z" fill="#9FA5BC"/>
<path d="M493.675 304.038L449.149 340.255V336.665L493.675 300.447V304.038Z" fill="#727894"/>
<path d="M493.675 304.038L449.149 340.255L465.983 343.622L493.675 321.243V304.038Z" fill="#3E4359"/>
<path d="M518.598 325.064L503.344 320.748V310.217L518.598 314.537V325.064Z" fill="#2C2F3D"/>
<path d="M512.325 323.289L518.598 314.537V325.064L512.325 323.289Z" fill="#3E4359"/>
<path d="M542.579 331.965L527.324 327.645V317.118L542.579 321.434V331.965Z" fill="#2C2F3D"/>
<path d="M536.302 330.186L542.579 321.434V331.965L536.302 330.186Z" fill="#3E4359"/>
<path d="M566.265 338.687L551.01 334.371V323.844L566.265 328.16V338.687Z" fill="#2C2F3D"/>
<path d="M559.992 336.912L566.265 328.16V338.687L559.992 336.912Z" fill="#3E4359"/>
<path d="M493.675 324.067L580.538 349.354L570.566 362.985L493.675 341.32V324.067Z" fill="#3E4359"/>
<path d="M495.579 347.284L458.314 378.506V362.346L495.579 329.775V347.284Z" fill="#2C2F3D"/>
<path d="M493.619 341.32L575.155 364.277V347.714L493.619 323.812V341.32Z" fill="#727894"/>
<path d="M493.675 324.067L580.538 349.354V345.764L493.675 320.477V324.067Z" fill="#9FA5BC"/>
<path d="M493.675 324.067L449.149 360.284V356.694L493.675 320.477V324.067Z" fill="#727894"/>
<path d="M493.675 324.067L449.149 360.284L465.983 363.651L493.675 341.272V324.067Z" fill="#3E4359"/>
<path d="M518.598 345.094L503.344 340.777V330.25L518.598 334.566V345.094Z" fill="#2C2F3D"/>
<path d="M512.325 343.318L518.598 334.566V345.094L512.325 343.318Z" fill="#3E4359"/>
<path d="M542.579 351.995L527.324 347.675V337.147L542.579 341.463V351.995Z" fill="#2C2F3D"/>
<path d="M536.302 350.216L542.579 341.463V351.995L536.302 350.216Z" fill="#3E4359"/>
<path d="M566.265 358.716L551.01 354.4V343.873L566.265 348.189V358.716Z" fill="#2C2F3D"/>
<path d="M559.992 356.941L566.265 348.189V358.716L559.992 356.941Z" fill="#3E4359"/>
<path d="M493.675 393.996H449.149V376.504L493.675 340.291V393.996Z" fill="#1F222B"/>
<path d="M493.675 393.996H580.538V365.574L493.675 340.291V393.996Z" fill="#2C2F3D"/>
<path d="M304.999 393.996H242.516V178.189L304.999 151.71V393.996Z" fill="#3E4359"/>
<path d="M383.179 393.996H471.41V208.969L383.179 151.71V393.996Z" fill="#297B58"/>
<path d="M383.179 151.71V394H304.999V151.71C304.999 151.71 318.186 140.724 383.179 151.71Z" fill="#297B58"/>
<path d="M304.999 197.548L242.516 219.098V393.996H304.999V197.548Z" fill="#3A3E4C"/>
<path d="M383.179 196.914L471.41 241.038V393.996H383.179V196.914Z" fill="#37A475"/>
<path d="M304.999 197.548L383.179 196.914V393.996H304.999V197.548Z" fill="#1C523B"/>
<path d="M304.999 283.709L242.516 295.026V393.996H304.999V283.709Z" fill="#2C2F3D"/>
<path d="M383.179 282.676L471.41 308.984V393.996H383.179V282.676Z" fill="#297B58"/>
<path d="M305.47 283.709L383.179 282.676V393.996H304.999L305.47 283.709Z" fill="#1C523B"/>
<g style="mix-blend-mode:soft-light">
<path d="M383.179 158.256L471.41 213.972" stroke="white" stroke-width="1.01" stroke-miterlimit="10"/>
<path d="M383.179 164.806L471.41 218.974" stroke="white" stroke-width="1.01" stroke-miterlimit="10"/>
<path d="M383.179 171.352L471.41 223.972" stroke="white" stroke-width="1.01" stroke-miterlimit="10"/>
<path d="M383.179 177.902L471.41 228.971" stroke="white" stroke-width="1.01" stroke-miterlimit="10"/>
<path d="M383.179 184.448L471.41 233.973" stroke="white" stroke-width="1.01" stroke-miterlimit="10"/>
<path d="M383.179 190.998L471.41 238.975" stroke="white" stroke-width="1.01" stroke-miterlimit="10"/>
<path d="M383.179 197.544L471.41 243.974" stroke="white" stroke-width="1.01" stroke-miterlimit="10"/>
<path d="M383.179 204.095L471.41 248.976" stroke="white" stroke-width="1.01" stroke-miterlimit="10"/>
<path d="M383.179 210.645L471.41 253.974" stroke="white" stroke-width="1.01" stroke-miterlimit="10"/>
<path d="M383.179 217.191L471.41 258.977" stroke="white" stroke-width="1.01" stroke-miterlimit="10"/>
<path d="M383.179 223.741L471.41 263.979" stroke="white" stroke-width="1.01" stroke-miterlimit="10"/>
<path d="M383.179 230.287L471.41 268.977" stroke="white" stroke-width="1.01" stroke-miterlimit="10"/>
<path d="M383.179 236.837L471.41 273.98" stroke="white" stroke-width="1.01" stroke-miterlimit="10"/>
<path d="M383.179 243.383L471.41 278.982" stroke="white" stroke-width="1.01" stroke-miterlimit="10"/>
<path d="M383.179 249.933L471.41 283.98" stroke="white" stroke-width="1.01" stroke-miterlimit="10"/>
<path d="M383.179 256.484L471.41 288.979" stroke="white" stroke-width="1.01" stroke-miterlimit="10"/>
<path d="M383.179 263.03L471.41 293.981" stroke="white" stroke-width="1.01" stroke-miterlimit="10"/>
<path d="M383.179 269.58L471.41 298.983" stroke="white" stroke-width="1.01" stroke-miterlimit="10"/>
<path d="M383.179 276.126L471.41 303.986" stroke="white" stroke-width="1.01" stroke-miterlimit="10"/>
<path d="M383.179 282.676L471.41 308.984" stroke="white" stroke-width="1.01" stroke-miterlimit="10"/>
<path d="M383.179 289.222L471.41 313.986" stroke="white" stroke-width="1.01" stroke-miterlimit="10"/>
<path d="M383.179 295.772L471.41 318.985" stroke="white" stroke-width="1.01" stroke-miterlimit="10"/>
<path d="M383.179 302.318L471.41 323.987" stroke="white" stroke-width="1.01" stroke-miterlimit="10"/>
<path d="M383.179 308.868L471.41 328.986" stroke="white" stroke-width="1.01" stroke-miterlimit="10"/>
<path d="M383.179 315.415L471.41 333.988" stroke="white" stroke-width="1.01" stroke-miterlimit="10"/>
<path d="M383.179 321.965L471.41 338.99" stroke="white" stroke-width="1.01" stroke-miterlimit="10"/>
<path d="M383.179 328.515L471.41 343.989" stroke="white" stroke-width="1.01" stroke-miterlimit="10"/>
<path d="M383.179 335.061L471.41 348.991" stroke="white" stroke-width="1.01" stroke-miterlimit="10"/>
<path d="M383.179 341.611L471.41 353.993" stroke="white" stroke-width="1.01" stroke-miterlimit="10"/>
<path d="M383.179 348.157L471.41 358.992" stroke="white" stroke-width="1.01" stroke-miterlimit="10"/>
<path d="M383.179 354.707L471.41 363.99" stroke="white" stroke-width="1.01" stroke-miterlimit="10"/>
<path d="M383.179 361.253L471.41 368.992" stroke="white" stroke-width="1.01" stroke-miterlimit="10"/>
<path d="M383.179 367.804L471.41 373.995" stroke="white" stroke-width="1.01" stroke-miterlimit="10"/>
<path d="M383.179 374.354L471.41 378.993" stroke="white" stroke-width="1.01" stroke-miterlimit="10"/>
<path d="M383.179 380.9L471.41 383.995" stroke="white" stroke-width="1.01" stroke-miterlimit="10"/>
<path d="M383.179 387.446L471.41 388.998" stroke="white" stroke-width="1.01" stroke-miterlimit="10"/>
<path d="M305.41 158.256L242.516 184.416" stroke="white" stroke-width="1.01" stroke-miterlimit="10"/>
<path d="M305.41 164.806L242.516 190.236" stroke="white" stroke-width="1.01" stroke-miterlimit="10"/>
<path d="M305.41 171.352L242.516 196.061" stroke="white" stroke-width="1.01" stroke-miterlimit="10"/>
<path d="M305.41 177.902L242.516 201.881" stroke="white" stroke-width="1.01" stroke-miterlimit="10"/>
<path d="M305.41 184.452L242.516 207.705" stroke="white" stroke-width="1.01" stroke-miterlimit="10"/>
<path d="M305.41 191.282L242.516 213.393" stroke="white" stroke-width="1.01" stroke-miterlimit="10"/>
<path d="M305.41 197.548L242.516 219.345" stroke="white" stroke-width="1.01" stroke-miterlimit="10"/>
<path d="M305.41 204.095L242.516 225.169" stroke="white" stroke-width="1.01" stroke-miterlimit="10"/>
<path d="M305.41 210.645L242.516 230.989" stroke="white" stroke-width="1.01" stroke-miterlimit="10"/>
<path d="M305.41 217.191L242.516 236.809" stroke="white" stroke-width="1.01" stroke-miterlimit="10"/>
<path d="M305.41 223.741L242.516 242.633" stroke="white" stroke-width="1.01" stroke-miterlimit="10"/>
<path d="M305.41 230.287L242.516 248.453" stroke="white" stroke-width="1.01" stroke-miterlimit="10"/>
<path d="M305.41 236.837L242.516 254.278" stroke="white" stroke-width="1.01" stroke-miterlimit="10"/>
<path d="M305.41 243.387L242.516 260.098" stroke="white" stroke-width="1.01" stroke-miterlimit="10"/>
<path d="M305.41 249.933L242.516 265.918" stroke="white" stroke-width="1.01" stroke-miterlimit="10"/>
<path d="M305.41 256.484L242.516 271.742" stroke="white" stroke-width="1.01" stroke-miterlimit="10"/>
<path d="M305.41 263.03L242.516 277.562" stroke="white" stroke-width="1.01" stroke-miterlimit="10"/>
<path d="M305.41 269.58L242.516 283.382" stroke="white" stroke-width="1.01" stroke-miterlimit="10"/>
<path d="M305.41 276.126L242.516 289.206" stroke="white" stroke-width="1.01" stroke-miterlimit="10"/>
<path d="M305.41 283.709L242.516 295.026" stroke="white" stroke-width="1.01" stroke-miterlimit="10"/>
<path d="M305.41 289.222L242.516 300.85" stroke="white" stroke-width="1.01" stroke-miterlimit="10"/>
<path d="M305.41 295.772L242.516 306.67" stroke="white" stroke-width="1.01" stroke-miterlimit="10"/>
<path d="M305.41 302.318L242.516 312.495" stroke="white" stroke-width="1.01" stroke-miterlimit="10"/>
<path d="M305.41 308.868L242.516 318.315" stroke="white" stroke-width="1.01" stroke-miterlimit="10"/>
<path d="M305.41 315.419L242.516 324.135" stroke="white" stroke-width="1.01" stroke-miterlimit="10"/>
<path d="M305.41 321.965L242.516 329.959" stroke="white" stroke-width="1.01" stroke-miterlimit="10"/>
<path d="M305.41 328.515L242.516 335.779" stroke="white" stroke-width="1.01" stroke-miterlimit="10"/>
<path d="M305.41 335.061L242.516 341.603" stroke="white" stroke-width="1.01" stroke-miterlimit="10"/>
<path d="M305.41 341.611L242.516 347.423" stroke="white" stroke-width="1.01" stroke-miterlimit="10"/>
<path d="M305.41 348.157L242.516 353.243" stroke="white" stroke-width="1.01" stroke-miterlimit="10"/>
<path d="M305.41 354.707L242.516 359.067" stroke="white" stroke-width="1.01" stroke-miterlimit="10"/>
<path d="M305.41 361.257L242.516 364.887" stroke="white" stroke-width="1.01" stroke-miterlimit="10"/>
<path d="M305.41 367.804L242.516 370.712" stroke="white" stroke-width="1.01" stroke-miterlimit="10"/>
<path d="M305.41 374.354L242.516 376.532" stroke="white" stroke-width="1.01" stroke-miterlimit="10"/>
<path d="M305.41 380.9L242.516 382.352" stroke="white" stroke-width="1.01" stroke-miterlimit="10"/>
<path d="M305.41 387.446L242.516 388.172" stroke="white" stroke-width="1.01" stroke-miterlimit="10"/>
</g>
<path d="M296.679 174.603L254.168 192.857V184.412L296.679 166.158V174.603Z" fill="#9BD2BA"/>
<g style="mix-blend-mode:multiply" opacity="0.4">
<path d="M295.674 393.996H254V220.534L295.674 205.846V393.996Z" fill="#727894"/>
</g>
<path d="M440.011 272.935L460.106 278.041V214.45L440.011 204.557V272.935Z" fill="#3E4359"/>
<path d="M440.011 377.294H460.106V307.317L440.011 303.308V377.294Z" fill="#2C2F3D"/>
<path d="M339.067 161.559H327.292V275.097H339.067V161.559Z" fill="#9BD2BA"/>
<path d="M365.438 382.731L353.663 381.658V263.018L365.438 264.095V382.731Z" fill="#9BD2BA"/>
<path d="M645.02 265.024H616.825V157.977L645.02 144.701V265.024Z" fill="#3E4359"/>
<path d="M645.02 265.024H681.586V154.706L645.02 138.745V265.024Z" fill="#2C2F3D"/>
<g style="mix-blend-mode:soft-light">
<path d="M653.842 142.479V265.024" stroke="white" stroke-width="1.01" stroke-miterlimit="10"/>
<path d="M662.668 146.265V265.024" stroke="white" stroke-width="1.01" stroke-miterlimit="10"/>
<path d="M671.491 149.823V265.024" stroke="white" stroke-width="1.01" stroke-miterlimit="10"/>
<path d="M637.323 150.681V265.024" stroke="white" stroke-width="1.01" stroke-miterlimit="10"/>
<path d="M629.622 154.315V265.024" stroke="white" stroke-width="1.01" stroke-miterlimit="10"/>
</g>
<path d="M609.367 153.796L643.93 135.426V147.613L618.461 159.433V265.024H609.367V153.796Z" fill="#37A475"/>
<path d="M643.93 135.426L683.405 153.433V265.024H680.313V155.615L648.659 142.339V149.065L643.93 147.613V135.426Z" fill="#1C523B"/>
<path d="M621.92 265.024H618.461V159.433L621.92 161.068V265.024Z" fill="#1C523B"/>
<path d="M648.659 149.065L643.93 147.613L618.461 159.433L621.92 161.068L648.659 149.065Z" fill="#9BD2BA"/>
<path d="M644.361 323.692H601.551V245.601L644.361 225.444V323.692Z" fill="#297B58"/>
<path d="M644.361 323.692H699.877V240.631L644.361 216.401V323.692Z" fill="#297B58"/>
<g style="mix-blend-mode:soft-light">
<path d="M657.756 222.073V323.692" stroke="white" stroke-width="1.01" stroke-miterlimit="10"/>
<path d="M671.151 227.818V323.692" stroke="white" stroke-width="1.01" stroke-miterlimit="10"/>
<path d="M684.547 233.219V323.692" stroke="white" stroke-width="1.01" stroke-miterlimit="10"/>
<path d="M632.67 234.52V323.692" stroke="white" stroke-width="1.01" stroke-miterlimit="10"/>
<path d="M620.979 240.036V323.692" stroke="white" stroke-width="1.01" stroke-miterlimit="10"/>
<path d="M644.361 243.682L697.942 266.404" stroke="white" stroke-width="1.01" stroke-miterlimit="10"/>
<path d="M644.361 261.171L697.942 283.558" stroke="white" stroke-width="1.01" stroke-miterlimit="10"/>
<path d="M644.361 243.682L588.766 267.462" stroke="white" stroke-width="1.01" stroke-miterlimit="10"/>
<path d="M644.361 261.171L588.766 284.375" stroke="white" stroke-width="1.01" stroke-miterlimit="10"/>
</g>
<path d="M588.766 239.251L642.705 211.363V229.86L604.04 247.811V323.692H588.766V239.251Z" fill="#1C523B"/>
<path d="M642.705 211.363L702.638 238.7V323.692H697.942V242.011L649.888 221.854V232.074L642.705 229.86V211.363Z" fill="#37A475"/>
<path d="M609.287 323.692H604.04V247.811L609.287 250.296V323.692Z" fill="#9BD2BA"/>
<path d="M649.888 232.074L642.705 229.86L604.04 247.811L609.287 250.296L649.888 232.074Z" fill="#297B58"/>
<path d="M649.888 232.074L642.705 229.86L604.04 247.811L609.287 250.296L649.888 232.074Z" fill="#1C523B"/>
<path d="M643.663 393.996H585.382V319.256L643.663 291.815V393.996Z" fill="#2C2F3D"/>
<path d="M643.663 393.996H719.241V312.491L643.663 279.501V393.996Z" fill="#3E4359"/>
<g style="mix-blend-mode:soft-light">
<path d="M661.898 287.224V393.996" stroke="white" stroke-width="1.01" stroke-miterlimit="10"/>
<path d="M680.137 295.046V393.996" stroke="white" stroke-width="1.01" stroke-miterlimit="10"/>
<path d="M698.373 302.402V393.996" stroke="white" stroke-width="1.01" stroke-miterlimit="10"/>
<path d="M627.742 304.169V393.996" stroke="white" stroke-width="1.01" stroke-miterlimit="10"/>
<path d="M611.829 311.681V393.996" stroke="white" stroke-width="1.01" stroke-miterlimit="10"/>
<path d="M643.663 316.643L716.608 338.444" stroke="white" stroke-width="1.01" stroke-miterlimit="10"/>
<path d="M643.663 344.858L716.608 361.772" stroke="white" stroke-width="1.01" stroke-miterlimit="10"/>
<path d="M643.663 371.821L716.608 381.594" stroke="white" stroke-width="1.01" stroke-miterlimit="10"/>
<path d="M643.663 316.643L569.589 343.701" stroke="white" stroke-width="1.01" stroke-miterlimit="10"/>
<path d="M643.663 344.858L569.589 361.772" stroke="white" stroke-width="1.01" stroke-miterlimit="10"/>
<path d="M643.663 371.821L569.589 381.594" stroke="white" stroke-width="1.01" stroke-miterlimit="10"/>
</g>
<path d="M569.589 306.846L641.408 272.643V297.831L588.766 322.264V393.996H569.589V306.846Z" fill="#37A475"/>
<path d="M641.408 272.643L723 309.858V393.996H716.608V314.369L651.184 286.928V300.834L641.408 297.831V272.643Z" fill="#1C523B"/>
<path d="M651.184 300.834L641.408 297.831L588.766 322.264L595.908 325.647L651.184 300.834Z" fill="#9BD2BA"/>
<path d="M595.908 393.996H588.766V322.264L595.908 325.647V393.996Z" fill="#297B58"/>
<path d="M595.908 393.996H588.766V322.264L595.908 325.647V393.996Z" fill="#1C523B"/>
<path d="M88.6702 393.673L5.19128 393.362L5.75789 239.426L89.3765 201.246L88.6702 393.673Z" fill="#3E4359"/>
<path d="M88.6702 393.673L172.145 393.976L172.712 240.036L89.3764 201.246L88.6702 393.673Z" fill="#9FA5BC"/>
<path d="M88.6702 393.673L0 393.342L0.0359118 383.397L88.7261 377.96L88.6702 393.673Z" fill="#2C2F3D"/>
<path d="M88.6702 393.673L177.336 393.996L177.368 385.204L88.726 377.96L88.6702 393.673Z" fill="#3E4359"/>
<path opacity="0.6" d="M84.8356 252.243L9.04578 278.344L9.12558 256.894L84.9354 225.604L84.8356 252.243Z" fill="#2C2F3D"/>
<path d="M29.8028 268.2L12.3776 274.706L12.4374 257.916L29.8666 250.931L29.8028 268.2Z" fill="#2C2F3D"/>
<path d="M53.6402 259.304L34.8823 266.305L34.9462 248.892L53.7081 241.377L53.6402 259.304Z" fill="#2C2F3D"/>
<path d="M79.3649 249.702L59.1187 257.261L59.1825 239.183L79.4328 231.065L79.3649 249.702Z" fill="#2C2F3D"/>
<path opacity="0.6" d="M84.6441 303.699L8.89014 320.142L8.96994 298.692L84.7438 277.059L84.6441 303.699Z" fill="#2C2F3D"/>
<path d="M29.6391 312.642L12.2219 316.93L12.2818 300.136L29.703 295.373L29.6391 312.642Z" fill="#2C2F3D"/>
<path d="M53.4645 306.782L34.7146 311.394L34.7784 293.985L53.5324 288.855L53.4645 306.782Z" fill="#2C2F3D"/>
<path d="M79.1815 300.459L58.9392 305.438L59.007 287.359L79.2493 281.822L79.1815 300.459Z" fill="#2C2F3D"/>
<path opacity="0.6" d="M84.4565 355.226L8.7345 363.092L8.8143 341.647L84.5522 328.591L84.4565 355.226Z" fill="#2C2F3D"/>
<path d="M29.4716 357.946L12.0624 360.256L12.1222 343.466L29.5355 340.674L29.4716 357.946Z" fill="#2C2F3D"/>
<path d="M53.2891 354.779L34.5471 357.268L34.611 339.86L53.3569 336.852L53.2891 354.779Z" fill="#2C2F3D"/>
<path d="M78.9941 351.368L58.7598 354.053L58.8276 335.974L79.0619 332.727L78.9941 351.368Z" fill="#2C2F3D"/>
<path d="M94.6675 252.279L170.262 278.934L170.342 257.489L94.7672 225.644L94.6675 252.279Z" fill="#727894"/>
<path d="M149.581 268.642L166.962 275.272L167.022 258.482L149.644 251.369L149.581 268.642Z" fill="#3E4359"/>
<path d="M125.811 259.567L144.517 266.708L144.581 249.295L125.875 241.64L125.811 259.567Z" fill="#3E4359"/>
<path d="M100.154 249.778L120.348 257.485L120.416 239.406L100.226 231.141L100.154 249.778Z" fill="#3E4359"/>
<path d="M94.4797 303.734L170.11 320.736L170.19 299.287L94.5755 277.095L94.4797 303.734Z" fill="#727894"/>
<path d="M149.417 313.085L166.806 317.497L166.866 300.707L149.481 295.812L149.417 313.085Z" fill="#3E4359"/>
<path d="M125.635 307.049L144.349 311.796L144.417 294.388L125.699 289.118L125.635 307.049Z" fill="#3E4359"/>
<path d="M99.9702 300.535L120.173 305.661L120.236 287.583L100.038 281.898L99.9702 300.535Z" fill="#3E4359"/>
<path d="M94.2883 355.262L169.95 363.691L170.03 342.237L94.3881 328.626L94.2883 355.262Z" fill="#727894"/>
<path d="M149.253 358.385L166.646 360.827L166.706 344.036L149.317 341.116L149.253 358.385Z" fill="#3E4359"/>
<path d="M125.456 355.046L144.182 357.675L144.246 340.259L125.524 337.115L125.456 355.046Z" fill="#3E4359"/>
<path d="M99.7788 351.444L119.993 354.276L120.057 336.198L99.8506 332.803L99.7788 351.444Z" fill="#3E4359"/>
<path d="M88.9575 315.279L172.373 332.205" stroke="#3E4359" stroke-width="1.01" stroke-miterlimit="10"/>
<path d="M89.157 261.458L172.532 289.553" stroke="#3E4359" stroke-width="1.01" stroke-miterlimit="10"/>
<path d="M88.774 365.378L5.26709 372.822" stroke="#727894" stroke-width="1.01" stroke-miterlimit="10"/>
<path d="M88.7739 365.378L171.598 374.186" stroke="#3E4359" stroke-width="1.01" stroke-miterlimit="10"/>
<path d="M88.9575 315.279L5.4187 330.848" stroke="#727894" stroke-width="1.01" stroke-miterlimit="10"/>
<path d="M89.157 261.458L5.57434 289.214" stroke="#727894" stroke-width="1.01" stroke-miterlimit="10"/>
</svg>
