<svg width="106" height="87" viewBox="0 0 106 87" fill="none" xmlns="http://www.w3.org/2000/svg">
<g id="Logo RoomMatch">
<path id="Vector" d="M83.8756 66.1429C83.8552 66.615 83.833 67.0871 83.8126 67.5573C83.603 67.4556 83.3619 67.3903 83.1895 67.2468C76.4742 61.6382 69.7978 55.9823 63.0288 50.4372C61.4543 49.1481 60.2303 46.9929 57.977 46.9729C48.7692 46.8912 39.5615 47.0092 30.3518 47.0583C30.159 47.0601 29.9679 47.1109 29.8029 47.209C24.5249 50.3229 19.7235 54.1067 14.6699 57.5384C13.3624 58.4262 12.0717 59.3414 10.7902 60.2474C10.0762 60.7521 9.11553 60.2238 9.12295 59.3595C9.12295 59.3541 9.12295 59.3486 9.12295 59.3432C9.10255 43.7374 9.13964 28.1316 9.06361 12.5258C9.05433 10.701 9.53651 10.3306 11.3132 10.6574C15.8475 11.4926 20.4078 12.1899 24.7586 13.7677C25.4151 14.0055 26.0641 14.2779 26.6854 14.5938C30.7951 16.6855 30.9861 18.8734 27.303 21.5661C27.0526 21.7494 26.793 21.9219 26.5352 22.0944C22.4385 24.8415 22.4812 27.0585 26.8523 29.5024C33.2319 33.0684 40.3608 34.6862 47.319 36.7234C54.2049 38.7388 61.1798 40.4655 67.9006 43.0093C78.3027 46.9457 83.6364 54.3192 83.8645 65.226C83.8682 65.5274 83.8719 65.8342 83.8756 66.1429Z" fill="white"/>
<path id="Vector_2" d="M30.0537 47.0615C39.3598 47.0142 48.6677 46.8926 57.9738 46.9743C60.2289 46.9943 61.4529 49.1495 63.0255 50.4386C69.7964 55.9837 76.4709 61.6396 83.1862 67.2482C83.3587 67.3917 83.5998 67.457 83.8093 67.5587C86.9732 70.974 90.8028 73.654 94.3264 76.6716C97.889 79.722 101.494 82.7251 105.645 86.2221C102.423 86.2221 99.9549 86.2221 97.4866 86.2221C91.2201 86.2239 84.9536 86.2258 78.6871 86.2239C77.6764 86.2239 76.7194 86.2421 75.8348 85.4958C60.5887 72.668 45.3184 59.8675 30.0537 47.0615Z" fill="white"/>
<path id="Vector_3" d="M0 8.51977C2.32003 7.64279 4.74576 7.55201 7.13626 7.3541C8.55498 7.23608 9.1577 6.93105 9.15214 5.35866C9.13545 0.772247 9.2189 0.775879 13.8812 0.775879C26.57 0.777695 39.2587 0.777694 51.9474 0.777694C59.7309 0.777694 66.8431 2.54617 72.4456 8.25468C77.9481 13.8615 79.9101 20.5124 78.3672 28.1019C78.1131 29.3493 78.4247 29.8777 79.4836 30.4169C80.6204 30.9961 81.7128 31.6552 82.794 32.327C83.4319 32.7228 84.0792 33.1023 84.667 33.5689C85.0546 33.8758 85.4385 34.1881 85.8224 34.4986C86.0134 34.6547 86.2063 34.8109 86.3973 34.9652C86.4938 35.0433 86.5902 35.1213 86.6866 35.1976C86.7627 35.2593 86.8239 35.3392 86.911 35.3846C85.7093 35.1431 84.5891 34.5912 83.4876 34.0864C83.0629 33.8921 82.6382 33.6942 82.2061 33.5163C72.0655 29.3602 61.5428 26.4805 50.7995 24.289C49.1786 23.9585 46.9068 24.2036 46.2744 22.4406C45.6717 20.7611 47.8489 20.0457 48.8077 18.9291C50.5213 16.9318 50.3878 15.6427 47.9454 14.3935C44.1491 12.4544 39.9542 11.7626 35.7963 11.0436C23.9588 9.00274 12.0359 8.084 0 8.51977Z" fill="white"/>
<path id="Vector_4" d="M83.8754 66.1424C83.8717 65.8337 83.868 65.5269 83.8643 65.2236C83.868 65.5341 83.8717 65.8391 83.8754 66.1424Z" fill="white"/>
<path id="Vector_5" d="M35.6052 74.0894H30.6777V78.9136H35.6052V74.0894Z" fill="white"/>
<path id="Vector_6" d="M35.6052 80.8604H30.6777V85.6846H35.6052V80.8604Z" fill="white"/>
<path id="Vector_7" d="M28.6316 80.8604H23.7041V85.6846H28.6316V80.8604Z" fill="white"/>
<path id="Vector_8" d="M28.6316 74.0894H23.7041V78.9136H28.6316V74.0894Z" fill="white"/>
</g>
</svg>
