<svg width="68" height="55" viewBox="0 0 68 55" fill="none" xmlns="http://www.w3.org/2000/svg">
<g id="Logo RoomMatch">
<path id="Vector" d="M53.9872 42.0738C53.9741 42.3777 53.9597 42.6815 53.9466 42.9842C53.8117 42.9188 53.6565 42.8767 53.5455 42.7844C49.2232 39.1743 44.9259 35.5339 40.5689 31.9647C39.5554 31.1349 38.7676 29.7477 37.3173 29.7348C31.3906 29.6823 25.4639 29.7582 19.536 29.7898C19.4119 29.7909 19.2889 29.8237 19.1827 29.8868C15.7854 31.8911 12.6949 34.3266 9.44212 36.5354C8.60056 37.1069 7.76975 37.6959 6.94491 38.2791C6.48534 38.604 5.867 38.2639 5.87178 37.7076C5.87178 37.7041 5.87178 37.7006 5.87178 37.6971C5.85865 27.6522 5.88252 17.6074 5.83358 7.56254C5.82761 6.38801 6.13797 6.1496 7.28153 6.35996C10.2001 6.89756 13.1354 7.34634 15.9358 8.36192C16.3584 8.51502 16.7762 8.69032 17.1761 8.89367C19.8213 10.24 19.9442 11.6483 17.5736 13.3814C17.4124 13.4995 17.2453 13.6105 17.0794 13.7215C14.4425 15.4897 14.47 16.9167 17.2835 18.4898C21.3898 20.785 25.9784 21.8264 30.4571 23.1376C34.8893 24.4349 39.3788 25.5463 43.7047 27.1836C50.4002 29.7173 53.8332 34.4633 53.98 41.4836C53.9824 41.6776 53.9848 41.8752 53.9872 42.0738Z" fill="#37A475"/>
<path id="Vector_2" d="M19.345 29.7921C25.3349 29.7618 31.3261 29.6835 37.316 29.736C38.7676 29.7489 39.5554 31.1361 40.5677 31.9659C44.9258 35.5351 49.2219 39.1755 53.5443 42.7856C53.6553 42.8779 53.8105 42.92 53.9454 42.9854C55.9818 45.1837 58.4468 46.9087 60.7148 48.8511C63.0079 50.8145 65.3285 52.7475 68 54.9983C65.9265 54.9983 64.3377 54.9983 62.7489 54.9983C58.7154 54.9995 54.6819 55.0007 50.6484 54.9995C49.9978 54.9995 49.3819 55.0112 48.8125 54.5309C38.9991 46.2741 29.1703 38.0349 19.345 29.7921Z" fill="#D7EDE3"/>
<path id="Vector_3" d="M0 4.98444C1.49331 4.41997 3.05466 4.36153 4.59334 4.23415C5.50651 4.15818 5.89446 3.96184 5.89088 2.94976C5.88014 -0.00233765 5.93385 5.84468e-09 8.9348 5.84468e-09C17.1021 0.00116869 25.2693 0.00116805 33.4366 0.00116805C38.4465 0.00116805 43.0243 1.13947 46.6305 4.81382C50.1722 8.42272 51.4351 12.7036 50.4419 17.5887C50.2784 18.3916 50.4789 18.7317 51.1605 19.0788C51.8923 19.4516 52.5954 19.8758 53.2913 20.3082C53.7019 20.563 54.1185 20.8073 54.4969 21.1076C54.7464 21.3051 54.9935 21.5061 55.2406 21.706C55.3635 21.8065 55.4877 21.907 55.6106 22.0063C55.6727 22.0566 55.7348 22.1069 55.7968 22.1559C55.8458 22.1957 55.8852 22.2471 55.9413 22.2763C55.1678 22.1209 54.4468 21.7656 53.7377 21.4407C53.4644 21.3157 53.191 21.1883 52.9129 21.0737C46.3858 18.3986 39.6127 16.5451 32.6977 15.1345C31.6544 14.9218 30.1921 15.0795 29.7851 13.9448C29.3971 12.8637 30.7985 12.4033 31.4156 11.6845C32.5186 10.399 32.4327 9.5692 30.8606 8.76514C28.4171 7.51698 25.7169 7.07172 23.0407 6.60892C15.4213 5.29531 7.74708 4.70396 0 4.98444Z" fill="#37A475"/>
<path id="Vector_4" d="M53.9873 42.0738C53.9849 41.8752 53.9825 41.6777 53.9801 41.4825C53.9825 41.6823 53.9849 41.8787 53.9873 42.0738Z" fill="#B07B42"/>
<path id="Vector_5" d="M22.9177 47.1892H19.7461V50.2944H22.9177V47.1892Z" fill="#37A475"/>
<path id="Vector_6" d="M22.9177 51.5472H19.7461V54.6524H22.9177V51.5472Z" fill="#37A475"/>
<path id="Vector_7" d="M18.4295 51.5472H15.2578V54.6524H18.4295V51.5472Z" fill="#37A475"/>
<path id="Vector_8" d="M18.4295 47.1892H15.2578V50.2944H18.4295V47.1892Z" fill="#37A475"/>
</g>
</svg>
