<svg width="356" height="301" viewBox="0 0 356 301" fill="none" xmlns="http://www.w3.org/2000/svg">
<path d="M69.7191 35.6069C69.0006 35.6863 68.3082 35.9224 67.6908 36.2987C67.0733 36.6749 66.5458 37.1822 66.1453 37.7846C65.7448 38.3871 65.4811 39.0701 65.3728 39.7857C65.2645 40.5012 65.3143 41.2318 65.5185 41.926L51.2227 52.1537L59.7441 55.4368L72.0132 45.2211C73.1553 44.8003 74.1036 43.9747 74.6783 42.9007C75.253 41.8266 75.4142 40.5789 75.1314 39.3938C74.8486 38.2087 74.1415 37.1687 73.1439 36.4707C72.1464 35.7728 70.9278 35.4654 69.7191 35.6069Z" fill="#FFB8B8"/>
<path d="M68.3903 51.0128L50.6577 68.8762C48.2275 71.3085 45.023 72.8116 41.6009 73.1243L19.6892 75.1259C18.886 75.2026 18.0754 75.1174 17.3056 74.8752C16.5358 74.633 15.8223 74.2387 15.2072 73.7157C14.3563 73.0027 13.7236 72.0638 13.3817 71.0069C13.0398 69.95 13.0026 68.818 13.2744 67.7409C13.5462 66.6638 14.116 65.6853 14.9183 64.9179C15.7206 64.1504 16.7228 63.6251 17.8099 63.4022L40.1951 58.6302L60.5752 43.5896C60.8585 43.4299 61.1786 43.3472 61.5037 43.3497C61.8288 43.3521 62.1477 43.4396 62.4286 43.6034L67.9709 48.149C68.3043 48.3319 68.5722 48.6148 68.7369 48.9579C68.9016 49.3011 68.9549 49.6872 68.8892 50.0622C68.8246 50.4229 68.6504 50.7548 68.3903 51.0128Z" fill="#2F2E41"/>
<path d="M280.993 60.6128C281.125 59.3934 280.879 58.1628 280.288 57.0884C279.697 56.014 278.79 55.1478 277.69 54.6075L167.333 0.605992C166.631 0.262247 165.869 0.0602552 165.089 0.0115558C164.309 -0.0371435 163.528 0.0683991 162.789 0.322159C162.05 0.57592 161.368 0.97293 160.782 1.49052C160.196 2.0081 159.718 2.63613 159.375 3.33875L159.373 3.34289L117.982 88.1298C117.291 89.55 117.191 91.1865 117.703 92.6805C118.215 94.1745 119.299 95.4041 120.715 96.0997L231.072 150.101C232.491 150.793 234.125 150.893 235.618 150.38C237.11 149.867 238.338 148.783 239.033 147.364L280.424 62.5774C280.726 61.9607 280.919 61.2959 280.993 60.6128Z" fill="#F2F2F2"/>
<path d="M216.341 248.798H73.1474C71.3446 248.796 69.6162 248.078 68.3415 246.802C67.0667 245.526 66.3497 243.795 66.3477 241.99V47.3683C66.3497 45.5634 67.0667 43.833 68.3415 42.5567C69.6162 41.2805 71.3446 40.5626 73.1474 40.5605H216.341C218.144 40.5626 219.873 41.2805 221.147 42.5567C222.422 43.833 223.139 45.5634 223.141 47.3683V241.99C223.139 243.795 222.422 245.526 221.147 246.802C219.873 248.078 218.144 248.796 216.341 248.798Z" fill="white"/>
<path d="M111.127 98.5943C116.287 98.5943 120.47 94.4067 120.47 89.241C120.47 84.0753 116.287 79.8877 111.127 79.8877C105.968 79.8877 101.785 84.0753 101.785 89.241C101.785 94.4067 105.968 98.5943 111.127 98.5943Z" fill="#E6E6E6"/>
<path d="M96.8887 114.805C98.2088 115.556 99.5903 116.193 101.018 116.71L101.271 116.798C104.147 117.809 107.174 118.323 110.223 118.32C110.836 118.32 111.427 118.299 111.979 118.257C113.323 118.174 114.658 117.99 115.973 117.705C116.695 117.547 117.415 117.358 118.111 117.145C118.28 117.095 118.436 117.046 118.606 116.992C121.444 116.071 124.111 114.688 126.499 112.898C126.307 112.535 126.097 112.182 125.87 111.84C124.642 109.961 122.966 108.419 120.992 107.353C119.019 106.286 116.812 105.729 114.569 105.732H109.652C107.059 105.733 104.52 106.48 102.339 107.884C100.157 109.288 98.4246 111.29 97.3475 113.652C97.1753 114.028 97.0221 114.413 96.8887 114.805Z" fill="#E6E6E6"/>
<path d="M114.297 117.473C113.983 117.496 113.681 117.602 113.422 117.78C114.74 117.698 116.05 117.516 117.341 117.235L114.297 117.473Z" fill="#2F2E41"/>
<path d="M111.694 63.8594C105.677 63.86 99.8283 65.8492 95.0562 69.5181C90.284 73.1871 86.855 78.3307 85.3014 84.1505C83.7479 89.9703 84.1566 96.1408 86.4643 101.704C88.772 107.268 92.8494 111.913 98.0638 114.919C99.448 115.721 100.901 116.398 102.406 116.942L102.661 117.03C105.563 118.051 108.618 118.57 111.694 118.566C112.289 118.566 112.884 118.547 113.469 118.502C114.823 118.419 116.169 118.233 117.496 117.946C118.238 117.784 118.966 117.592 119.654 117.38C119.821 117.331 119.979 117.281 120.151 117.227C126.335 115.211 131.598 111.052 134.993 105.498C138.389 99.9445 139.694 93.3603 138.675 86.9293C137.656 80.4982 134.379 74.642 129.433 70.4133C124.488 66.1846 118.198 63.8607 111.694 63.8594ZM127.546 111.704C125.189 113.525 122.536 114.925 119.703 115.844C119.551 115.893 119.394 115.942 119.236 115.992C118.582 116.194 117.894 116.371 117.186 116.523C115.931 116.798 114.657 116.975 113.375 117.055C112.82 117.094 112.254 117.114 111.694 117.114C108.782 117.116 105.891 116.625 103.143 115.662L102.902 115.578C101.406 115.04 99.9635 114.361 98.5949 113.55C93.8282 110.74 90.0873 106.474 87.9219 101.378C85.7565 96.2822 85.2808 90.6253 86.5647 85.2386C87.8486 79.8519 90.8243 75.0195 95.0547 71.4515C99.285 67.8836 104.547 65.7682 110.067 65.4162C115.587 65.0642 121.075 66.4941 125.723 69.496C130.371 72.4978 133.935 76.9132 135.891 82.0933C137.847 87.2734 138.092 92.9451 136.59 98.2749C135.088 103.605 131.918 108.312 127.546 111.704Z" fill="#CCCCCC"/>
<path d="M216.341 248.798H73.1474C71.3446 248.796 69.6162 248.078 68.3415 246.802C67.0667 245.526 66.3497 243.795 66.3477 241.99V47.3683C66.3497 45.5634 67.0667 43.833 68.3415 42.5567C69.6162 41.2805 71.3446 40.5626 73.1474 40.5605H216.341C218.144 40.5626 219.873 41.2805 221.147 42.5567C222.422 43.833 223.139 45.5634 223.141 47.3683V241.99C223.139 243.795 222.422 245.526 221.147 246.802C219.873 248.078 218.144 248.796 216.341 248.798ZM73.1474 41.3615C71.5567 41.3633 70.0317 41.9967 68.9069 43.1228C67.7821 44.2489 67.1494 45.7758 67.1476 47.3683V241.99C67.1494 243.583 67.7821 245.11 68.9069 246.236C70.0317 247.362 71.5567 247.995 73.1474 247.997H216.341C217.932 247.995 219.457 247.362 220.582 246.236C221.707 245.11 222.339 243.583 222.341 241.99V47.3683C222.339 45.7758 221.707 44.2489 220.582 43.1228C219.457 41.9967 217.932 41.3633 216.341 41.3615L73.1474 41.3615Z" fill="#CCCCCC"/>
<path d="M188.621 91.1071H148.102C147.252 91.1071 146.437 90.769 145.835 90.1671C145.234 89.5652 144.896 88.7489 144.896 87.8978C144.896 87.0466 145.234 86.2303 145.835 85.6285C146.437 85.0266 147.252 84.6885 148.102 84.6885H188.621C189.471 84.6885 190.286 85.0266 190.888 85.6285C191.489 86.2303 191.827 87.0466 191.827 87.8978C191.827 88.7489 191.489 89.5652 190.888 90.1671C190.286 90.769 189.471 91.1071 188.621 91.1071Z" fill="#E6E6E6"/>
<path d="M201.844 101.939H148.102C147.252 101.939 146.437 101.601 145.835 100.999C145.234 100.397 144.896 99.581 144.896 98.7298C144.896 97.8787 145.234 97.0624 145.835 96.4605C146.437 95.8586 147.252 95.5205 148.102 95.5205H201.844C202.694 95.5205 203.509 95.8586 204.11 96.4605C204.712 97.0624 205.049 97.8787 205.049 98.7298C205.049 99.581 204.712 100.397 204.11 100.999C203.509 101.601 202.694 101.939 201.844 101.939Z" fill="#E6E6E6"/>
<path d="M188.562 143.482H87.6459C86.7958 143.482 85.9805 143.144 85.3793 142.542C84.7782 141.94 84.4404 141.124 84.4404 140.273C84.4404 139.422 84.7782 138.605 85.3793 138.003C85.9805 137.402 86.7958 137.063 87.6459 137.063H188.562C189.413 137.063 190.228 137.402 190.829 138.003C191.43 138.605 191.768 139.422 191.768 140.273C191.768 141.124 191.43 141.94 190.829 142.542C190.228 143.144 189.413 143.482 188.562 143.482Z" fill="#E6E6E6"/>
<path d="M201.785 154.313H87.6459C86.7958 154.313 85.9805 153.975 85.3793 153.373C84.7782 152.771 84.4404 151.955 84.4404 151.104C84.4404 150.253 84.7782 149.436 85.3793 148.835C85.9805 148.233 86.7958 147.895 87.6459 147.895H201.785C202.635 147.895 203.451 148.233 204.052 148.835C204.653 149.436 204.991 150.253 204.991 151.104C204.991 151.955 204.653 152.771 204.052 153.373C203.451 153.975 202.635 154.313 201.785 154.313Z" fill="#E6E6E6"/>
<path d="M188.562 179.208H87.6459C86.7958 179.208 85.9805 178.87 85.3793 178.268C84.7782 177.666 84.4404 176.85 84.4404 175.998C84.4404 175.147 84.7782 174.331 85.3793 173.729C85.9805 173.127 86.7958 172.789 87.6459 172.789H188.562C189.413 172.789 190.228 173.127 190.829 173.729C191.43 174.331 191.768 175.147 191.768 175.998C191.768 176.85 191.43 177.666 190.829 178.268C190.228 178.87 189.413 179.208 188.562 179.208Z" fill="#E6E6E6"/>
<path d="M201.785 190.04H87.6459C86.7958 190.04 85.9805 189.702 85.3793 189.1C84.7782 188.498 84.4404 187.682 84.4404 186.83C84.4404 185.979 84.7782 185.163 85.3793 184.561C85.9805 183.959 86.7958 183.621 87.6459 183.621H201.785C202.635 183.621 203.451 183.959 204.052 184.561C204.653 185.163 204.991 185.979 204.991 186.83C204.991 187.682 204.653 188.498 204.052 189.1C203.451 189.702 202.635 190.04 201.785 190.04Z" fill="#E6E6E6"/>
<path d="M188.562 214.934H87.6459C86.7958 214.934 85.9805 214.596 85.3793 213.994C84.7782 213.392 84.4404 212.576 84.4404 211.725C84.4404 210.874 84.7782 210.057 85.3793 209.456C85.9805 208.854 86.7958 208.516 87.6459 208.516H188.562C189.413 208.516 190.228 208.854 190.829 209.456C191.43 210.057 191.768 210.874 191.768 211.725C191.768 212.576 191.43 213.392 190.829 213.994C190.228 214.596 189.413 214.934 188.562 214.934Z" fill="#E6E6E6"/>
<path d="M201.785 225.765H87.6459C86.7958 225.765 85.9805 225.427 85.3793 224.825C84.7782 224.223 84.4404 223.407 84.4404 222.556C84.4404 221.705 84.7782 220.889 85.3793 220.287C85.9805 219.685 86.7958 219.347 87.6459 219.347H201.785C202.635 219.348 203.449 219.686 204.049 220.288C204.65 220.89 204.987 221.706 204.987 222.556C204.987 223.406 204.65 224.222 204.049 224.824C203.449 225.426 202.635 225.764 201.785 225.765Z" fill="#E6E6E6"/>
<path d="M276.076 116.241C276.208 115.021 275.962 113.791 275.371 112.716C274.78 111.642 273.873 110.776 272.773 110.235L162.416 56.2339C161.714 55.8902 160.952 55.6882 160.172 55.6395C159.392 55.5908 158.611 55.6963 157.872 55.9501C157.133 56.2038 156.451 56.6009 155.865 57.1184C155.279 57.636 154.801 58.2641 154.458 58.9667L154.456 58.9708L113.065 143.758C112.374 145.178 112.274 146.814 112.786 148.308C113.298 149.802 114.382 151.032 115.798 151.728L226.155 205.729C227.574 206.421 229.208 206.521 230.701 206.008C232.193 205.495 233.421 204.41 234.116 202.992L275.507 118.205C275.809 117.589 276.002 116.924 276.076 116.241Z" fill="white"/>
<path d="M276.076 116.241C276.208 115.021 275.962 113.791 275.371 112.716C274.78 111.642 273.873 110.776 272.773 110.235L162.416 56.2339C161.714 55.8902 160.952 55.6882 160.172 55.6395C159.392 55.5908 158.611 55.6963 157.872 55.9501C157.133 56.2038 156.451 56.6009 155.865 57.1184C155.279 57.636 154.801 58.2641 154.458 58.9667L154.456 58.9708L113.065 143.758C112.374 145.178 112.274 146.814 112.786 148.308C113.298 149.802 114.382 151.032 115.798 151.728L226.155 205.729C227.574 206.421 229.208 206.521 230.701 206.008C232.193 205.495 233.421 204.41 234.116 202.992L275.507 118.205C275.809 117.589 276.002 116.924 276.076 116.241ZM233.487 202.684C232.874 203.936 231.79 204.893 230.474 205.346C229.157 205.799 227.714 205.71 226.463 205.099L116.106 151.098C114.856 150.484 113.9 149.399 113.447 148.081C112.995 146.763 113.084 145.319 113.694 144.066L155.085 59.2787C155.698 58.0271 156.781 57.07 158.098 56.6173C159.415 56.1646 160.857 56.2532 162.109 56.8637L272.466 110.865C273.716 111.479 274.672 112.564 275.124 113.882C275.576 115.2 275.488 116.645 274.878 117.898L233.487 202.684Z" fill="#3F3D56"/>
<path d="M264.039 120.096L235.137 179.3C234.944 179.695 234.602 179.998 234.187 180.141C233.771 180.284 233.316 180.255 232.922 180.062L132.537 130.941C132.465 130.906 132.396 130.866 132.331 130.82C132.002 130.595 131.765 130.26 131.663 129.875C131.561 129.489 131.601 129.08 131.776 128.722L160.678 69.5176C160.773 69.3219 160.906 69.1469 161.069 69.0027C161.232 68.8585 161.422 68.7478 161.628 68.677C161.833 68.6062 162.051 68.5767 162.268 68.5901C162.485 68.6035 162.698 68.6595 162.893 68.7551L263.278 117.877C263.673 118.07 263.975 118.412 264.117 118.828C264.26 119.244 264.232 119.7 264.04 120.095L264.039 120.096Z" fill="#E6E6E6"/>
<path d="M175.909 117.089C183.938 117.089 190.447 110.572 190.447 102.534C190.447 94.495 183.938 87.9785 175.909 87.9785C167.88 87.9785 161.371 94.495 161.371 102.534C161.371 110.572 167.88 117.089 175.909 117.089Z" fill="#37A475"/>
<path d="M197.195 162.874L133.121 131.52C133.04 131.482 132.963 131.436 132.891 131.384L188.85 93.6589C189.195 93.4221 189.596 93.2812 190.013 93.2505C190.43 93.2198 190.848 93.3005 191.224 93.4843C191.599 93.6681 191.919 93.9484 192.151 94.2966C192.383 94.6448 192.519 95.0485 192.544 95.4663L195.665 140.686L195.816 142.85L197.195 162.874Z" fill="#3F3D56"/>
<path opacity="0.2" d="M197.195 162.874L175.318 152.169L193.682 141.806L195.004 141.06L195.665 140.687L195.815 142.851L197.195 162.874Z" fill="black"/>
<path d="M232.871 180.332L177.452 153.213L195.815 142.851L197.137 142.104L221.067 128.599C222.636 127.714 224.883 128.711 225.393 130.404C225.427 130.519 225.453 130.636 225.472 130.754L232.871 180.332Z" fill="#3F3D56"/>
<path d="M61.8775 185.499L67.9052 185.499L70.7732 162.22L61.876 162.22L61.8775 185.499Z" fill="#FFB8B8"/>
<path d="M60.3389 183.529L72.2103 183.528C73.2038 183.528 74.1881 183.724 75.106 184.105C76.0239 184.485 76.8579 185.043 77.5604 185.747C78.2629 186.45 78.8202 187.285 79.2004 188.204C79.5806 189.123 79.7763 190.108 79.7762 191.103V191.349L60.3392 191.349L60.3389 183.529Z" fill="#2F2E41"/>
<path d="M15.0225 181.656L21.268 182.879L28.9522 159.343L19.7349 157.538L15.0225 181.656Z" fill="#FFB8B8"/>
<path d="M13.8282 179.303L26.1276 181.711L26.1281 181.712C27.1575 181.913 28.137 182.316 29.011 182.896C29.8849 183.477 30.636 184.224 31.2215 185.096C31.8069 185.967 32.2152 186.945 32.423 187.974C32.6309 189.004 32.6342 190.064 32.4328 191.094L32.383 191.349L12.2451 187.405L13.8282 179.303Z" fill="#2F2E41"/>
<path d="M70.6476 105.198C70.4435 104.504 70.0898 103.863 69.6115 103.32C69.1332 102.777 68.5419 102.346 67.8793 102.057C67.2166 101.768 66.4987 101.628 65.7761 101.647C65.0535 101.666 64.3438 101.843 63.697 102.166L51.1321 89.8691L49.3984 98.8443L61.5961 109.146C62.2102 110.197 63.1884 110.987 64.3453 111.365C65.5023 111.743 66.7575 111.683 67.8732 111.197C68.9889 110.71 69.8876 109.831 70.3989 108.725C70.9103 107.619 70.9987 106.364 70.6476 105.198Z" fill="#FFB8B8"/>
<path d="M24.0297 41.9044C30.6994 41.9044 36.1063 36.4911 36.1063 29.8135C36.1063 23.1359 30.6994 17.7227 24.0297 17.7227C17.36 17.7227 11.9531 23.1359 11.9531 29.8135C11.9531 36.4911 17.36 41.9044 24.0297 41.9044Z" fill="#FFB8B8"/>
<path d="M21.4941 42.0904C22.1357 42.3715 23.4497 37.2526 22.8611 36.2288C21.9858 34.7062 22.0375 34.7172 21.4564 33.7098C20.8753 32.7025 20.7453 31.3237 21.4978 30.4373C22.2503 29.551 23.9917 29.6686 24.3351 30.7799C24.1142 28.6691 26.1995 26.9723 28.2652 26.4955C30.3309 26.0187 32.5098 26.3147 34.5868 25.8904C36.9973 25.398 39.5053 23.375 38.5436 20.7211C38.3785 20.2793 38.1314 19.8727 37.8153 19.5229C36.7042 18.272 35.1498 17.7379 33.63 17.2215C30.4684 16.1471 27.2203 15.0592 23.8836 15.1778C21.1343 15.3218 18.4866 16.265 16.2644 17.892C14.0422 19.519 12.342 21.7593 11.3717 24.3388C11.1418 24.9841 10.9636 25.6467 10.839 26.3204C9.69373 32.4858 13.2698 38.5672 19.078 40.915L21.4941 42.0904Z" fill="#2F2E41"/>
<path d="M18.5285 108.51C18.2205 108.324 17.9737 108.051 17.8184 107.726C17.6631 107.401 17.6061 107.037 17.6544 106.68L12.2049 79.6536L6.68101 58.9116C6.07458 56.6388 6.25785 54.2271 7.20053 52.0722C8.14321 49.9173 9.78945 48.1471 11.8691 47.0522L15.521 43.5928L23.4876 47.0291L27.2732 50.8827C29.9884 52.2063 32.3969 54.0841 34.344 56.3953C36.291 58.7065 37.7336 61.3999 38.5789 64.3026L44.6505 85.1038L58.6724 105.99C58.9065 106.338 59.016 106.755 58.983 107.173C58.95 107.591 58.7765 107.986 58.4907 108.293C56.5401 110.394 18.5285 108.51 18.5285 108.51Z" fill="#2F2E41"/>
<path d="M55.2652 106.59L34.589 92.2449C31.7709 90.2762 29.7308 87.3813 28.823 84.0632L23.0111 62.8168C22.7948 62.0385 22.7364 61.2247 22.8396 60.4234C22.9427 59.6221 23.2052 58.8497 23.6116 58.1517C24.1635 57.1879 24.9757 56.3996 25.955 55.8772C26.9343 55.3548 28.0409 55.1196 29.1478 55.1985C30.2546 55.2775 31.3167 55.6675 32.2121 56.3236C33.1075 56.9798 33.7999 57.8755 34.2097 58.9079L42.8289 80.135L61.1938 97.5845C61.4005 97.8358 61.538 98.1367 61.5926 98.4576C61.6472 98.7785 61.6172 99.1081 61.5053 99.4137L58.0078 105.674C57.8863 106.035 57.6552 106.348 57.3466 106.571C57.0381 106.793 56.6678 106.914 56.2875 106.915C55.9215 106.914 55.5645 106.801 55.2652 106.59Z" fill="#2F2E41"/>
<path d="M12.3106 178.053C12.1416 177.811 12.0333 177.531 11.995 177.238C11.9567 176.945 11.9895 176.646 12.0906 176.368L21.6558 141.555L22.3629 107.442L54.5623 105.231L54.7186 105.221L64.4169 122.819C67.4533 128.321 69.312 134.396 69.8749 140.657L73.0709 175.722C73.1192 176.198 72.9788 176.675 72.6799 177.049C72.3811 177.423 71.9475 177.665 71.4725 177.723L61.7637 178.647C61.2959 178.704 60.8244 178.576 60.4497 178.29C60.075 178.004 59.8268 177.582 59.7581 177.115L55.8157 141.483L41.6304 117.487L36.8688 142.75L27.004 177.637C26.875 177.985 26.6433 178.286 26.3395 178.499C26.0358 178.713 25.6745 178.828 25.3036 178.831L13.7978 178.836C13.5048 178.837 13.216 178.767 12.9567 178.63C12.6974 178.494 12.4756 178.296 12.3106 178.053Z" fill="#2F2E41"/>
<path d="M258.861 292.552H16.226C11.9241 292.547 7.79976 290.834 4.75785 287.789C1.71594 284.743 0.00485943 280.614 0 276.307V142.899C0.00485943 138.592 1.71594 134.463 4.75785 131.418C7.79976 128.372 11.9241 126.659 16.226 126.654H45.9749C50.0114 126.651 53.9036 128.157 56.8882 130.878L89.1492 153.942C91.2524 155.866 93.9993 156.932 96.8485 156.929H260.367C262.518 156.929 264.647 157.358 266.632 158.189C268.616 159.02 270.415 160.238 271.924 161.772C273.434 163.306 274.624 165.124 275.425 167.123C276.227 169.121 276.623 171.259 276.592 173.412L275.085 276.544C275.005 280.806 273.263 284.867 270.231 287.858C267.199 290.85 263.118 292.535 258.861 292.552Z" fill="white"/>
<path d="M256.705 284.677H17.6615C15.5862 284.674 13.5966 283.848 12.1292 282.379C10.6618 280.909 9.83633 278.917 9.83398 276.84V141.251C9.83633 139.173 10.6618 137.181 12.1292 135.712C13.5966 134.243 15.5862 133.416 17.6615 133.414C19.4971 133.416 21.2569 134.147 22.5548 135.447C23.8527 136.746 24.5828 138.508 24.5849 140.346V267.486C24.5871 269.434 25.3607 271.3 26.7359 272.677C28.1112 274.054 29.9758 274.829 31.9207 274.831H255.898C257.011 274.818 258.095 275.18 258.979 275.857C259.863 276.534 260.494 277.488 260.773 278.566C261.086 279.589 261.047 280.687 260.663 281.685C260.279 282.683 259.572 283.523 258.656 284.072C258.074 284.451 257.399 284.66 256.705 284.677Z" fill="#F2F2F2"/>
<path d="M139.358 219.562L138.729 218.931C138.598 218.809 138.522 218.64 138.516 218.461C138.51 218.282 138.575 218.109 138.698 217.978C138.708 217.967 138.718 217.957 138.729 217.947L144.251 212.414C144.311 212.349 144.384 212.297 144.464 212.26C144.545 212.224 144.632 212.203 144.72 212.201C144.809 212.198 144.897 212.212 144.979 212.243C145.062 212.275 145.138 212.322 145.203 212.382C145.213 212.392 145.224 212.403 145.234 212.414L150.756 217.942C150.82 218.004 150.872 218.079 150.908 218.161C150.944 218.244 150.963 218.332 150.964 218.422C150.966 218.512 150.95 218.601 150.917 218.685C150.884 218.769 150.835 218.845 150.773 218.909L150.756 218.926L150.126 219.557C150.064 219.621 149.99 219.673 149.907 219.709C149.825 219.745 149.736 219.764 149.647 219.765C149.557 219.767 149.468 219.751 149.384 219.718C149.301 219.685 149.224 219.636 149.16 219.574L149.143 219.557L145.878 216.111V224.287C145.879 224.377 145.862 224.465 145.828 224.548C145.795 224.63 145.745 224.706 145.683 224.769C145.62 224.833 145.546 224.883 145.464 224.918C145.382 224.953 145.294 224.971 145.204 224.972L145.2 224.972H144.29C144.109 224.972 143.935 224.9 143.807 224.771C143.678 224.643 143.606 224.469 143.606 224.287V216.121L140.342 219.566C140.215 219.696 140.042 219.771 139.861 219.773C139.68 219.775 139.505 219.705 139.375 219.579L139.358 219.562Z" fill="#37A475"/>
<path d="M144.734 207.387C146.95 207.387 149.116 208.045 150.959 209.278C152.802 210.511 154.238 212.263 155.086 214.313C155.934 216.363 156.156 218.618 155.724 220.795C155.292 222.971 154.224 224.97 152.657 226.539C151.09 228.108 149.093 229.177 146.92 229.609C144.746 230.042 142.493 229.82 140.445 228.971C138.398 228.122 136.648 226.684 135.416 224.839C134.185 222.994 133.528 220.825 133.528 218.606C133.53 215.631 134.712 212.779 136.813 210.676C138.914 208.572 141.762 207.39 144.734 207.387ZM144.734 205.91C142.226 205.91 139.774 206.655 137.688 208.05C135.603 209.445 133.978 211.428 133.018 213.748C132.058 216.067 131.807 218.62 132.296 221.083C132.786 223.546 133.993 225.808 135.767 227.583C137.54 229.359 139.8 230.568 142.26 231.058C144.72 231.548 147.269 231.296 149.586 230.335C151.903 229.375 153.884 227.747 155.277 225.659C156.671 223.572 157.414 221.117 157.414 218.606C157.414 215.239 156.078 212.01 153.7 209.629C151.322 207.248 148.097 205.91 144.734 205.91Z" fill="#3F3D56"/>
<path d="M258.861 292.552H16.226C11.9241 292.547 7.79976 290.834 4.75785 287.789C1.71594 284.743 0.00485943 280.614 0 276.307V142.899C0.00485943 138.592 1.71594 134.463 4.75785 131.418C7.79976 128.372 11.9241 126.659 16.226 126.654H45.9749C50.0114 126.651 53.9036 128.157 56.8882 130.878L89.1492 153.942C91.2524 155.866 93.9993 156.932 96.8485 156.929H260.367C262.518 156.929 264.647 157.358 266.632 158.189C268.616 159.02 270.415 160.238 271.924 161.772C273.434 163.306 274.624 165.124 275.425 167.123C276.227 169.121 276.623 171.259 276.592 173.412L275.085 276.544C275.005 280.806 273.263 284.867 270.231 287.858C267.199 290.85 263.118 292.535 258.861 292.552ZM16.226 127.639C12.1848 127.643 8.31046 129.253 5.45292 132.114C2.59537 134.975 0.987985 138.854 0.983393 142.899V276.307C0.987985 280.353 2.59537 284.232 5.45292 287.093C8.31046 289.954 12.1848 291.563 16.226 291.568H258.861C262.86 291.551 266.694 289.969 269.542 287.158C272.39 284.348 274.027 280.533 274.102 276.53L275.608 173.398C275.638 171.375 275.265 169.367 274.513 167.49C273.76 165.612 272.642 163.904 271.224 162.463C269.806 161.022 268.116 159.878 266.252 159.097C264.388 158.316 262.388 157.914 260.367 157.914H96.8485C93.7642 157.917 90.79 156.767 88.5082 154.689L56.2474 131.625C53.4412 129.058 49.7764 127.636 45.9749 127.639H16.226Z" fill="#3F3D56"/>
<path d="M279.423 295.15H273.395L271.511 271.871L279.424 271.872L279.423 295.15Z" fill="#FFB8B8"/>
<path d="M280.961 301L261.524 300.999V300.753C261.524 299.758 261.72 298.773 262.1 297.854C262.48 296.935 263.038 296.1 263.74 295.397C264.443 294.694 265.277 294.136 266.195 293.755C267.113 293.375 268.096 293.179 269.09 293.179L280.962 293.179L280.961 301Z" fill="#2F2E41"/>
<path d="M346.786 295.15H340.758L337.891 271.871L346.787 271.872L346.786 295.15Z" fill="#FFB8B8"/>
<path d="M348.323 301L328.886 300.999V300.753C328.886 299.758 329.081 298.773 329.462 297.854C329.842 296.935 330.399 296.1 331.102 295.397C331.804 294.694 332.638 294.136 333.556 293.755C334.474 293.375 335.458 293.179 336.451 293.179L348.323 293.179L348.323 301Z" fill="#2F2E41"/>
<path d="M326.965 223.186C327.797 222.21 328.266 220.975 328.292 219.692C328.318 218.408 327.9 217.156 327.108 216.146C326.947 215.953 326.771 215.773 326.581 215.609L331.122 198.826L323.554 201.34L320.403 216.891C319.88 217.85 319.648 218.941 319.737 220.03C319.826 221.119 320.231 222.159 320.903 223.02C321.254 223.485 321.706 223.865 322.223 224.131C322.741 224.398 323.312 224.545 323.894 224.561C324.476 224.577 325.054 224.462 325.586 224.224C326.117 223.986 326.588 223.631 326.965 223.186Z" fill="#FFB8B8"/>
<path d="M326.674 212.862C326.579 212.862 326.484 212.855 326.391 212.841L322.447 212.246C322.141 212.193 321.849 212.073 321.593 211.896C321.337 211.718 321.123 211.487 320.966 211.218C320.624 210.645 320.502 209.968 320.62 209.312L325.54 181.802L322.203 164.129C321.56 160.727 323.22 157.292 326.064 156.138C326.908 155.793 327.826 155.672 328.731 155.788C329.635 155.904 330.494 156.253 331.223 156.8C332.01 157.397 332.663 158.152 333.139 159.018C333.615 159.884 333.904 160.84 333.987 161.825L336.349 184.36L336.32 184.458L328.72 211.163C328.611 211.631 328.352 212.05 327.982 212.357C327.613 212.664 327.153 212.841 326.674 212.862Z" fill="#37A475"/>
<path d="M325.51 146.399C332.18 146.399 337.587 140.985 337.587 134.308C337.587 127.63 332.18 122.217 325.51 122.217C318.84 122.217 313.434 127.63 313.434 134.308C313.434 140.985 318.84 146.399 325.51 146.399Z" fill="#FFB8B8"/>
<path d="M319.326 190.511C319.025 190.511 318.727 190.455 318.446 190.347L299.358 182.996C298.841 182.799 298.407 182.433 298.124 181.956C297.842 181.48 297.729 180.922 297.804 180.374L298.57 174.618C298.115 172.577 298.157 170.457 298.692 168.436C299.227 166.415 300.239 164.552 301.643 163.005L302.108 162.493L307.755 152.182C308.138 151.484 308.655 150.868 309.276 150.371C309.898 149.873 310.611 149.504 311.376 149.284C312.141 149.064 312.942 148.997 313.732 149.089C314.523 149.18 315.287 149.427 315.982 149.816L325.954 155.395C327.267 156.128 328.258 157.327 328.733 158.755C330.075 162.798 329.975 167.181 328.451 171.159L321.623 188.933C321.442 189.397 321.127 189.795 320.717 190.076C320.307 190.358 319.823 190.509 319.326 190.511Z" fill="#37A475"/>
<path d="M269.302 289.434L269.276 289.429C268.951 289.366 268.641 289.238 268.366 289.053C268.091 288.867 267.857 288.628 267.677 288.349C267.497 288.07 267.375 287.758 267.318 287.431C267.262 287.104 267.272 286.769 267.348 286.446L281.975 222.43C284.37 212.282 287.678 202.372 291.859 192.822L298.082 178.616L321.303 189.23L324.619 195.301C327.204 202.062 328.533 209.24 328.541 216.48L352.136 285.71C352.251 286.048 352.291 286.407 352.254 286.762C352.216 287.117 352.102 287.46 351.919 287.767C351.737 288.073 351.489 288.336 351.195 288.538C350.9 288.739 350.565 288.874 350.213 288.933L337.297 288.786C337.175 288.808 337.051 288.819 336.927 288.818C336.438 288.818 335.959 288.671 335.554 288.396C335.149 288.121 334.836 287.73 334.655 287.274L307.684 217.279C307.645 217.186 307.579 217.107 307.495 217.053C307.41 216.998 307.311 216.971 307.211 216.974C307.112 216.976 307.017 217.008 306.938 217.066C306.858 217.124 306.798 217.204 306.767 217.298L281.175 287.641C280.979 288.188 280.595 288.647 280.091 288.937C279.588 289.226 278.998 289.327 278.428 289.221L269.302 289.434Z" fill="#2F2E41"/>
<path d="M286.96 210.711C287.641 210.469 288.261 210.08 288.776 209.571C289.29 209.063 289.687 208.448 289.939 207.77C290.19 207.091 290.29 206.366 290.231 205.644C290.173 204.923 289.957 204.224 289.598 203.595L301.165 190.352L292.118 189.117L282.521 201.882C281.506 202.554 280.773 203.576 280.46 204.753C280.147 205.931 280.277 207.182 280.824 208.271C281.371 209.359 282.298 210.209 283.429 210.658C284.56 211.108 285.817 211.127 286.96 210.711Z" fill="#FFB8B8"/>
<path d="M292.413 201.383C292.01 201.382 291.614 201.283 291.258 201.094L287.188 198.921C286.89 198.761 286.627 198.542 286.417 198.276C286.207 198.01 286.054 197.704 285.968 197.376C285.882 197.048 285.864 196.706 285.916 196.371C285.968 196.037 286.088 195.716 286.269 195.43L301.303 171.713L303.909 153.816C304.044 152.891 304.365 152.003 304.853 151.205C305.34 150.408 305.984 149.718 306.746 149.178C307.508 148.637 308.371 148.256 309.284 148.059C310.196 147.862 311.14 147.853 312.056 148.032C312.973 148.21 313.843 148.573 314.616 149.098C315.388 149.624 316.046 150.3 316.549 151.088C317.053 151.875 317.391 152.756 317.545 153.678C317.698 154.601 317.663 155.544 317.442 156.452L312.059 178.512L294.327 200.47C294.097 200.756 293.805 200.986 293.474 201.144C293.142 201.302 292.78 201.384 292.413 201.383Z" fill="#37A475"/>
<path d="M314.639 124.332C316.036 119.746 324.106 117.699 330.815 119.602C337.523 121.505 342.342 126.494 343.464 131.372C345.948 142.174 332.991 150.94 335.339 161.743C336.892 168.891 345.879 175.648 356 177.28C344.846 179.617 331.231 177.563 320.888 171.984C314.45 168.511 309.049 163.271 309.131 157.986C309.18 154.785 311.214 151.956 313.7 149.511C316.187 147.066 319.163 144.893 321.446 142.341C323.728 139.789 325.309 136.733 324.643 133.494C323.977 130.254 320.593 126.876 316.041 125.933L314.639 124.332Z" fill="#2F2E41"/>
</svg>
